<?xml version="1.0" encoding="UTF-8"?>
<svg xmlns="http://www.w3.org/2000/svg" xmlns:xlink="http://www.w3.org/1999/xlink" width="70px" height="66px" viewBox="0 0 70 66" version="1.1">
<defs>
<clipPath id="clip1">
  <path d="M 11.667969 32 L 58.277344 32 L 58.277344 34 L 11.667969 34 Z M 11.667969 32 "/>
</clipPath>
<clipPath id="clip2">
  <path d="M 11.78125 27.5 L 58.160156 27.5 L 58.160156 32.433594 L 11.78125 32.433594 Z M 11.78125 27.5 "/>
</clipPath>
<clipPath id="clip3">
  <path d="M 11.667969 33.925781 L 58.046875 33.925781 L 58.046875 38.496094 L 11.667969 38.496094 Z M 11.667969 33.925781 "/>
</clipPath>
</defs>
<g id="surface1">
<rect x="0" y="0" width="70" height="66" style="fill:rgb(20.784314%,9.411765%,35.294118%);fill-opacity:1;stroke:none;"/>
<g clip-path="url(#clip1)" clip-rule="nonzero">
<path style=" stroke:none;fill-rule:nonzero;fill:rgb(64.313725%,21.568627%,85.882353%);fill-opacity:1;" d="M 12.132812 32.957031 L 57.8125 32.957031 C 58.066406 32.957031 58.277344 33.054688 58.277344 33.179688 C 58.277344 33.300781 58.066406 33.402344 57.8125 33.402344 L 12.132812 33.402344 C 11.875 33.402344 11.667969 33.300781 11.667969 33.179688 C 11.667969 33.054688 11.875 32.957031 12.132812 32.957031 Z M 12.132812 32.957031 "/>
</g>
<g clip-path="url(#clip2)" clip-rule="nonzero">
<path style=" stroke:none;fill-rule:nonzero;fill:rgb(64.313725%,21.568627%,85.882353%);fill-opacity:1;" d="M 14.851562 27.910156 C 14.851562 27.726562 14.773438 27.636719 14.621094 27.636719 C 14.457031 27.636719 14.285156 27.742188 14.105469 27.953125 C 13.925781 28.167969 13.765625 28.421875 13.625 28.722656 C 13.488281 29.023438 13.363281 29.328125 13.246094 29.640625 C 13.132812 29.953125 13.042969 30.21875 12.980469 30.433594 C 12.917969 30.648438 12.886719 30.765625 12.886719 30.792969 C 12.886719 30.832031 12.867188 30.851562 12.820312 30.851562 C 12.726562 30.851562 12.679688 30.734375 12.679688 30.496094 C 12.679688 29.925781 12.75 29.371094 12.886719 28.832031 C 13.023438 28.292969 13.171875 27.933594 13.339844 27.753906 C 12.890625 27.8125 12.527344 27.960938 12.246094 28.203125 C 12.085938 28.335938 12.007812 28.480469 12.007812 28.636719 C 12.007812 28.714844 12.039062 28.75 12.101562 28.75 C 12.089844 28.792969 12.054688 28.8125 11.996094 28.8125 C 11.941406 28.8125 11.890625 28.792969 11.847656 28.75 C 11.808594 28.710938 11.785156 28.652344 11.785156 28.578125 C 11.785156 28.402344 11.898438 28.242188 12.121094 28.09375 C 12.347656 27.941406 12.589844 27.832031 12.851562 27.757812 C 13.109375 27.6875 13.332031 27.652344 13.511719 27.652344 C 13.5625 27.652344 13.589844 27.675781 13.589844 27.722656 C 13.371094 28.203125 13.183594 28.871094 13.027344 29.730469 L 13.0625 29.730469 C 13.199219 29.300781 13.34375 28.941406 13.488281 28.65625 C 13.636719 28.371094 13.765625 28.15625 13.875 28.007812 C 13.984375 27.863281 14.109375 27.742188 14.242188 27.648438 C 14.375 27.550781 14.507812 27.503906 14.644531 27.503906 C 14.917969 27.503906 15.085938 27.617188 15.136719 27.84375 C 15.152344 27.890625 15.15625 27.945312 15.15625 28 C 15.15625 28.183594 15.089844 28.378906 14.960938 28.59375 C 14.769531 28.898438 14.519531 29.109375 14.199219 29.230469 L 14.023438 29.285156 C 14.113281 29.292969 14.210938 29.410156 14.3125 29.632812 C 14.414062 29.855469 14.503906 30.101562 14.582031 30.367188 C 14.660156 30.628906 14.753906 30.871094 14.863281 31.089844 C 14.976562 31.308594 15.082031 31.421875 15.191406 31.421875 C 15.273438 31.421875 15.335938 31.390625 15.378906 31.335938 C 15.398438 31.335938 15.410156 31.34375 15.410156 31.359375 C 15.410156 31.371094 15.402344 31.394531 15.382812 31.421875 C 15.3125 31.507812 15.230469 31.558594 15.128906 31.566406 C 14.964844 31.566406 14.808594 31.460938 14.65625 31.25 C 14.503906 31.042969 14.378906 30.808594 14.285156 30.550781 C 14.191406 30.296875 14.09375 30.039062 13.988281 29.785156 C 13.882812 29.53125 13.792969 29.375 13.722656 29.316406 C 13.6875 29.316406 13.660156 29.304688 13.636719 29.285156 C 13.617188 29.269531 13.605469 29.238281 13.601562 29.195312 C 13.9375 29.195312 14.234375 29.039062 14.496094 28.726562 C 14.734375 28.445312 14.851562 28.171875 14.851562 27.910156 Z M 15.636719 30.9375 C 15.378906 30.9375 15.25 30.746094 15.25 30.363281 C 15.25 30.136719 15.3125 29.886719 15.429688 29.613281 C 15.597656 29.230469 15.8125 28.972656 16.085938 28.832031 C 16.199219 28.773438 16.308594 28.742188 16.410156 28.742188 C 16.507812 28.742188 16.589844 28.765625 16.648438 28.804688 C 16.707031 28.847656 16.742188 28.886719 16.757812 28.929688 L 16.785156 28.988281 C 16.777344 29.039062 16.75 29.0625 16.707031 29.0625 C 16.65625 29.0625 16.625 29.050781 16.617188 29.03125 C 16.609375 29.007812 16.601562 28.988281 16.59375 28.972656 C 16.582031 28.957031 16.5625 28.933594 16.527344 28.90625 C 16.492188 28.875 16.453125 28.863281 16.410156 28.863281 C 16.207031 28.863281 16.019531 29.035156 15.855469 29.382812 C 15.664062 29.78125 15.570312 30.15625 15.570312 30.511719 C 15.570312 30.6875 15.609375 30.777344 15.683594 30.777344 C 15.742188 30.777344 15.828125 30.714844 15.9375 30.585938 C 16.042969 30.460938 16.15625 30.304688 16.277344 30.113281 C 16.484375 29.789062 16.652344 29.507812 16.78125 29.265625 C 16.886719 29.054688 16.996094 28.945312 17.109375 28.945312 C 17.171875 28.945312 17.199219 28.980469 17.199219 29.050781 C 17.171875 29.105469 17.136719 29.183594 17.09375 29.289062 C 17.046875 29.394531 16.988281 29.597656 16.917969 29.90625 C 16.84375 30.214844 16.808594 30.519531 16.808594 30.824219 C 16.808594 31.128906 16.859375 31.28125 16.957031 31.28125 C 16.992188 31.28125 17.027344 31.265625 17.058594 31.234375 C 17.089844 31.203125 17.117188 31.15625 17.144531 31.097656 C 17.152344 31.0625 17.175781 31.046875 17.210938 31.046875 C 17.222656 31.046875 17.230469 31.050781 17.238281 31.058594 C 17.246094 31.070312 17.246094 31.085938 17.238281 31.105469 C 17.230469 31.125 17.21875 31.15625 17.203125 31.191406 C 17.1875 31.226562 17.15625 31.277344 17.105469 31.339844 C 17.050781 31.402344 16.996094 31.433594 16.941406 31.433594 C 16.808594 31.433594 16.707031 31.351562 16.636719 31.1875 C 16.566406 31.027344 16.53125 30.835938 16.53125 30.613281 C 16.53125 30.390625 16.550781 30.175781 16.582031 29.972656 L 16.535156 29.972656 C 16.136719 30.613281 15.839844 30.9375 15.636719 30.9375 Z M 18.382812 30.527344 C 18.382812 30.707031 18.433594 30.792969 18.53125 30.792969 C 18.660156 30.792969 18.800781 30.632812 18.957031 30.304688 C 19.136719 29.933594 19.226562 29.582031 19.226562 29.257812 C 19.226562 29.035156 19.164062 28.925781 19.039062 28.925781 C 18.914062 28.925781 18.777344 29.015625 18.632812 29.195312 C 18.484375 29.375 18.351562 29.585938 18.238281 29.824219 C 18.125 30.0625 18.027344 30.289062 17.941406 30.5 C 17.863281 30.710938 17.8125 30.867188 17.796875 30.96875 C 17.777344 31.070312 17.765625 31.148438 17.757812 31.199219 C 17.746094 31.253906 17.730469 31.335938 17.710938 31.445312 C 17.691406 31.558594 17.671875 31.644531 17.65625 31.703125 C 17.636719 31.761719 17.613281 31.839844 17.585938 31.929688 C 17.558594 32.019531 17.527344 32.089844 17.5 32.136719 C 17.46875 32.1875 17.4375 32.234375 17.398438 32.285156 C 17.324219 32.382812 17.226562 32.433594 17.109375 32.433594 C 16.960938 32.433594 16.882812 32.351562 16.882812 32.1875 C 16.882812 31.898438 17.121094 31.351562 17.589844 30.550781 C 17.636719 30.222656 17.6875 29.960938 17.738281 29.757812 C 17.847656 29.28125 17.964844 28.914062 18.085938 28.652344 C 18.210938 28.390625 18.324219 28.257812 18.425781 28.257812 C 18.476562 28.257812 18.5 28.289062 18.5 28.34375 C 18.347656 28.71875 18.195312 29.195312 18.035156 29.773438 L 18.003906 29.875 L 18.066406 29.875 C 18.425781 29.140625 18.761719 28.773438 19.078125 28.773438 C 19.375 28.773438 19.523438 28.996094 19.523438 29.4375 C 19.523438 29.753906 19.433594 30.074219 19.261719 30.394531 C 19.070312 30.753906 18.84375 30.9375 18.574219 30.9375 C 18.359375 30.9375 18.25 30.804688 18.25 30.535156 C 18.25 30.394531 18.292969 30.230469 18.375 30.046875 C 18.457031 29.859375 18.566406 29.722656 18.703125 29.636719 C 18.730469 29.621094 18.753906 29.625 18.773438 29.652344 C 18.777344 29.667969 18.773438 29.679688 18.765625 29.683594 C 18.648438 29.773438 18.554688 29.902344 18.484375 30.074219 C 18.417969 30.246094 18.382812 30.398438 18.382812 30.527344 Z M 17.011719 32.148438 C 17.011719 32.238281 17.046875 32.28125 17.117188 32.28125 C 17.257812 32.28125 17.363281 32.101562 17.429688 31.738281 C 17.457031 31.617188 17.5 31.300781 17.5625 30.796875 C 17.277344 31.320312 17.101562 31.722656 17.03125 32.011719 C 17.019531 32.0625 17.011719 32.109375 17.011719 32.148438 Z M 20.632812 29.648438 C 20.464844 29.933594 20.335938 30.183594 20.242188 30.402344 C 20.152344 30.621094 20.105469 30.75 20.105469 30.792969 C 20.105469 30.832031 20.082031 30.851562 20.039062 30.851562 C 19.945312 30.851562 19.898438 30.734375 19.898438 30.496094 C 19.898438 30.027344 19.945312 29.554688 20.046875 29.078125 C 20.148438 28.601562 20.265625 28.222656 20.40625 27.9375 C 20.542969 27.652344 20.671875 27.507812 20.792969 27.507812 C 20.84375 27.507812 20.867188 27.53125 20.867188 27.578125 C 20.699219 27.925781 20.5625 28.320312 20.449219 28.765625 C 20.339844 29.210938 20.246094 29.683594 20.171875 30.1875 L 20.203125 30.1875 C 20.601562 29.261719 20.992188 28.800781 21.375 28.800781 C 21.535156 28.800781 21.617188 28.875 21.617188 29.019531 C 21.59375 29.085938 21.566406 29.175781 21.53125 29.285156 C 21.496094 29.398438 21.449219 29.597656 21.394531 29.882812 C 21.335938 30.171875 21.308594 30.421875 21.308594 30.636719 C 21.308594 30.953125 21.359375 31.109375 21.457031 31.109375 C 21.488281 31.109375 21.523438 31.09375 21.558594 31.066406 C 21.59375 31.039062 21.617188 31.023438 21.628906 31.023438 C 21.671875 31.023438 21.671875 31.058594 21.625 31.121094 C 21.613281 31.144531 21.585938 31.171875 21.542969 31.207031 C 21.5 31.242188 21.457031 31.261719 21.417969 31.261719 C 21.296875 31.261719 21.199219 31.179688 21.132812 31.019531 C 21.066406 30.855469 21.03125 30.648438 21.03125 30.390625 C 21.03125 29.953125 21.101562 29.507812 21.238281 29.042969 C 21.246094 29 21.226562 28.980469 21.183594 28.988281 C 21.160156 28.988281 21.136719 29.003906 21.117188 29.023438 C 20.960938 29.15625 20.796875 29.363281 20.632812 29.648438 Z M 23.144531 28.78125 C 23.382812 28.78125 23.503906 28.914062 23.503906 29.179688 C 23.503906 29.328125 23.449219 29.488281 23.34375 29.652344 C 23.160156 29.929688 22.917969 30.066406 22.617188 30.066406 C 22.570312 30.066406 22.53125 30.058594 22.5 30.042969 C 22.46875 30.027344 22.445312 30.007812 22.429688 29.976562 C 22.652344 29.976562 22.855469 29.855469 23.042969 29.613281 C 23.191406 29.417969 23.269531 29.238281 23.269531 29.074219 C 23.269531 28.953125 23.214844 28.894531 23.113281 28.894531 C 22.90625 28.894531 22.710938 29.046875 22.535156 29.351562 C 22.34375 29.683594 22.246094 30.023438 22.246094 30.371094 C 22.246094 30.667969 22.335938 30.847656 22.515625 30.90625 C 22.550781 30.917969 22.59375 30.921875 22.648438 30.921875 C 22.699219 30.921875 22.757812 30.910156 22.816406 30.886719 C 22.875 30.859375 22.925781 30.828125 22.96875 30.792969 C 23.046875 30.722656 23.117188 30.644531 23.167969 30.558594 C 23.183594 30.535156 23.207031 30.523438 23.238281 30.523438 C 23.296875 30.523438 23.324219 30.53125 23.320312 30.550781 C 23.3125 30.582031 23.273438 30.636719 23.214844 30.714844 C 23.152344 30.792969 23.097656 30.851562 23.042969 30.898438 C 22.992188 30.945312 22.925781 30.984375 22.84375 31.023438 C 22.757812 31.058594 22.675781 31.078125 22.589844 31.078125 C 22.257812 31.078125 22.046875 30.929688 21.953125 30.632812 C 21.925781 30.535156 21.914062 30.429688 21.914062 30.324219 C 21.914062 30.125 21.960938 29.910156 22.058594 29.675781 C 22.210938 29.320312 22.425781 29.0625 22.695312 28.90625 C 22.839844 28.824219 22.992188 28.78125 23.144531 28.78125 Z M 24.976562 28.78125 C 25.214844 28.78125 25.335938 28.914062 25.335938 29.179688 C 25.335938 29.328125 25.28125 29.488281 25.175781 29.652344 C 24.992188 29.929688 24.75 30.066406 24.449219 30.066406 C 24.402344 30.066406 24.363281 30.058594 24.332031 30.042969 C 24.300781 30.027344 24.277344 30.007812 24.261719 29.976562 C 24.484375 29.976562 24.6875 29.855469 24.875 29.613281 C 25.023438 29.417969 25.101562 29.238281 25.101562 29.074219 C 25.101562 28.953125 25.046875 28.894531 24.945312 28.894531 C 24.738281 28.894531 24.542969 29.046875 24.367188 29.351562 C 24.175781 29.683594 24.078125 30.023438 24.078125 30.371094 C 24.078125 30.667969 24.167969 30.847656 24.347656 30.90625 C 24.382812 30.917969 24.425781 30.921875 24.476562 30.921875 C 24.53125 30.921875 24.589844 30.910156 24.648438 30.886719 C 24.707031 30.859375 24.757812 30.828125 24.796875 30.792969 C 24.878906 30.722656 24.949219 30.644531 25 30.558594 C 25.011719 30.535156 25.035156 30.523438 25.070312 30.523438 C 25.128906 30.523438 25.15625 30.53125 25.152344 30.550781 C 25.140625 30.582031 25.105469 30.636719 25.046875 30.714844 C 24.984375 30.792969 24.929688 30.851562 24.875 30.898438 C 24.824219 30.945312 24.757812 30.984375 24.671875 31.023438 C 24.589844 31.058594 24.507812 31.078125 24.421875 31.078125 C 24.089844 31.078125 23.878906 30.929688 23.785156 30.632812 C 23.757812 30.535156 23.742188 30.429688 23.742188 30.324219 C 23.742188 30.125 23.792969 29.910156 23.890625 29.675781 C 24.042969 29.320312 24.253906 29.0625 24.527344 28.90625 C 24.671875 28.824219 24.824219 28.78125 24.976562 28.78125 Z M 29.480469 28.890625 C 29.855469 29.003906 30.042969 29.289062 30.042969 29.753906 C 30.042969 30.144531 29.867188 30.523438 29.515625 30.894531 C 29.167969 31.265625 28.6875 31.449219 28.074219 31.449219 C 27.59375 31.449219 27.28125 31.320312 27.136719 31.054688 C 27.085938 30.96875 27.0625 30.875 27.0625 30.78125 C 27.0625 30.691406 27.085938 30.59375 27.136719 30.496094 C 27.230469 30.308594 27.367188 30.210938 27.546875 30.210938 C 27.5625 30.210938 27.574219 30.21875 27.578125 30.238281 C 27.585938 30.253906 27.585938 30.269531 27.578125 30.289062 C 27.570312 30.304688 27.558594 30.316406 27.542969 30.316406 C 27.4375 30.316406 27.347656 30.378906 27.273438 30.511719 C 27.222656 30.597656 27.199219 30.675781 27.199219 30.753906 C 27.199219 30.832031 27.21875 30.90625 27.253906 30.976562 C 27.363281 31.175781 27.609375 31.277344 27.988281 31.277344 C 28.46875 31.277344 28.882812 31.089844 29.234375 30.710938 C 29.503906 30.417969 29.671875 30.101562 29.738281 29.753906 C 29.753906 29.671875 29.761719 29.59375 29.761719 29.523438 C 29.761719 29.320312 29.695312 29.167969 29.566406 29.066406 C 29.496094 29.015625 29.414062 28.984375 29.3125 28.972656 C 29.144531 29.042969 28.960938 29.074219 28.765625 29.074219 C 28.746094 29.074219 28.734375 29.054688 28.734375 29.015625 C 28.734375 28.976562 28.746094 28.957031 28.765625 28.957031 C 29.082031 28.957031 29.363281 28.816406 29.601562 28.535156 C 29.777344 28.324219 29.871094 28.117188 29.882812 27.917969 C 29.875 27.738281 29.800781 27.648438 29.660156 27.636719 C 29.507812 27.636719 29.34375 27.742188 29.167969 27.949219 C 28.992188 28.15625 28.832031 28.40625 28.691406 28.703125 C 28.550781 29 28.421875 29.300781 28.304688 29.609375 C 28.183594 29.921875 28.09375 30.183594 28.027344 30.40625 C 27.960938 30.625 27.929688 30.753906 27.929688 30.792969 C 27.929688 30.832031 27.90625 30.851562 27.863281 30.851562 C 27.769531 30.851562 27.722656 30.734375 27.722656 30.496094 C 27.722656 29.925781 27.789062 29.371094 27.925781 28.832031 C 28.0625 28.292969 28.214844 27.933594 28.378906 27.753906 C 27.929688 27.8125 27.566406 27.960938 27.289062 28.203125 C 27.128906 28.335938 27.046875 28.480469 27.046875 28.636719 C 27.046875 28.714844 27.078125 28.75 27.140625 28.75 C 27.128906 28.792969 27.09375 28.8125 27.039062 28.8125 C 26.980469 28.8125 26.933594 28.792969 26.890625 28.75 C 26.847656 28.710938 26.828125 28.652344 26.828125 28.578125 C 26.828125 28.402344 26.9375 28.242188 27.164062 28.09375 C 27.386719 27.941406 27.628906 27.832031 27.890625 27.757812 C 28.152344 27.6875 28.371094 27.652344 28.554688 27.652344 C 28.605469 27.652344 28.628906 27.675781 28.628906 27.722656 C 28.425781 28.167969 28.242188 28.820312 28.074219 29.679688 L 28.113281 29.679688 C 28.292969 29.144531 28.507812 28.664062 28.757812 28.242188 C 28.890625 28.011719 29.035156 27.832031 29.195312 27.703125 C 29.355469 27.570312 29.519531 27.503906 29.683594 27.503906 C 29.949219 27.503906 30.105469 27.605469 30.15625 27.804688 C 30.164062 27.847656 30.167969 27.890625 30.167969 27.941406 C 30.167969 28.097656 30.105469 28.269531 29.972656 28.453125 C 29.84375 28.632812 29.679688 28.78125 29.480469 28.890625 Z M 31.652344 28.78125 C 31.890625 28.78125 32.011719 28.914062 32.011719 29.179688 C 32.011719 29.328125 31.957031 29.488281 31.851562 29.652344 C 31.667969 29.929688 31.425781 30.066406 31.125 30.066406 C 31.078125 30.066406 31.039062 30.058594 31.007812 30.042969 C 30.976562 30.027344 30.953125 30.007812 30.9375 29.976562 C 31.160156 29.976562 31.363281 29.855469 31.550781 29.613281 C 31.699219 29.417969 31.773438 29.238281 31.773438 29.074219 C 31.773438 28.953125 31.722656 28.894531 31.621094 28.894531 C 31.414062 28.894531 31.21875 29.046875 31.039062 29.351562 C 30.847656 29.683594 30.753906 30.023438 30.753906 30.371094 C 30.753906 30.667969 30.84375 30.847656 31.023438 30.90625 C 31.054688 30.917969 31.101562 30.921875 31.152344 30.921875 C 31.207031 30.921875 31.261719 30.910156 31.324219 30.886719 C 31.382812 30.859375 31.433594 30.828125 31.472656 30.792969 C 31.554688 30.722656 31.621094 30.644531 31.675781 30.558594 C 31.6875 30.535156 31.710938 30.523438 31.746094 30.523438 C 31.804688 30.523438 31.832031 30.53125 31.828125 30.550781 C 31.816406 30.582031 31.78125 30.636719 31.722656 30.714844 C 31.660156 30.792969 31.601562 30.851562 31.550781 30.898438 C 31.5 30.945312 31.433594 30.984375 31.347656 31.023438 C 31.265625 31.058594 31.183594 31.078125 31.097656 31.078125 C 30.765625 31.078125 30.550781 30.929688 30.460938 30.632812 C 30.433594 30.535156 30.417969 30.429688 30.417969 30.324219 C 30.417969 30.125 30.46875 29.910156 30.566406 29.675781 C 30.71875 29.320312 30.929688 29.0625 31.199219 28.90625 C 31.347656 28.824219 31.5 28.78125 31.652344 28.78125 Z M 32.652344 30.9375 C 32.394531 30.9375 32.265625 30.746094 32.265625 30.363281 C 32.265625 30.136719 32.324219 29.886719 32.445312 29.613281 C 32.609375 29.230469 32.828125 28.972656 33.097656 28.832031 C 33.214844 28.773438 33.324219 28.742188 33.421875 28.742188 C 33.523438 28.742188 33.601562 28.765625 33.660156 28.804688 C 33.71875 28.847656 33.757812 28.886719 33.773438 28.929688 L 33.800781 28.988281 C 33.789062 29.039062 33.765625 29.0625 33.71875 29.0625 C 33.667969 29.0625 33.640625 29.050781 33.632812 29.03125 C 33.625 29.007812 33.617188 28.988281 33.605469 28.972656 C 33.597656 28.957031 33.574219 28.933594 33.539062 28.90625 C 33.507812 28.875 33.46875 28.863281 33.421875 28.863281 C 33.21875 28.863281 33.035156 29.035156 32.867188 29.382812 C 32.679688 29.78125 32.585938 30.15625 32.585938 30.511719 C 32.585938 30.6875 32.621094 30.777344 32.699219 30.777344 C 32.757812 30.777344 32.839844 30.714844 32.949219 30.585938 C 33.058594 30.460938 33.171875 30.304688 33.292969 30.113281 C 33.5 29.789062 33.667969 29.507812 33.796875 29.265625 C 33.902344 29.054688 34.011719 28.945312 34.125 28.945312 C 34.183594 28.945312 34.214844 28.980469 34.214844 29.050781 C 34.1875 29.105469 34.148438 29.183594 34.105469 29.289062 C 34.0625 29.394531 34.003906 29.597656 33.933594 29.90625 C 33.859375 30.214844 33.824219 30.519531 33.824219 30.824219 C 33.824219 31.128906 33.871094 31.28125 33.96875 31.28125 C 34.007812 31.28125 34.042969 31.265625 34.074219 31.234375 C 34.105469 31.203125 34.132812 31.15625 34.15625 31.097656 C 34.167969 31.0625 34.1875 31.046875 34.222656 31.046875 C 34.234375 31.046875 34.246094 31.050781 34.25 31.058594 C 34.257812 31.070312 34.257812 31.085938 34.25 31.105469 C 34.246094 31.125 34.234375 31.15625 34.21875 31.191406 C 34.203125 31.226562 34.167969 31.277344 34.117188 31.339844 C 34.066406 31.402344 34.011719 31.433594 33.957031 31.433594 C 33.824219 31.433594 33.722656 31.351562 33.652344 31.1875 C 33.582031 31.027344 33.546875 30.835938 33.546875 30.613281 C 33.546875 30.390625 33.5625 30.175781 33.597656 29.972656 L 33.550781 29.972656 C 33.152344 30.613281 32.851562 30.9375 32.652344 30.9375 Z M 36.152344 31.269531 C 36.191406 31.269531 36.226562 31.253906 36.261719 31.222656 C 36.292969 31.191406 36.324219 31.144531 36.351562 31.078125 C 36.355469 31.050781 36.375 31.039062 36.410156 31.039062 C 36.441406 31.039062 36.457031 31.050781 36.449219 31.078125 C 36.441406 31.105469 36.429688 31.136719 36.410156 31.175781 C 36.394531 31.214844 36.355469 31.265625 36.300781 31.328125 C 36.246094 31.394531 36.191406 31.425781 36.136719 31.425781 C 36.007812 31.425781 35.914062 31.351562 35.84375 31.203125 C 35.769531 31.054688 35.734375 30.871094 35.734375 30.652344 C 35.734375 30.4375 35.753906 30.210938 35.785156 29.980469 L 35.746094 29.980469 C 35.363281 30.605469 35.074219 30.917969 34.867188 30.917969 C 34.628906 30.917969 34.507812 30.746094 34.507812 30.398438 C 34.507812 30.050781 34.585938 29.703125 34.742188 29.355469 C 34.914062 28.972656 35.066406 28.78125 35.199219 28.78125 C 35.253906 28.78125 35.28125 28.816406 35.28125 28.878906 C 35.152344 29.210938 35.039062 29.527344 34.945312 29.839844 C 34.851562 30.148438 34.804688 30.382812 34.804688 30.535156 C 34.804688 30.6875 34.839844 30.761719 34.914062 30.761719 C 34.96875 30.761719 35.046875 30.703125 35.152344 30.582031 C 35.257812 30.460938 35.367188 30.3125 35.476562 30.136719 C 35.710938 29.761719 35.890625 29.441406 36.015625 29.179688 C 36.140625 28.914062 36.265625 28.78125 36.398438 28.78125 C 36.460938 28.78125 36.492188 28.816406 36.492188 28.878906 C 36.292969 29.257812 36.148438 29.703125 36.066406 30.226562 C 36.03125 30.433594 36.011719 30.636719 36.011719 30.835938 C 36.011719 31.125 36.058594 31.269531 36.152344 31.269531 Z M 37.019531 29.015625 C 36.898438 29.015625 36.835938 28.964844 36.835938 28.871094 C 36.835938 28.835938 36.851562 28.8125 36.882812 28.804688 C 36.886719 28.800781 36.890625 28.800781 36.898438 28.800781 C 36.914062 28.820312 36.949219 28.832031 37.003906 28.832031 C 37.054688 28.832031 37.136719 28.828125 37.25 28.824219 C 37.398438 28.445312 37.539062 28.257812 37.671875 28.257812 C 37.726562 28.257812 37.753906 28.289062 37.753906 28.34375 C 37.703125 28.460938 37.648438 28.613281 37.585938 28.800781 C 37.894531 28.769531 38.097656 28.75 38.191406 28.75 C 38.21875 28.75 38.230469 28.765625 38.230469 28.789062 C 38.230469 28.835938 38.195312 28.859375 38.128906 28.859375 C 38.097656 28.859375 37.898438 28.890625 37.53125 28.953125 C 37.285156 29.691406 37.160156 30.289062 37.160156 30.75 C 37.160156 31.207031 37.257812 31.4375 37.453125 31.4375 C 37.53125 31.4375 37.605469 31.40625 37.671875 31.34375 C 37.742188 31.277344 37.792969 31.214844 37.820312 31.152344 C 37.832031 31.121094 37.859375 31.113281 37.898438 31.128906 C 37.917969 31.132812 37.925781 31.140625 37.917969 31.152344 C 37.898438 31.191406 37.875 31.238281 37.847656 31.285156 C 37.820312 31.335938 37.765625 31.398438 37.683594 31.472656 C 37.601562 31.546875 37.519531 31.585938 37.433594 31.585938 C 37.058594 31.585938 36.875 31.277344 36.875 30.664062 C 36.875 30.148438 36.976562 29.59375 37.179688 29.003906 C 37.136719 29.011719 37.082031 29.015625 37.019531 29.015625 Z M 38.230469 32.324219 C 38.511719 32.324219 38.734375 32.199219 38.894531 31.949219 C 39.03125 31.726562 39.136719 31.449219 39.214844 31.117188 C 38.644531 31.128906 38.207031 31.335938 37.90625 31.730469 C 37.886719 31.757812 37.855469 31.761719 37.816406 31.742188 C 37.792969 31.730469 37.785156 31.71875 37.796875 31.699219 C 37.929688 31.507812 38.121094 31.34375 38.359375 31.210938 C 38.601562 31.074219 38.894531 31 39.242188 30.988281 C 39.277344 30.839844 39.308594 30.667969 39.339844 30.46875 C 39.371094 30.273438 39.40625 30.078125 39.449219 29.894531 L 39.40625 29.894531 C 39 30.578125 38.6875 30.917969 38.472656 30.917969 C 38.234375 30.917969 38.117188 30.746094 38.117188 30.398438 C 38.117188 30.050781 38.195312 29.703125 38.351562 29.351562 C 38.507812 29.003906 38.652344 28.8125 38.78125 28.789062 L 38.808594 28.78125 C 38.863281 28.78125 38.886719 28.816406 38.886719 28.878906 C 38.855469 28.960938 38.808594 29.066406 38.757812 29.195312 C 38.703125 29.324219 38.632812 29.535156 38.542969 29.828125 C 38.457031 30.121094 38.414062 30.351562 38.414062 30.515625 C 38.414062 30.679688 38.449219 30.761719 38.527344 30.761719 C 38.613281 30.761719 38.753906 30.621094 38.949219 30.332031 C 39.234375 29.910156 39.484375 29.484375 39.695312 29.054688 C 39.785156 28.875 39.882812 28.78125 39.984375 28.78125 C 40.050781 28.78125 40.085938 28.816406 40.085938 28.886719 C 40.023438 28.988281 39.953125 29.183594 39.867188 29.464844 C 39.78125 29.75 39.714844 30.039062 39.660156 30.324219 C 39.605469 30.613281 39.5625 30.839844 39.523438 31.003906 C 39.761719 31.042969 39.902344 31.140625 39.9375 31.296875 C 39.945312 31.324219 39.949219 31.359375 39.949219 31.40625 C 39.949219 31.449219 39.929688 31.492188 39.890625 31.523438 C 39.855469 31.558594 39.820312 31.574219 39.792969 31.574219 C 39.800781 31.554688 39.800781 31.519531 39.796875 31.464844 C 39.792969 31.414062 39.785156 31.371094 39.765625 31.335938 C 39.75 31.300781 39.71875 31.261719 39.671875 31.226562 C 39.625 31.1875 39.5625 31.15625 39.488281 31.140625 C 39.246094 32 38.824219 32.425781 38.230469 32.425781 C 37.972656 32.425781 37.800781 32.34375 37.714844 32.171875 C 37.714844 32.160156 37.710938 32.152344 37.710938 32.148438 C 37.710938 32.128906 37.726562 32.121094 37.761719 32.113281 C 37.792969 32.109375 37.816406 32.121094 37.832031 32.144531 C 37.890625 32.265625 38.023438 32.324219 38.230469 32.324219 Z M 41.78125 31.117188 C 41.78125 31.335938 41.902344 31.46875 42.148438 31.511719 C 42.195312 31.523438 42.246094 31.527344 42.308594 31.527344 C 42.699219 31.527344 43.011719 31.40625 43.238281 31.167969 C 43.46875 30.929688 43.582031 30.632812 43.582031 30.269531 C 43.582031 30.128906 43.554688 29.996094 43.5 29.878906 C 43.445312 29.757812 43.378906 29.660156 43.296875 29.578125 C 43.214844 29.5 43.125 29.421875 43.03125 29.34375 C 42.933594 29.261719 42.84375 29.191406 42.761719 29.125 C 42.683594 29.058594 42.613281 28.980469 42.558594 28.890625 C 42.503906 28.796875 42.476562 28.699219 42.476562 28.597656 C 42.476562 28.324219 42.605469 28.074219 42.863281 27.84375 C 43.125 27.613281 43.402344 27.5 43.699219 27.5 C 43.761719 27.5 43.804688 27.519531 43.832031 27.5625 C 43.859375 27.605469 43.875 27.644531 43.875 27.6875 L 43.871094 27.746094 C 43.847656 27.730469 43.792969 27.726562 43.707031 27.726562 C 43.503906 27.726562 43.308594 27.816406 43.121094 27.992188 C 42.933594 28.171875 42.839844 28.375 42.839844 28.609375 C 42.839844 28.703125 42.867188 28.796875 42.921875 28.886719 C 42.976562 28.976562 43.042969 29.058594 43.125 29.125 C 43.207031 29.191406 43.296875 29.269531 43.390625 29.351562 C 43.484375 29.4375 43.570312 29.519531 43.652344 29.601562 C 43.734375 29.683594 43.804688 29.78125 43.859375 29.898438 C 43.914062 30.015625 43.941406 30.140625 43.941406 30.269531 C 43.941406 30.628906 43.785156 30.945312 43.46875 31.226562 C 43.15625 31.503906 42.769531 31.640625 42.308594 31.640625 C 41.917969 31.640625 41.671875 31.523438 41.566406 31.285156 C 41.484375 31.089844 41.515625 30.875 41.660156 30.636719 C 41.804688 30.402344 42.015625 30.242188 42.289062 30.160156 C 42.386719 30.128906 42.476562 30.113281 42.554688 30.113281 C 42.636719 30.113281 42.6875 30.128906 42.71875 30.152344 C 42.75 30.175781 42.769531 30.21875 42.777344 30.269531 C 42.484375 30.269531 42.230469 30.382812 42.019531 30.609375 C 41.859375 30.777344 41.78125 30.945312 41.78125 31.117188 Z M 43.964844 28.664062 C 43.964844 28.679688 43.949219 28.683594 43.917969 28.683594 C 43.890625 28.683594 43.863281 28.679688 43.835938 28.667969 C 43.8125 28.65625 43.800781 28.640625 43.800781 28.617188 C 43.800781 28.316406 43.835938 28.074219 43.90625 27.890625 C 43.980469 27.707031 44.074219 27.617188 44.195312 27.617188 C 44.226562 27.617188 44.253906 27.625 44.273438 27.648438 C 44.296875 27.667969 44.308594 27.695312 44.308594 27.726562 C 44.167969 27.859375 44.066406 28.058594 44 28.324219 C 43.976562 28.433594 43.964844 28.542969 43.964844 28.664062 Z M 45.835938 29.554688 C 45.941406 29.398438 45.992188 29.25 45.992188 29.113281 C 45.992188 28.976562 45.945312 28.90625 45.855469 28.90625 C 45.746094 28.90625 45.621094 29 45.480469 29.179688 C 45.34375 29.363281 45.21875 29.570312 45.109375 29.800781 C 45 30.03125 44.910156 30.246094 44.835938 30.441406 C 44.757812 30.636719 44.722656 30.757812 44.722656 30.796875 C 44.71875 30.835938 44.695312 30.851562 44.65625 30.851562 C 44.5625 30.851562 44.515625 30.734375 44.515625 30.496094 C 44.515625 30.027344 44.5625 29.554688 44.664062 29.078125 C 44.765625 28.601562 44.882812 28.222656 45.023438 27.9375 C 45.160156 27.652344 45.289062 27.507812 45.410156 27.507812 C 45.457031 27.507812 45.484375 27.53125 45.484375 27.578125 C 45.316406 27.925781 45.171875 28.347656 45.050781 28.84375 C 44.949219 29.230469 44.867188 29.644531 44.796875 30.082031 L 44.835938 30.082031 C 45.191406 29.214844 45.550781 28.78125 45.90625 28.78125 C 46.128906 28.78125 46.242188 28.902344 46.242188 29.140625 C 46.242188 29.296875 46.179688 29.460938 46.0625 29.632812 C 45.941406 29.800781 45.785156 29.917969 45.601562 29.972656 C 45.640625 30.003906 45.714844 30.207031 45.832031 30.582031 C 45.875 30.714844 45.929688 30.835938 46 30.945312 C 46.074219 31.054688 46.152344 31.109375 46.234375 31.109375 C 46.316406 31.109375 46.378906 31.082031 46.421875 31.023438 C 46.441406 31.023438 46.449219 31.03125 46.449219 31.046875 C 46.449219 31.0625 46.441406 31.085938 46.425781 31.113281 C 46.355469 31.203125 46.273438 31.25 46.171875 31.261719 C 46.042969 31.261719 45.921875 31.199219 45.808594 31.074219 C 45.695312 30.949219 45.609375 30.8125 45.546875 30.664062 C 45.480469 30.515625 45.421875 30.371094 45.367188 30.222656 C 45.3125 30.078125 45.28125 29.996094 45.265625 29.976562 C 45.246094 29.960938 45.230469 29.945312 45.226562 29.925781 C 45.472656 29.925781 45.675781 29.800781 45.835938 29.554688 Z M 46.65625 30.558594 C 46.65625 30.121094 46.703125 29.730469 46.800781 29.386719 C 46.894531 29.042969 47.015625 28.871094 47.164062 28.871094 C 47.238281 28.871094 47.273438 28.910156 47.273438 28.984375 C 47.242188 29.058594 47.203125 29.160156 47.15625 29.289062 C 47.109375 29.417969 47.046875 29.644531 46.96875 29.980469 C 46.890625 30.3125 46.855469 30.609375 46.855469 30.871094 C 46.855469 30.910156 46.832031 30.933594 46.785156 30.933594 C 46.699219 30.933594 46.65625 30.808594 46.65625 30.558594 Z M 47.34375 28.378906 L 47.289062 28.453125 C 47.222656 28.453125 47.1875 28.394531 47.1875 28.277344 C 47.1875 28.207031 47.207031 28.132812 47.25 28.050781 C 47.289062 27.972656 47.347656 27.933594 47.421875 27.933594 C 47.488281 27.933594 47.519531 27.96875 47.519531 28.039062 C 47.519531 28.105469 47.460938 28.21875 47.34375 28.378906 Z M 47.878906 30.21875 L 47.921875 30.21875 C 48.328125 29.273438 48.722656 28.800781 49.105469 28.800781 C 49.265625 28.800781 49.34375 28.875 49.34375 29.019531 C 49.324219 29.085938 49.292969 29.175781 49.261719 29.285156 C 49.226562 29.398438 49.179688 29.597656 49.121094 29.882812 C 49.0625 30.171875 49.035156 30.421875 49.035156 30.636719 C 49.035156 30.953125 49.082031 31.109375 49.179688 31.109375 C 49.21875 31.109375 49.253906 31.09375 49.289062 31.066406 C 49.324219 31.039062 49.347656 31.023438 49.359375 31.023438 C 49.402344 31.023438 49.402344 31.058594 49.359375 31.121094 C 49.34375 31.144531 49.3125 31.171875 49.273438 31.207031 C 49.230469 31.242188 49.1875 31.261719 49.140625 31.261719 C 49.023438 31.261719 48.929688 31.179688 48.863281 31.019531 C 48.792969 30.855469 48.761719 30.648438 48.761719 30.390625 C 48.761719 29.980469 48.828125 29.535156 48.964844 29.042969 C 48.976562 29.007812 48.964844 28.988281 48.925781 28.988281 C 48.902344 28.988281 48.871094 29 48.839844 29.023438 C 48.691406 29.148438 48.53125 29.351562 48.367188 29.640625 C 48.199219 29.925781 48.070312 30.183594 47.976562 30.410156 C 47.878906 30.636719 47.832031 30.769531 47.832031 30.804688 C 47.832031 30.84375 47.8125 30.859375 47.765625 30.859375 C 47.667969 30.859375 47.617188 30.742188 47.617188 30.511719 C 47.617188 30.070312 47.664062 29.667969 47.761719 29.3125 C 47.855469 28.953125 47.972656 28.773438 48.105469 28.773438 C 48.164062 28.773438 48.191406 28.808594 48.191406 28.871094 C 48.046875 29.3125 47.941406 29.761719 47.878906 30.21875 Z M 52.394531 28.652344 C 52.394531 28.667969 52.382812 28.671875 52.355469 28.675781 C 52.328125 28.679688 52.300781 28.675781 52.277344 28.664062 C 52.25 28.652344 52.234375 28.636719 52.234375 28.613281 C 52.234375 28.3125 52.273438 28.070312 52.34375 27.882812 C 52.417969 27.699219 52.511719 27.605469 52.625 27.605469 C 52.65625 27.605469 52.683594 27.617188 52.707031 27.636719 C 52.730469 27.660156 52.738281 27.6875 52.738281 27.722656 C 52.59375 27.859375 52.492188 28.054688 52.433594 28.316406 C 52.410156 28.421875 52.394531 28.535156 52.394531 28.652344 Z M 52.113281 27.714844 C 51.679688 27.714844 51.292969 27.953125 50.949219 28.429688 C 50.65625 28.839844 50.460938 29.320312 50.371094 29.867188 C 50.339844 30.046875 50.324219 30.210938 50.324219 30.363281 C 50.324219 30.652344 50.378906 30.886719 50.492188 31.0625 C 50.605469 31.238281 50.765625 31.328125 50.96875 31.328125 C 51.246094 31.328125 51.480469 31.175781 51.675781 30.878906 C 51.808594 30.675781 51.875 30.5 51.875 30.34375 C 51.875 30.277344 51.855469 30.242188 51.816406 30.242188 C 51.835938 30.175781 51.882812 30.140625 51.957031 30.140625 C 52.046875 30.140625 52.089844 30.199219 52.089844 30.320312 C 52.089844 30.539062 51.984375 30.777344 51.777344 31.03125 C 51.53125 31.328125 51.242188 31.476562 50.90625 31.476562 C 50.492188 31.476562 50.207031 31.28125 50.058594 30.886719 C 49.988281 30.703125 49.953125 30.496094 49.953125 30.261719 C 49.953125 30.03125 49.992188 29.773438 50.074219 29.484375 C 50.230469 28.917969 50.496094 28.445312 50.867188 28.066406 C 51.238281 27.691406 51.652344 27.503906 52.105469 27.5 C 52.167969 27.5 52.210938 27.519531 52.242188 27.558594 C 52.269531 27.597656 52.28125 27.632812 52.277344 27.667969 L 52.277344 27.726562 C 52.253906 27.71875 52.199219 27.714844 52.113281 27.714844 Z M 52.914062 30.9375 C 52.65625 30.9375 52.527344 30.746094 52.527344 30.363281 C 52.527344 30.136719 52.585938 29.886719 52.707031 29.613281 C 52.871094 29.230469 53.089844 28.972656 53.359375 28.832031 C 53.476562 28.773438 53.585938 28.742188 53.683594 28.742188 C 53.785156 28.742188 53.863281 28.765625 53.921875 28.804688 C 53.980469 28.847656 54.019531 28.886719 54.035156 28.929688 L 54.0625 28.988281 C 54.050781 29.039062 54.027344 29.0625 53.980469 29.0625 C 53.929688 29.0625 53.902344 29.050781 53.894531 29.03125 C 53.886719 29.007812 53.878906 28.988281 53.867188 28.972656 C 53.859375 28.957031 53.835938 28.933594 53.800781 28.90625 C 53.769531 28.875 53.730469 28.863281 53.683594 28.863281 C 53.480469 28.863281 53.296875 29.035156 53.128906 29.382812 C 52.941406 29.78125 52.847656 30.15625 52.847656 30.511719 C 52.847656 30.6875 52.882812 30.777344 52.960938 30.777344 C 53.019531 30.777344 53.101562 30.714844 53.210938 30.585938 C 53.320312 30.460938 53.433594 30.304688 53.554688 30.113281 C 53.761719 29.789062 53.929688 29.507812 54.058594 29.265625 C 54.164062 29.054688 54.273438 28.945312 54.386719 28.945312 C 54.445312 28.945312 54.476562 28.980469 54.476562 29.050781 C 54.449219 29.105469 54.410156 29.183594 54.367188 29.289062 C 54.324219 29.394531 54.265625 29.597656 54.195312 29.90625 C 54.121094 30.214844 54.085938 30.519531 54.085938 30.824219 C 54.085938 31.128906 54.132812 31.28125 54.230469 31.28125 C 54.269531 31.28125 54.304688 31.265625 54.335938 31.234375 C 54.367188 31.203125 54.394531 31.15625 54.417969 31.097656 C 54.429688 31.0625 54.449219 31.046875 54.484375 31.046875 C 54.496094 31.046875 54.507812 31.050781 54.511719 31.058594 C 54.519531 31.070312 54.519531 31.085938 54.511719 31.105469 C 54.507812 31.125 54.496094 31.15625 54.480469 31.191406 C 54.464844 31.226562 54.429688 31.277344 54.378906 31.339844 C 54.328125 31.402344 54.273438 31.433594 54.21875 31.433594 C 54.085938 31.433594 53.984375 31.351562 53.914062 31.1875 C 53.84375 31.027344 53.808594 30.835938 53.808594 30.613281 C 53.808594 30.390625 53.824219 30.175781 53.859375 29.972656 L 53.8125 29.972656 C 53.414062 30.613281 53.113281 30.9375 52.914062 30.9375 Z M 56.265625 29.660156 C 56.144531 29.660156 56.085938 29.539062 56.085938 29.292969 C 56.085938 29.15625 56.113281 29.023438 56.171875 28.902344 C 55.957031 29.078125 55.71875 29.402344 55.457031 29.878906 C 55.191406 30.351562 55.058594 30.664062 55.058594 30.808594 C 55.058594 30.84375 55.035156 30.859375 54.984375 30.859375 C 54.894531 30.859375 54.847656 30.742188 54.847656 30.511719 C 54.847656 30.070312 54.894531 29.667969 54.988281 29.3125 C 55.082031 28.953125 55.199219 28.773438 55.332031 28.773438 C 55.390625 28.773438 55.421875 28.808594 55.421875 28.871094 C 55.277344 29.304688 55.175781 29.746094 55.113281 30.199219 L 55.144531 30.199219 C 55.398438 29.644531 55.679688 29.214844 55.988281 28.902344 C 56.164062 28.726562 56.324219 28.636719 56.46875 28.636719 C 56.5 28.636719 56.523438 28.644531 56.546875 28.664062 C 56.566406 28.679688 56.574219 28.703125 56.574219 28.730469 C 56.554688 28.75 56.527344 28.78125 56.496094 28.824219 C 56.464844 28.863281 56.421875 28.960938 56.367188 29.117188 C 56.316406 29.273438 56.289062 29.441406 56.289062 29.625 C 56.289062 29.648438 56.28125 29.660156 56.265625 29.660156 Z M 57.800781 28.78125 C 58.039062 28.78125 58.15625 28.914062 58.15625 29.179688 C 58.15625 29.328125 58.105469 29.488281 57.996094 29.652344 C 57.816406 29.929688 57.574219 30.066406 57.273438 30.066406 C 57.226562 30.066406 57.1875 30.058594 57.15625 30.042969 C 57.125 30.027344 57.101562 30.007812 57.085938 29.976562 C 57.308594 29.976562 57.511719 29.855469 57.695312 29.613281 C 57.847656 29.417969 57.921875 29.238281 57.921875 29.074219 C 57.921875 28.953125 57.871094 28.894531 57.765625 28.894531 C 57.558594 28.894531 57.367188 29.046875 57.1875 29.351562 C 56.996094 29.683594 56.902344 30.023438 56.902344 30.371094 C 56.902344 30.667969 56.988281 30.847656 57.167969 30.90625 C 57.203125 30.917969 57.246094 30.921875 57.300781 30.921875 C 57.355469 30.921875 57.410156 30.910156 57.46875 30.886719 C 57.53125 30.859375 57.582031 30.828125 57.621094 30.792969 C 57.703125 30.722656 57.769531 30.644531 57.824219 30.558594 C 57.835938 30.535156 57.859375 30.523438 57.894531 30.523438 C 57.949219 30.523438 57.976562 30.53125 57.972656 30.550781 C 57.964844 30.582031 57.929688 30.636719 57.867188 30.714844 C 57.808594 30.792969 57.75 30.851562 57.699219 30.898438 C 57.648438 30.945312 57.578125 30.984375 57.496094 31.023438 C 57.414062 31.058594 57.328125 31.078125 57.246094 31.078125 C 56.910156 31.078125 56.699219 30.929688 56.609375 30.632812 C 56.582031 30.535156 56.566406 30.429688 56.566406 30.324219 C 56.566406 30.125 56.613281 29.910156 56.710938 29.675781 C 56.867188 29.320312 57.078125 29.0625 57.347656 28.90625 C 57.496094 28.824219 57.644531 28.78125 57.800781 28.78125 Z M 57.800781 28.78125 "/>
</g>
<g clip-path="url(#clip3)" clip-rule="nonzero">
<path style=" stroke:none;fill-rule:nonzero;fill:rgb(69.411765%,61.568627%,81.568627%);fill-opacity:1;" d="M 14.882812 36.273438 C 14.910156 36.273438 14.933594 36.285156 14.953125 36.3125 C 14.96875 36.335938 14.976562 36.371094 14.976562 36.417969 C 14.976562 36.503906 14.957031 36.570312 14.914062 36.621094 C 14.800781 36.75 14.6875 36.847656 14.574219 36.914062 C 14.460938 36.984375 14.328125 37.019531 14.171875 37.019531 C 14.023438 37.019531 13.894531 36.980469 13.789062 36.902344 C 13.683594 36.828125 13.582031 36.695312 13.488281 36.511719 C 13.414062 36.363281 13.351562 36.253906 13.308594 36.179688 C 13.265625 36.109375 13.222656 36.058594 13.179688 36.03125 C 13.136719 36 13.082031 35.980469 13.019531 35.972656 C 13.011719 36.019531 12.984375 36.164062 12.941406 36.40625 C 12.921875 36.515625 12.910156 36.582031 12.90625 36.605469 C 12.882812 36.738281 12.835938 36.839844 12.765625 36.910156 C 12.699219 36.980469 12.59375 37.019531 12.449219 37.019531 C 12.296875 37.019531 12.160156 36.972656 12.039062 36.886719 C 11.921875 36.800781 11.828125 36.683594 11.765625 36.527344 C 11.699219 36.375 11.667969 36.199219 11.667969 36.003906 C 11.667969 35.636719 11.734375 35.320312 11.871094 35.054688 C 12.003906 34.789062 12.195312 34.585938 12.4375 34.441406 C 12.683594 34.304688 12.964844 34.234375 13.285156 34.234375 C 13.507812 34.234375 13.691406 34.265625 13.84375 34.328125 C 13.992188 34.390625 14.105469 34.476562 14.179688 34.589844 C 14.25 34.699219 14.289062 34.824219 14.289062 34.964844 C 14.289062 35.085938 14.257812 35.207031 14.195312 35.324219 C 14.132812 35.441406 14.042969 35.542969 13.917969 35.632812 C 13.796875 35.722656 13.648438 35.789062 13.472656 35.832031 C 13.582031 35.859375 13.667969 35.90625 13.730469 35.96875 C 13.789062 36.035156 13.847656 36.125 13.910156 36.25 C 13.972656 36.378906 14.039062 36.476562 14.101562 36.535156 C 14.164062 36.597656 14.238281 36.628906 14.320312 36.628906 C 14.394531 36.628906 14.464844 36.605469 14.535156 36.558594 C 14.601562 36.511719 14.683594 36.429688 14.789062 36.316406 C 14.816406 36.285156 14.847656 36.273438 14.882812 36.273438 Z M 12.449219 36.460938 L 12.542969 35.96875 C 12.460938 35.96875 12.410156 35.953125 12.378906 35.917969 C 12.351562 35.882812 12.335938 35.84375 12.335938 35.800781 C 12.335938 35.746094 12.355469 35.707031 12.390625 35.675781 C 12.425781 35.644531 12.46875 35.628906 12.511719 35.628906 L 12.601562 35.628906 C 12.636719 35.417969 12.671875 35.230469 12.703125 35.078125 C 12.734375 34.933594 12.832031 34.863281 12.996094 34.863281 C 13.128906 34.863281 13.195312 34.917969 13.195312 35.03125 C 13.195312 35.054688 13.191406 35.074219 13.191406 35.085938 L 13.085938 35.628906 C 13.210938 35.625 13.324219 35.59375 13.429688 35.546875 C 13.53125 35.496094 13.613281 35.425781 13.675781 35.335938 C 13.734375 35.246094 13.765625 35.144531 13.765625 35.03125 C 13.765625 34.894531 13.71875 34.785156 13.617188 34.707031 C 13.519531 34.628906 13.371094 34.589844 13.179688 34.589844 C 12.953125 34.589844 12.753906 34.640625 12.585938 34.746094 C 12.414062 34.855469 12.28125 35.011719 12.1875 35.21875 C 12.09375 35.425781 12.046875 35.679688 12.046875 35.980469 C 12.046875 36.121094 12.058594 36.238281 12.089844 36.339844 C 12.121094 36.441406 12.15625 36.515625 12.203125 36.566406 C 12.246094 36.617188 12.285156 36.640625 12.328125 36.640625 C 12.355469 36.640625 12.382812 36.628906 12.402344 36.597656 C 12.421875 36.570312 12.4375 36.523438 12.449219 36.460938 Z M 15.140625 37.019531 C 14.996094 37.019531 14.882812 36.96875 14.796875 36.871094 C 14.710938 36.773438 14.667969 36.644531 14.667969 36.484375 C 14.667969 36.308594 14.710938 36.144531 14.796875 35.988281 C 14.882812 35.832031 14.996094 35.707031 15.136719 35.613281 C 15.28125 35.515625 15.429688 35.46875 15.589844 35.46875 C 15.640625 35.46875 15.675781 35.480469 15.691406 35.496094 C 15.710938 35.515625 15.726562 35.550781 15.734375 35.597656 C 15.785156 35.589844 15.835938 35.585938 15.890625 35.585938 C 16.003906 35.585938 16.058594 35.621094 16.058594 35.699219 C 16.058594 35.746094 16.042969 35.855469 16.007812 36.027344 C 15.953125 36.277344 15.925781 36.453125 15.925781 36.550781 C 15.925781 36.582031 15.9375 36.609375 15.953125 36.628906 C 15.96875 36.648438 15.992188 36.65625 16.019531 36.65625 C 16.066406 36.65625 16.117188 36.628906 16.179688 36.578125 C 16.242188 36.523438 16.328125 36.4375 16.433594 36.316406 C 16.460938 36.285156 16.492188 36.273438 16.527344 36.273438 C 16.558594 36.273438 16.582031 36.285156 16.597656 36.3125 C 16.617188 36.335938 16.625 36.371094 16.625 36.417969 C 16.625 36.507812 16.601562 36.574219 16.558594 36.621094 C 16.464844 36.734375 16.363281 36.828125 16.257812 36.902344 C 16.152344 36.980469 16.046875 37.019531 15.949219 37.019531 C 15.871094 37.019531 15.800781 36.992188 15.738281 36.945312 C 15.675781 36.894531 15.625 36.828125 15.59375 36.742188 C 15.472656 36.925781 15.320312 37.019531 15.140625 37.019531 Z M 15.265625 36.6875 C 15.316406 36.6875 15.363281 36.660156 15.410156 36.601562 C 15.457031 36.546875 15.488281 36.46875 15.511719 36.375 L 15.640625 35.773438 C 15.542969 35.777344 15.453125 35.808594 15.371094 35.875 C 15.289062 35.945312 15.222656 36.03125 15.175781 36.140625 C 15.125 36.25 15.101562 36.367188 15.101562 36.488281 C 15.101562 36.554688 15.117188 36.605469 15.144531 36.636719 C 15.171875 36.671875 15.214844 36.6875 15.265625 36.6875 Z M 18.28125 36.273438 C 18.3125 36.273438 18.335938 36.285156 18.351562 36.3125 C 18.371094 36.335938 18.378906 36.371094 18.378906 36.417969 C 18.378906 36.507812 18.355469 36.574219 18.3125 36.621094 C 18.214844 36.738281 18.105469 36.832031 17.992188 36.90625 C 17.878906 36.980469 17.746094 37.019531 17.601562 37.019531 C 17.476562 37.019531 17.378906 36.976562 17.300781 36.894531 C 17.171875 36.972656 17.03125 37.015625 16.890625 37.019531 C 16.859375 37.4375 16.792969 37.789062 16.683594 38.074219 C 16.578125 38.355469 16.421875 38.496094 16.214844 38.496094 C 16.089844 38.496094 16 38.453125 15.9375 38.371094 C 15.878906 38.285156 15.847656 38.167969 15.847656 38.015625 C 15.847656 37.800781 15.898438 37.554688 16.003906 37.269531 C 16.109375 36.984375 16.269531 36.667969 16.488281 36.328125 C 16.488281 36.007812 16.484375 35.789062 16.480469 35.664062 C 16.476562 35.597656 16.503906 35.550781 16.558594 35.511719 C 16.613281 35.476562 16.683594 35.457031 16.769531 35.457031 C 16.816406 35.457031 16.851562 35.464844 16.875 35.484375 C 16.894531 35.503906 16.90625 35.539062 16.910156 35.59375 C 16.910156 35.648438 16.910156 35.6875 16.914062 35.714844 C 16.988281 35.628906 17.0625 35.566406 17.132812 35.527344 C 17.203125 35.488281 17.28125 35.46875 17.363281 35.46875 C 17.492188 35.46875 17.597656 35.519531 17.679688 35.617188 C 17.761719 35.714844 17.800781 35.84375 17.800781 36.003906 C 17.800781 36.117188 17.78125 36.230469 17.742188 36.339844 C 17.703125 36.449219 17.648438 36.546875 17.582031 36.636719 C 17.628906 36.652344 17.667969 36.65625 17.703125 36.65625 C 17.777344 36.65625 17.851562 36.632812 17.921875 36.578125 C 17.988281 36.527344 18.078125 36.441406 18.1875 36.316406 C 18.214844 36.285156 18.246094 36.273438 18.28125 36.273438 Z M 16.90625 36.703125 C 16.988281 36.6875 17.066406 36.644531 17.136719 36.574219 C 17.207031 36.503906 17.265625 36.421875 17.304688 36.320312 C 17.347656 36.21875 17.367188 36.109375 17.367188 36 C 17.367188 35.933594 17.355469 35.886719 17.328125 35.851562 C 17.300781 35.816406 17.261719 35.800781 17.214844 35.800781 C 17.132812 35.800781 17.03125 35.882812 16.914062 36.050781 C 16.910156 36.144531 16.910156 36.285156 16.910156 36.472656 C 16.910156 36.570312 16.910156 36.648438 16.90625 36.703125 Z M 16.242188 38.175781 C 16.304688 38.175781 16.359375 38.046875 16.398438 37.792969 C 16.441406 37.535156 16.46875 37.214844 16.480469 36.835938 C 16.378906 37.050781 16.300781 37.261719 16.242188 37.460938 C 16.1875 37.65625 16.15625 37.824219 16.15625 37.960938 C 16.15625 38.03125 16.164062 38.082031 16.183594 38.121094 C 16.199219 38.15625 16.21875 38.175781 16.242188 38.175781 Z M 20.109375 36.273438 C 20.136719 36.273438 20.164062 36.285156 20.179688 36.3125 C 20.195312 36.335938 20.207031 36.371094 20.207031 36.417969 C 20.207031 36.507812 20.183594 36.574219 20.140625 36.621094 C 20.035156 36.738281 19.925781 36.832031 19.8125 36.90625 C 19.699219 36.980469 19.570312 37.019531 19.429688 37.019531 C 19.308594 37.019531 19.222656 36.984375 19.160156 36.921875 C 19.101562 36.855469 19.070312 36.761719 19.070312 36.640625 C 19.070312 36.582031 19.085938 36.472656 19.121094 36.3125 C 19.148438 36.175781 19.164062 36.082031 19.164062 36.03125 C 19.164062 35.996094 19.152344 35.976562 19.125 35.976562 C 19.097656 35.976562 19.054688 36.011719 18.996094 36.085938 C 18.941406 36.160156 18.886719 36.257812 18.832031 36.375 C 18.777344 36.496094 18.730469 36.621094 18.695312 36.757812 C 18.652344 36.929688 18.542969 37.019531 18.371094 37.019531 C 18.300781 37.019531 18.253906 36.992188 18.230469 36.945312 C 18.210938 36.898438 18.199219 36.816406 18.199219 36.695312 C 18.199219 36.625 18.199219 36.566406 18.203125 36.527344 L 18.207031 36.265625 C 18.207031 35.929688 18.242188 35.578125 18.316406 35.214844 C 18.386719 34.851562 18.496094 34.542969 18.636719 34.296875 C 18.78125 34.046875 18.953125 33.925781 19.152344 33.925781 C 19.257812 33.925781 19.34375 33.96875 19.410156 34.054688 C 19.476562 34.140625 19.507812 34.253906 19.507812 34.390625 C 19.507812 34.609375 19.441406 34.839844 19.304688 35.074219 C 19.167969 35.3125 18.945312 35.589844 18.636719 35.90625 C 18.628906 36.019531 18.625 36.136719 18.625 36.253906 C 18.703125 36.070312 18.789062 35.917969 18.882812 35.800781 C 18.976562 35.683594 19.066406 35.601562 19.160156 35.550781 C 19.25 35.5 19.335938 35.476562 19.410156 35.476562 C 19.5625 35.476562 19.636719 35.546875 19.636719 35.6875 C 19.636719 35.773438 19.609375 35.929688 19.558594 36.152344 C 19.515625 36.339844 19.492188 36.464844 19.492188 36.527344 C 19.492188 36.613281 19.527344 36.65625 19.59375 36.65625 C 19.640625 36.65625 19.695312 36.628906 19.757812 36.578125 C 19.824219 36.523438 19.910156 36.4375 20.015625 36.316406 C 20.042969 36.285156 20.074219 36.273438 20.109375 36.273438 Z M 19.078125 34.25 C 19.035156 34.25 18.988281 34.304688 18.9375 34.417969 C 18.886719 34.53125 18.839844 34.679688 18.789062 34.871094 C 18.742188 35.0625 18.703125 35.269531 18.675781 35.496094 C 18.820312 35.335938 18.9375 35.164062 19.03125 34.976562 C 19.125 34.789062 19.171875 34.617188 19.171875 34.464844 C 19.171875 34.394531 19.164062 34.339844 19.148438 34.304688 C 19.128906 34.265625 19.109375 34.25 19.078125 34.25 Z M 21.558594 36.273438 C 21.585938 36.273438 21.609375 36.285156 21.628906 36.3125 C 21.644531 36.335938 21.652344 36.371094 21.652344 36.417969 C 21.652344 36.507812 21.632812 36.574219 21.589844 36.621094 C 21.503906 36.71875 21.382812 36.808594 21.226562 36.894531 C 21.070312 36.976562 20.902344 37.019531 20.722656 37.019531 C 20.480469 37.019531 20.292969 36.957031 20.15625 36.832031 C 20.023438 36.707031 19.957031 36.535156 19.957031 36.320312 C 19.957031 36.171875 19.988281 36.03125 20.058594 35.898438 C 20.125 35.769531 20.21875 35.667969 20.335938 35.589844 C 20.457031 35.515625 20.589844 35.476562 20.742188 35.476562 C 20.875 35.476562 20.984375 35.515625 21.0625 35.589844 C 21.144531 35.664062 21.183594 35.765625 21.183594 35.894531 C 21.183594 36.046875 21.128906 36.175781 21.015625 36.28125 C 20.898438 36.390625 20.707031 36.476562 20.433594 36.539062 C 20.488281 36.640625 20.601562 36.691406 20.761719 36.691406 C 20.867188 36.691406 20.984375 36.65625 21.117188 36.585938 C 21.25 36.519531 21.367188 36.429688 21.464844 36.316406 C 21.492188 36.285156 21.523438 36.273438 21.558594 36.273438 Z M 20.683594 35.796875 C 20.597656 35.796875 20.523438 35.84375 20.464844 35.9375 C 20.40625 36.03125 20.375 36.144531 20.375 36.277344 L 20.375 36.285156 C 20.511719 36.253906 20.621094 36.207031 20.699219 36.148438 C 20.777344 36.085938 20.816406 36.015625 20.816406 35.933594 C 20.816406 35.894531 20.804688 35.859375 20.78125 35.835938 C 20.757812 35.808594 20.722656 35.796875 20.683594 35.796875 Z M 23.003906 36.273438 C 23.035156 36.273438 23.058594 36.285156 23.078125 36.3125 C 23.09375 36.335938 23.101562 36.371094 23.101562 36.417969 C 23.101562 36.507812 23.082031 36.574219 23.035156 36.621094 C 22.953125 36.71875 22.832031 36.808594 22.671875 36.894531 C 22.519531 36.976562 22.351562 37.019531 22.171875 37.019531 C 21.929688 37.019531 21.742188 36.957031 21.605469 36.832031 C 21.472656 36.707031 21.40625 36.535156 21.40625 36.320312 C 21.40625 36.171875 21.4375 36.03125 21.507812 35.898438 C 21.574219 35.769531 21.667969 35.667969 21.785156 35.589844 C 21.90625 35.515625 22.039062 35.476562 22.191406 35.476562 C 22.324219 35.476562 22.433594 35.515625 22.511719 35.589844 C 22.59375 35.664062 22.632812 35.765625 22.632812 35.894531 C 22.632812 36.046875 22.578125 36.175781 22.460938 36.28125 C 22.347656 36.390625 22.152344 36.476562 21.882812 36.539062 C 21.9375 36.640625 22.046875 36.691406 22.210938 36.691406 C 22.316406 36.691406 22.433594 36.65625 22.566406 36.585938 C 22.699219 36.519531 22.816406 36.429688 22.910156 36.316406 C 22.941406 36.285156 22.972656 36.273438 23.003906 36.273438 Z M 22.128906 35.796875 C 22.046875 35.796875 21.972656 35.84375 21.914062 35.9375 C 21.855469 36.03125 21.824219 36.144531 21.824219 36.277344 L 21.824219 36.285156 C 21.960938 36.253906 22.070312 36.207031 22.148438 36.148438 C 22.226562 36.085938 22.265625 36.015625 22.265625 35.933594 C 22.265625 35.894531 22.253906 35.859375 22.230469 35.835938 C 22.207031 35.808594 22.171875 35.796875 22.128906 35.796875 Z M 23.632812 37.019531 C 23.53125 37.019531 23.453125 36.992188 23.402344 36.9375 C 23.347656 36.886719 23.324219 36.816406 23.324219 36.734375 C 23.324219 36.636719 23.351562 36.554688 23.410156 36.496094 C 23.46875 36.4375 23.554688 36.410156 23.660156 36.410156 C 23.761719 36.410156 23.839844 36.433594 23.890625 36.480469 C 23.941406 36.527344 23.96875 36.59375 23.96875 36.6875 C 23.96875 36.789062 23.9375 36.867188 23.878906 36.925781 C 23.816406 36.988281 23.734375 37.019531 23.632812 37.019531 Z M 23.753906 36.085938 C 23.652344 36.085938 23.574219 36.058594 23.523438 36.007812 C 23.46875 35.953125 23.445312 35.886719 23.445312 35.800781 C 23.445312 35.703125 23.472656 35.625 23.53125 35.566406 C 23.589844 35.503906 23.675781 35.476562 23.78125 35.476562 C 23.882812 35.476562 23.960938 35.5 24.011719 35.546875 C 24.0625 35.59375 24.089844 35.664062 24.089844 35.753906 C 24.089844 35.855469 24.058594 35.933594 24 35.996094 C 23.941406 36.054688 23.855469 36.085938 23.753906 36.085938 Z M 28.300781 36.277344 C 28.332031 36.277344 28.355469 36.292969 28.375 36.320312 C 28.390625 36.347656 28.398438 36.378906 28.398438 36.421875 C 28.398438 36.472656 28.390625 36.511719 28.375 36.539062 C 28.359375 36.566406 28.332031 36.59375 28.300781 36.613281 C 28.164062 36.699219 27.945312 36.839844 27.648438 37.035156 C 27.554688 37.484375 27.4375 37.839844 27.296875 38.101562 C 27.152344 38.359375 26.972656 38.492188 26.75 38.492188 C 26.632812 38.492188 26.535156 38.457031 26.460938 38.386719 C 26.390625 38.320312 26.351562 38.230469 26.351562 38.117188 C 26.351562 38.015625 26.375 37.910156 26.425781 37.804688 C 26.472656 37.703125 26.5625 37.582031 26.695312 37.441406 C 26.832031 37.304688 27.019531 37.148438 27.261719 36.972656 L 27.273438 36.910156 C 27.089844 36.980469 26.910156 37.019531 26.734375 37.019531 C 26.472656 37.019531 26.246094 36.96875 26.050781 36.875 C 25.851562 36.78125 25.699219 36.644531 25.589844 36.472656 C 25.484375 36.296875 25.429688 36.09375 25.429688 35.863281 C 25.429688 35.539062 25.492188 35.253906 25.621094 35.007812 C 25.753906 34.757812 25.929688 34.566406 26.160156 34.429688 C 26.386719 34.292969 26.640625 34.226562 26.925781 34.226562 C 27.195312 34.226562 27.398438 34.285156 27.535156 34.402344 C 27.667969 34.523438 27.738281 34.679688 27.738281 34.878906 C 27.738281 35.007812 27.710938 35.109375 27.660156 35.1875 C 27.613281 35.265625 27.542969 35.304688 27.449219 35.304688 C 27.386719 35.304688 27.335938 35.289062 27.296875 35.261719 C 27.257812 35.230469 27.242188 35.191406 27.242188 35.140625 C 27.242188 35.121094 27.246094 35.082031 27.253906 35.03125 C 27.269531 34.96875 27.273438 34.921875 27.273438 34.886719 C 27.273438 34.796875 27.246094 34.722656 27.1875 34.675781 C 27.128906 34.625 27.027344 34.597656 26.890625 34.597656 C 26.722656 34.597656 26.5625 34.644531 26.417969 34.738281 C 26.273438 34.828125 26.160156 34.964844 26.070312 35.148438 C 25.984375 35.328125 25.9375 35.546875 25.9375 35.804688 C 25.9375 36.066406 26.015625 36.265625 26.164062 36.410156 C 26.316406 36.554688 26.535156 36.625 26.824219 36.625 C 26.984375 36.625 27.148438 36.589844 27.324219 36.523438 L 27.371094 36.125 L 27.019531 36.125 C 26.953125 36.125 26.902344 36.109375 26.867188 36.078125 C 26.835938 36.050781 26.816406 36.003906 26.816406 35.933594 C 26.816406 35.875 26.835938 35.824219 26.867188 35.789062 C 26.902344 35.753906 26.949219 35.738281 27.007812 35.738281 L 27.65625 35.738281 C 27.707031 35.738281 27.75 35.753906 27.785156 35.785156 C 27.816406 35.816406 27.832031 35.863281 27.824219 35.921875 C 27.816406 35.992188 27.792969 36.148438 27.753906 36.394531 L 27.714844 36.644531 C 27.902344 36.515625 28.070312 36.398438 28.222656 36.304688 C 28.253906 36.285156 28.28125 36.277344 28.300781 36.277344 Z M 26.789062 38.171875 C 26.847656 38.171875 26.914062 38.109375 26.988281 37.980469 C 27.058594 37.851562 27.125 37.644531 27.1875 37.359375 C 27.011719 37.5 26.886719 37.628906 26.808594 37.742188 C 26.730469 37.855469 26.691406 37.957031 26.691406 38.046875 C 26.691406 38.128906 26.722656 38.171875 26.789062 38.171875 Z M 29.585938 36.273438 C 29.617188 36.273438 29.640625 36.285156 29.660156 36.3125 C 29.675781 36.335938 29.683594 36.371094 29.683594 36.417969 C 29.683594 36.507812 29.664062 36.574219 29.617188 36.621094 C 29.519531 36.738281 29.410156 36.832031 29.292969 36.90625 C 29.175781 36.980469 29.046875 37.019531 28.898438 37.019531 C 28.691406 37.019531 28.542969 36.929688 28.445312 36.757812 C 28.34375 36.582031 28.296875 36.355469 28.296875 36.078125 C 28.296875 35.8125 28.332031 35.507812 28.40625 35.167969 C 28.480469 34.828125 28.585938 34.535156 28.730469 34.292969 C 28.871094 34.046875 29.039062 33.925781 29.238281 33.925781 C 29.347656 33.925781 29.4375 33.972656 29.5 34.070312 C 29.5625 34.167969 29.59375 34.308594 29.59375 34.488281 C 29.59375 34.746094 29.519531 35.046875 29.367188 35.390625 C 29.210938 35.734375 29.003906 36.074219 28.742188 36.410156 C 28.761719 36.5 28.785156 36.5625 28.824219 36.601562 C 28.859375 36.636719 28.910156 36.65625 28.96875 36.65625 C 29.066406 36.65625 29.148438 36.632812 29.21875 36.582031 C 29.292969 36.53125 29.382812 36.441406 29.492188 36.316406 C 29.523438 36.285156 29.554688 36.273438 29.585938 36.273438 Z M 29.160156 34.25 C 29.105469 34.25 29.046875 34.339844 28.980469 34.519531 C 28.914062 34.703125 28.855469 34.925781 28.804688 35.195312 C 28.753906 35.464844 28.722656 35.71875 28.71875 35.96875 C 28.882812 35.710938 29.015625 35.457031 29.113281 35.199219 C 29.210938 34.941406 29.257812 34.710938 29.257812 34.496094 C 29.257812 34.332031 29.226562 34.25 29.160156 34.25 Z M 31.257812 35.996094 C 31.289062 35.996094 31.3125 36.011719 31.328125 36.039062 C 31.34375 36.066406 31.351562 36.101562 31.351562 36.148438 C 31.351562 36.25 31.320312 36.3125 31.25 36.332031 C 31.113281 36.378906 30.960938 36.40625 30.792969 36.414062 C 30.75 36.59375 30.664062 36.742188 30.53125 36.851562 C 30.402344 36.960938 30.257812 37.019531 30.09375 37.019531 C 29.953125 37.019531 29.835938 36.984375 29.734375 36.921875 C 29.636719 36.859375 29.5625 36.777344 29.511719 36.671875 C 29.460938 36.566406 29.4375 36.453125 29.4375 36.332031 C 29.4375 36.164062 29.46875 36.015625 29.535156 35.886719 C 29.605469 35.757812 29.695312 35.65625 29.816406 35.582031 C 29.933594 35.507812 30.0625 35.472656 30.207031 35.472656 C 30.382812 35.472656 30.523438 35.53125 30.632812 35.644531 C 30.738281 35.757812 30.800781 35.902344 30.820312 36.070312 C 30.929688 36.0625 31.058594 36.039062 31.210938 36.003906 C 31.230469 36 31.246094 35.996094 31.257812 35.996094 Z M 30.121094 36.671875 C 30.195312 36.671875 30.257812 36.640625 30.3125 36.585938 C 30.367188 36.527344 30.402344 36.445312 30.421875 36.339844 C 30.351562 36.292969 30.296875 36.234375 30.257812 36.160156 C 30.21875 36.085938 30.199219 36.007812 30.199219 35.925781 C 30.199219 35.890625 30.203125 35.855469 30.210938 35.820312 L 30.191406 35.820312 C 30.101562 35.820312 30.023438 35.863281 29.960938 35.945312 C 29.902344 36.03125 29.871094 36.148438 29.871094 36.300781 C 29.871094 36.421875 29.894531 36.511719 29.945312 36.574219 C 29.996094 36.640625 30.054688 36.671875 30.121094 36.671875 Z M 33.761719 36.007812 C 33.769531 36.003906 33.78125 36.003906 33.796875 36.003906 C 33.832031 36.003906 33.859375 36.015625 33.878906 36.035156 C 33.894531 36.058594 33.90625 36.085938 33.90625 36.125 C 33.90625 36.191406 33.890625 36.246094 33.863281 36.28125 C 33.835938 36.320312 33.792969 36.347656 33.738281 36.367188 C 33.632812 36.398438 33.519531 36.414062 33.398438 36.414062 C 33.296875 36.414062 33.199219 36.402344 33.109375 36.375 C 33.042969 36.480469 32.96875 36.585938 32.886719 36.695312 C 32.796875 36.816406 32.714844 36.902344 32.648438 36.949219 C 32.585938 36.996094 32.507812 37.019531 32.425781 37.019531 C 32.332031 37.019531 32.261719 36.984375 32.214844 36.917969 C 32.167969 36.847656 32.140625 36.738281 32.128906 36.582031 L 32.109375 36.34375 C 32.039062 36.527344 31.972656 36.667969 31.917969 36.761719 C 31.859375 36.859375 31.804688 36.925781 31.746094 36.960938 C 31.691406 37 31.625 37.019531 31.546875 37.019531 C 31.453125 37.019531 31.378906 36.984375 31.324219 36.914062 C 31.269531 36.84375 31.234375 36.734375 31.222656 36.582031 C 31.195312 36.277344 31.179688 36.007812 31.179688 35.78125 L 31.179688 35.667969 C 31.183594 35.59375 31.203125 35.542969 31.242188 35.515625 C 31.28125 35.488281 31.339844 35.472656 31.417969 35.472656 C 31.480469 35.472656 31.523438 35.484375 31.554688 35.511719 C 31.582031 35.535156 31.597656 35.578125 31.597656 35.636719 C 31.597656 35.886719 31.613281 36.214844 31.644531 36.613281 C 31.800781 36.304688 31.949219 35.976562 32.078125 35.640625 C 32.105469 35.574219 32.136719 35.53125 32.171875 35.507812 C 32.207031 35.484375 32.25 35.472656 32.300781 35.472656 C 32.363281 35.472656 32.40625 35.484375 32.429688 35.507812 C 32.457031 35.53125 32.46875 35.574219 32.46875 35.636719 C 32.46875 35.886719 32.484375 36.214844 32.515625 36.613281 C 32.65625 36.421875 32.757812 36.265625 32.828125 36.152344 C 32.792969 36.085938 32.777344 36.011719 32.777344 35.925781 C 32.777344 35.851562 32.792969 35.777344 32.828125 35.707031 C 32.863281 35.640625 32.910156 35.582031 32.972656 35.539062 C 33.03125 35.496094 33.101562 35.472656 33.175781 35.472656 C 33.242188 35.472656 33.296875 35.496094 33.339844 35.539062 C 33.382812 35.585938 33.402344 35.648438 33.402344 35.734375 C 33.402344 35.832031 33.375 35.945312 33.320312 36.070312 C 33.40625 36.066406 33.523438 36.050781 33.667969 36.023438 Z M 37.539062 34.90625 C 37.539062 35.09375 37.46875 35.25 37.328125 35.386719 C 37.191406 35.519531 36.988281 35.617188 36.722656 35.675781 C 36.867188 35.714844 36.972656 35.773438 37.046875 35.855469 C 37.121094 35.941406 37.160156 36.039062 37.160156 36.148438 C 37.160156 36.320312 37.101562 36.46875 36.988281 36.59375 C 36.875 36.722656 36.707031 36.820312 36.484375 36.886719 C 36.265625 36.957031 36 36.992188 35.691406 36.992188 C 35.574219 36.992188 35.484375 36.988281 35.414062 36.980469 C 35.410156 37.042969 35.382812 37.089844 35.332031 37.121094 C 35.277344 37.148438 35.207031 37.164062 35.125 37.164062 C 35.042969 37.164062 34.984375 37.148438 34.953125 37.113281 C 34.921875 37.078125 34.910156 37.027344 34.914062 36.957031 C 34.933594 36.652344 34.976562 36.332031 35.035156 35.996094 C 35.09375 35.664062 35.171875 35.339844 35.265625 35.027344 C 35.28125 34.972656 35.3125 34.933594 35.363281 34.914062 C 35.410156 34.890625 35.472656 34.878906 35.550781 34.878906 C 35.695312 34.878906 35.765625 34.917969 35.765625 34.992188 C 35.765625 35.023438 35.757812 35.058594 35.742188 35.097656 C 35.683594 35.265625 35.621094 35.496094 35.5625 35.789062 C 35.503906 36.078125 35.460938 36.359375 35.433594 36.621094 C 35.546875 36.628906 35.636719 36.636719 35.707031 36.636719 C 36.027344 36.636719 36.265625 36.589844 36.417969 36.5 C 36.570312 36.414062 36.644531 36.300781 36.644531 36.164062 C 36.644531 36.066406 36.601562 35.988281 36.515625 35.921875 C 36.429688 35.855469 36.285156 35.820312 36.078125 35.8125 C 36.035156 35.8125 36 35.800781 35.984375 35.78125 C 35.964844 35.761719 35.957031 35.730469 35.957031 35.6875 C 35.957031 35.621094 35.96875 35.570312 35.996094 35.53125 C 36.023438 35.492188 36.074219 35.472656 36.148438 35.46875 C 36.3125 35.464844 36.460938 35.441406 36.59375 35.402344 C 36.726562 35.359375 36.832031 35.300781 36.910156 35.226562 C 36.984375 35.152344 37.023438 35.0625 37.023438 34.960938 C 37.023438 34.835938 36.957031 34.734375 36.828125 34.664062 C 36.695312 34.589844 36.492188 34.554688 36.21875 34.554688 C 35.972656 34.554688 35.730469 34.582031 35.5 34.644531 C 35.269531 34.703125 35.070312 34.777344 34.910156 34.871094 C 34.835938 34.914062 34.773438 34.933594 34.722656 34.933594 C 34.679688 34.933594 34.648438 34.917969 34.628906 34.890625 C 34.605469 34.863281 34.59375 34.832031 34.59375 34.789062 C 34.59375 34.734375 34.605469 34.6875 34.628906 34.648438 C 34.65625 34.609375 34.714844 34.5625 34.804688 34.515625 C 35 34.410156 35.226562 34.328125 35.488281 34.269531 C 35.75 34.210938 36.019531 34.179688 36.292969 34.179688 C 36.710938 34.179688 37.023438 34.246094 37.230469 34.378906 C 37.433594 34.511719 37.539062 34.6875 37.539062 34.90625 Z M 39.074219 36.273438 C 39.101562 36.273438 39.125 36.285156 39.144531 36.3125 C 39.160156 36.335938 39.171875 36.371094 39.171875 36.417969 C 39.171875 36.507812 39.148438 36.574219 39.105469 36.621094 C 39.019531 36.71875 38.898438 36.808594 38.742188 36.894531 C 38.585938 36.976562 38.417969 37.019531 38.238281 37.019531 C 37.996094 37.019531 37.808594 36.957031 37.675781 36.832031 C 37.539062 36.707031 37.472656 36.535156 37.472656 36.320312 C 37.472656 36.171875 37.507812 36.03125 37.574219 35.898438 C 37.640625 35.769531 37.734375 35.667969 37.851562 35.589844 C 37.972656 35.515625 38.105469 35.476562 38.257812 35.476562 C 38.390625 35.476562 38.5 35.515625 38.578125 35.589844 C 38.660156 35.664062 38.703125 35.765625 38.703125 35.894531 C 38.703125 36.046875 38.644531 36.175781 38.53125 36.28125 C 38.414062 36.390625 38.222656 36.476562 37.949219 36.539062 C 38.007812 36.640625 38.117188 36.691406 38.277344 36.691406 C 38.382812 36.691406 38.5 36.65625 38.632812 36.585938 C 38.765625 36.519531 38.882812 36.429688 38.980469 36.316406 C 39.007812 36.285156 39.039062 36.273438 39.074219 36.273438 Z M 38.199219 35.796875 C 38.113281 35.796875 38.039062 35.84375 37.980469 35.9375 C 37.921875 36.03125 37.894531 36.144531 37.894531 36.277344 L 37.894531 36.285156 C 38.027344 36.253906 38.136719 36.207031 38.214844 36.148438 C 38.292969 36.085938 38.332031 36.015625 38.332031 35.933594 C 38.332031 35.894531 38.320312 35.859375 38.296875 35.835938 C 38.273438 35.808594 38.238281 35.796875 38.199219 35.796875 Z M 40.75 36.277344 C 40.78125 36.277344 40.804688 36.292969 40.820312 36.320312 C 40.839844 36.347656 40.847656 36.378906 40.847656 36.421875 C 40.847656 36.472656 40.839844 36.511719 40.824219 36.539062 C 40.808594 36.566406 40.78125 36.59375 40.746094 36.613281 L 40.082031 37.039062 C 39.992188 37.488281 39.878906 37.84375 39.734375 38.101562 C 39.59375 38.359375 39.414062 38.492188 39.191406 38.492188 C 39.074219 38.492188 38.976562 38.457031 38.902344 38.386719 C 38.832031 38.320312 38.792969 38.230469 38.792969 38.117188 C 38.792969 38.015625 38.816406 37.910156 38.867188 37.804688 C 38.917969 37.695312 39.011719 37.574219 39.144531 37.433594 C 39.28125 37.296875 39.472656 37.136719 39.71875 36.957031 L 39.730469 36.882812 C 39.746094 36.804688 39.765625 36.6875 39.785156 36.535156 C 39.738281 36.695312 39.675781 36.8125 39.589844 36.894531 C 39.507812 36.976562 39.421875 37.019531 39.328125 37.019531 C 39.222656 37.019531 39.136719 36.972656 39.070312 36.882812 C 39.007812 36.792969 38.972656 36.679688 38.972656 36.542969 C 38.972656 36.378906 38.984375 36.230469 39.007812 36.09375 C 39.03125 35.957031 39.070312 35.8125 39.121094 35.660156 C 39.144531 35.59375 39.179688 35.546875 39.21875 35.519531 C 39.261719 35.492188 39.328125 35.476562 39.417969 35.476562 C 39.46875 35.476562 39.503906 35.484375 39.523438 35.5 C 39.542969 35.515625 39.554688 35.539062 39.554688 35.566406 C 39.554688 35.585938 39.539062 35.644531 39.515625 35.746094 C 39.492188 35.824219 39.472656 35.898438 39.460938 35.964844 C 39.441406 36.054688 39.425781 36.140625 39.410156 36.21875 C 39.398438 36.300781 39.390625 36.371094 39.390625 36.421875 C 39.390625 36.503906 39.414062 36.546875 39.464844 36.546875 C 39.496094 36.546875 39.542969 36.515625 39.59375 36.449219 C 39.644531 36.382812 39.699219 36.285156 39.757812 36.152344 C 39.820312 36.015625 39.875 35.855469 39.933594 35.660156 C 39.949219 35.59375 39.976562 35.546875 40.015625 35.519531 C 40.054688 35.492188 40.113281 35.476562 40.1875 35.476562 C 40.242188 35.476562 40.277344 35.484375 40.300781 35.496094 C 40.320312 35.507812 40.332031 35.53125 40.332031 35.5625 C 40.332031 35.617188 40.300781 35.804688 40.242188 36.125 L 40.148438 36.652344 C 40.328125 36.523438 40.503906 36.410156 40.671875 36.304688 C 40.699219 36.285156 40.726562 36.277344 40.75 36.277344 Z M 39.230469 38.171875 C 39.289062 38.171875 39.351562 38.109375 39.425781 37.984375 C 39.496094 37.855469 39.566406 37.644531 39.640625 37.351562 C 39.460938 37.492188 39.332031 37.621094 39.253906 37.738281 C 39.171875 37.855469 39.132812 37.957031 39.132812 38.046875 C 39.132812 38.082031 39.140625 38.113281 39.15625 38.136719 C 39.171875 38.160156 39.195312 38.171875 39.230469 38.171875 Z M 42.492188 35.996094 C 42.519531 35.996094 42.542969 36.011719 42.5625 36.039062 C 42.578125 36.066406 42.585938 36.101562 42.585938 36.148438 C 42.585938 36.25 42.550781 36.3125 42.484375 36.332031 C 42.34375 36.378906 42.191406 36.40625 42.027344 36.414062 C 41.980469 36.59375 41.894531 36.742188 41.765625 36.851562 C 41.636719 36.960938 41.488281 37.019531 41.324219 37.019531 C 41.1875 37.019531 41.066406 36.984375 40.96875 36.921875 C 40.871094 36.859375 40.796875 36.777344 40.746094 36.671875 C 40.695312 36.566406 40.667969 36.453125 40.667969 36.332031 C 40.667969 36.164062 40.703125 36.015625 40.769531 35.886719 C 40.835938 35.757812 40.929688 35.65625 41.046875 35.582031 C 41.164062 35.507812 41.296875 35.472656 41.441406 35.472656 C 41.617188 35.472656 41.757812 35.53125 41.863281 35.644531 C 41.972656 35.757812 42.035156 35.902344 42.054688 36.070312 C 42.164062 36.0625 42.292969 36.039062 42.441406 36.003906 C 42.460938 36 42.476562 35.996094 42.492188 35.996094 Z M 41.351562 36.671875 C 41.425781 36.671875 41.492188 36.640625 41.546875 36.585938 C 41.601562 36.527344 41.636719 36.445312 41.65625 36.339844 C 41.582031 36.292969 41.527344 36.234375 41.488281 36.160156 C 41.453125 36.085938 41.433594 36.007812 41.433594 35.925781 C 41.433594 35.890625 41.4375 35.855469 41.441406 35.820312 L 41.425781 35.820312 C 41.332031 35.820312 41.257812 35.863281 41.195312 35.945312 C 41.132812 36.03125 41.101562 36.148438 41.101562 36.300781 C 41.101562 36.421875 41.128906 36.511719 41.175781 36.574219 C 41.226562 36.640625 41.285156 36.671875 41.351562 36.671875 Z M 42.617188 37.019531 C 42.527344 37.019531 42.46875 36.972656 42.429688 36.886719 C 42.394531 36.800781 42.378906 36.660156 42.378906 36.46875 C 42.378906 36.183594 42.421875 35.914062 42.507812 35.660156 C 42.527344 35.597656 42.5625 35.550781 42.609375 35.519531 C 42.65625 35.492188 42.722656 35.476562 42.808594 35.476562 C 42.855469 35.476562 42.886719 35.480469 42.90625 35.492188 C 42.921875 35.503906 42.933594 35.523438 42.933594 35.554688 C 42.933594 35.589844 42.914062 35.667969 42.878906 35.789062 C 42.859375 35.878906 42.839844 35.953125 42.824219 36.019531 C 42.8125 36.085938 42.800781 36.164062 42.789062 36.261719 C 42.867188 36.074219 42.953125 35.921875 43.046875 35.804688 C 43.140625 35.6875 43.234375 35.601562 43.328125 35.550781 C 43.417969 35.5 43.503906 35.476562 43.578125 35.476562 C 43.730469 35.476562 43.804688 35.546875 43.804688 35.6875 C 43.804688 35.773438 43.777344 35.929688 43.726562 36.152344 C 43.683594 36.339844 43.660156 36.464844 43.660156 36.527344 C 43.660156 36.613281 43.695312 36.65625 43.761719 36.65625 C 43.808594 36.65625 43.863281 36.628906 43.925781 36.578125 C 43.992188 36.523438 44.074219 36.4375 44.183594 36.316406 C 44.210938 36.285156 44.242188 36.273438 44.277344 36.273438 C 44.304688 36.273438 44.332031 36.285156 44.347656 36.3125 C 44.363281 36.335938 44.375 36.371094 44.375 36.417969 C 44.375 36.507812 44.351562 36.574219 44.308594 36.621094 C 44.207031 36.738281 44.101562 36.832031 43.988281 36.90625 C 43.871094 36.980469 43.742188 37.019531 43.597656 37.019531 C 43.476562 37.019531 43.390625 36.984375 43.328125 36.921875 C 43.269531 36.855469 43.238281 36.761719 43.238281 36.640625 C 43.238281 36.582031 43.253906 36.472656 43.285156 36.3125 C 43.316406 36.175781 43.332031 36.082031 43.332031 36.03125 C 43.332031 35.996094 43.320312 35.976562 43.292969 35.976562 C 43.265625 35.976562 43.222656 36.011719 43.167969 36.085938 C 43.113281 36.160156 43.058594 36.257812 43 36.375 C 42.945312 36.496094 42.898438 36.621094 42.863281 36.757812 C 42.839844 36.859375 42.808594 36.925781 42.773438 36.964844 C 42.742188 37 42.6875 37.019531 42.617188 37.019531 Z M 46.148438 36.273438 C 46.179688 36.273438 46.203125 36.285156 46.21875 36.3125 C 46.238281 36.335938 46.246094 36.371094 46.246094 36.417969 C 46.246094 36.507812 46.222656 36.574219 46.179688 36.621094 C 46.085938 36.730469 45.980469 36.824219 45.867188 36.902344 C 45.753906 36.980469 45.640625 37.019531 45.53125 37.019531 C 45.355469 37.019531 45.21875 36.921875 45.128906 36.726562 C 45.03125 36.84375 44.945312 36.917969 44.871094 36.957031 C 44.800781 37 44.714844 37.019531 44.617188 37.019531 C 44.476562 37.019531 44.359375 36.96875 44.269531 36.867188 C 44.175781 36.769531 44.132812 36.640625 44.132812 36.480469 C 44.132812 36.304688 44.171875 36.144531 44.25 35.996094 C 44.328125 35.84375 44.4375 35.722656 44.574219 35.628906 C 44.710938 35.535156 44.867188 35.476562 45.039062 35.460938 C 45.082031 35.035156 45.164062 34.675781 45.289062 34.375 C 45.414062 34.074219 45.574219 33.925781 45.777344 33.925781 C 45.875 33.925781 45.960938 33.96875 46.023438 34.050781 C 46.089844 34.136719 46.125 34.265625 46.125 34.4375 C 46.125 34.683594 46.0625 34.96875 45.933594 35.296875 C 45.804688 35.625 45.636719 35.960938 45.421875 36.304688 C 45.433594 36.429688 45.453125 36.519531 45.484375 36.574219 C 45.515625 36.628906 45.554688 36.65625 45.605469 36.65625 C 45.664062 36.65625 45.730469 36.632812 45.792969 36.578125 C 45.859375 36.527344 45.945312 36.441406 46.054688 36.316406 C 46.082031 36.285156 46.113281 36.273438 46.148438 36.273438 Z M 45.738281 34.246094 C 45.695312 34.246094 45.652344 34.320312 45.605469 34.464844 C 45.5625 34.613281 45.523438 34.804688 45.492188 35.042969 C 45.460938 35.28125 45.441406 35.53125 45.425781 35.789062 C 45.6875 35.257812 45.816406 34.832031 45.816406 34.507812 C 45.816406 34.425781 45.808594 34.359375 45.792969 34.3125 C 45.777344 34.269531 45.757812 34.246094 45.738281 34.246094 Z M 44.738281 36.6875 C 44.78125 36.6875 44.828125 36.671875 44.871094 36.636719 C 44.914062 36.601562 44.96875 36.539062 45.039062 36.449219 C 45.015625 36.332031 45.003906 36.199219 45.003906 36.050781 C 45.003906 36 45.003906 35.914062 45.011719 35.796875 C 44.882812 35.835938 44.777344 35.914062 44.691406 36.039062 C 44.609375 36.160156 44.566406 36.296875 44.566406 36.449219 C 44.566406 36.609375 44.625 36.6875 44.738281 36.6875 Z M 49.898438 34.90625 C 49.898438 35.09375 49.828125 35.25 49.691406 35.386719 C 49.550781 35.519531 49.351562 35.617188 49.082031 35.675781 C 49.226562 35.714844 49.335938 35.773438 49.410156 35.855469 C 49.484375 35.941406 49.519531 36.039062 49.519531 36.148438 C 49.519531 36.320312 49.464844 36.46875 49.347656 36.59375 C 49.234375 36.722656 49.066406 36.820312 48.847656 36.886719 C 48.628906 36.957031 48.363281 36.992188 48.054688 36.992188 C 47.9375 36.992188 47.84375 36.988281 47.773438 36.980469 C 47.773438 37.042969 47.746094 37.089844 47.691406 37.121094 C 47.636719 37.148438 47.570312 37.164062 47.488281 37.164062 C 47.402344 37.164062 47.347656 37.148438 47.316406 37.113281 C 47.285156 37.078125 47.269531 37.027344 47.273438 36.957031 C 47.296875 36.652344 47.335938 36.332031 47.398438 35.996094 C 47.457031 35.664062 47.535156 35.339844 47.625 35.027344 C 47.640625 34.972656 47.675781 34.933594 47.722656 34.914062 C 47.773438 34.890625 47.835938 34.878906 47.914062 34.878906 C 48.054688 34.878906 48.125 34.917969 48.125 34.992188 C 48.125 35.023438 48.117188 35.058594 48.105469 35.097656 C 48.042969 35.265625 47.984375 35.496094 47.925781 35.789062 C 47.863281 36.078125 47.820312 36.359375 47.796875 36.621094 C 47.90625 36.628906 47.996094 36.636719 48.066406 36.636719 C 48.390625 36.636719 48.628906 36.589844 48.78125 36.5 C 48.929688 36.414062 49.007812 36.300781 49.007812 36.164062 C 49.007812 36.066406 48.964844 35.988281 48.875 35.921875 C 48.789062 35.855469 48.644531 35.820312 48.441406 35.8125 C 48.394531 35.8125 48.363281 35.800781 48.34375 35.78125 C 48.324219 35.761719 48.316406 35.730469 48.316406 35.6875 C 48.316406 35.621094 48.332031 35.570312 48.359375 35.53125 C 48.386719 35.492188 48.4375 35.472656 48.511719 35.46875 C 48.675781 35.464844 48.824219 35.441406 48.957031 35.402344 C 49.089844 35.359375 49.195312 35.300781 49.269531 35.226562 C 49.347656 35.152344 49.386719 35.0625 49.386719 34.960938 C 49.386719 34.835938 49.320312 34.734375 49.1875 34.664062 C 49.054688 34.589844 48.851562 34.554688 48.582031 34.554688 C 48.332031 34.554688 48.09375 34.582031 47.863281 34.644531 C 47.628906 34.703125 47.433594 34.777344 47.273438 34.871094 C 47.199219 34.914062 47.136719 34.933594 47.085938 34.933594 C 47.042969 34.933594 47.011719 34.917969 46.988281 34.890625 C 46.964844 34.863281 46.957031 34.832031 46.957031 34.789062 C 46.957031 34.734375 46.96875 34.6875 46.992188 34.648438 C 47.015625 34.609375 47.074219 34.5625 47.167969 34.515625 C 47.363281 34.410156 47.589844 34.328125 47.851562 34.269531 C 48.113281 34.210938 48.378906 34.179688 48.652344 34.179688 C 49.070312 34.179688 49.382812 34.246094 49.589844 34.378906 C 49.796875 34.511719 49.898438 34.6875 49.898438 34.90625 Z M 51.433594 36.273438 C 51.464844 36.273438 51.488281 36.285156 51.507812 36.3125 C 51.523438 36.335938 51.53125 36.371094 51.53125 36.417969 C 51.53125 36.507812 51.511719 36.574219 51.464844 36.621094 C 51.378906 36.71875 51.257812 36.808594 51.101562 36.894531 C 50.949219 36.976562 50.78125 37.019531 50.601562 37.019531 C 50.359375 37.019531 50.171875 36.957031 50.035156 36.832031 C 49.902344 36.707031 49.835938 36.535156 49.835938 36.320312 C 49.835938 36.171875 49.867188 36.03125 49.933594 35.898438 C 50.003906 35.769531 50.09375 35.667969 50.214844 35.589844 C 50.335938 35.515625 50.46875 35.476562 50.621094 35.476562 C 50.753906 35.476562 50.859375 35.515625 50.941406 35.589844 C 51.023438 35.664062 51.0625 35.765625 51.0625 35.894531 C 51.0625 36.046875 51.007812 36.175781 50.890625 36.28125 C 50.777344 36.390625 50.582031 36.476562 50.308594 36.539062 C 50.367188 36.640625 50.476562 36.691406 50.640625 36.691406 C 50.746094 36.691406 50.863281 36.65625 50.996094 36.585938 C 51.128906 36.519531 51.246094 36.429688 51.339844 36.316406 C 51.367188 36.285156 51.398438 36.273438 51.433594 36.273438 Z M 50.558594 35.796875 C 50.476562 35.796875 50.402344 35.84375 50.34375 35.9375 C 50.285156 36.03125 50.253906 36.144531 50.253906 36.277344 L 50.253906 36.285156 C 50.390625 36.253906 50.5 36.207031 50.578125 36.148438 C 50.65625 36.085938 50.695312 36.015625 50.695312 35.933594 C 50.695312 35.894531 50.683594 35.859375 50.660156 35.835938 C 50.636719 35.808594 50.601562 35.796875 50.558594 35.796875 Z M 51.746094 37.019531 C 51.601562 37.019531 51.488281 36.96875 51.402344 36.871094 C 51.316406 36.773438 51.273438 36.644531 51.273438 36.484375 C 51.273438 36.308594 51.316406 36.144531 51.402344 35.988281 C 51.488281 35.832031 51.601562 35.707031 51.742188 35.613281 C 51.886719 35.515625 52.035156 35.46875 52.195312 35.46875 C 52.246094 35.46875 52.28125 35.480469 52.296875 35.496094 C 52.316406 35.515625 52.332031 35.550781 52.339844 35.597656 C 52.390625 35.589844 52.441406 35.585938 52.496094 35.585938 C 52.609375 35.585938 52.664062 35.621094 52.664062 35.699219 C 52.664062 35.746094 52.648438 35.855469 52.613281 36.027344 C 52.558594 36.277344 52.53125 36.453125 52.53125 36.550781 C 52.53125 36.582031 52.542969 36.609375 52.558594 36.628906 C 52.578125 36.648438 52.597656 36.65625 52.625 36.65625 C 52.671875 36.65625 52.722656 36.628906 52.785156 36.578125 C 52.847656 36.523438 52.933594 36.4375 53.039062 36.316406 C 53.066406 36.285156 53.097656 36.273438 53.132812 36.273438 C 53.164062 36.273438 53.1875 36.285156 53.203125 36.3125 C 53.222656 36.335938 53.230469 36.371094 53.230469 36.417969 C 53.230469 36.507812 53.207031 36.574219 53.164062 36.621094 C 53.070312 36.734375 52.96875 36.828125 52.863281 36.902344 C 52.757812 36.980469 52.652344 37.019531 52.554688 37.019531 C 52.476562 37.019531 52.40625 36.992188 52.34375 36.945312 C 52.28125 36.894531 52.230469 36.828125 52.199219 36.742188 C 52.078125 36.925781 51.925781 37.019531 51.746094 37.019531 Z M 51.871094 36.6875 C 51.921875 36.6875 51.96875 36.660156 52.015625 36.601562 C 52.0625 36.546875 52.09375 36.46875 52.117188 36.375 L 52.246094 35.773438 C 52.148438 35.777344 52.058594 35.808594 51.976562 35.875 C 51.894531 35.945312 51.828125 36.03125 51.78125 36.140625 C 51.730469 36.25 51.707031 36.367188 51.707031 36.488281 C 51.707031 36.554688 51.722656 36.605469 51.75 36.636719 C 51.777344 36.671875 51.820312 36.6875 51.871094 36.6875 Z M 53.386719 37.019531 C 53.285156 37.019531 53.199219 36.972656 53.132812 36.882812 C 53.066406 36.792969 53.035156 36.679688 53.035156 36.542969 C 53.035156 36.378906 53.046875 36.230469 53.070312 36.09375 C 53.089844 35.957031 53.128906 35.8125 53.183594 35.660156 C 53.207031 35.59375 53.238281 35.546875 53.28125 35.519531 C 53.320312 35.492188 53.386719 35.476562 53.476562 35.476562 C 53.527344 35.476562 53.5625 35.484375 53.582031 35.5 C 53.605469 35.515625 53.613281 35.539062 53.613281 35.566406 C 53.613281 35.585938 53.601562 35.644531 53.574219 35.746094 C 53.550781 35.824219 53.535156 35.898438 53.519531 35.964844 C 53.472656 36.191406 53.449219 36.34375 53.449219 36.421875 C 53.449219 36.46875 53.457031 36.5 53.46875 36.519531 C 53.480469 36.535156 53.496094 36.546875 53.523438 36.546875 C 53.558594 36.546875 53.601562 36.515625 53.652344 36.449219 C 53.707031 36.382812 53.761719 36.285156 53.820312 36.152344 C 53.878906 36.015625 53.9375 35.855469 53.992188 35.660156 C 54.011719 35.59375 54.039062 35.546875 54.078125 35.519531 C 54.113281 35.492188 54.171875 35.476562 54.25 35.476562 C 54.300781 35.476562 54.339844 35.480469 54.359375 35.492188 C 54.378906 35.507812 54.390625 35.527344 54.390625 35.5625 C 54.390625 35.617188 54.363281 35.765625 54.304688 36.007812 C 54.238281 36.289062 54.207031 36.460938 54.207031 36.527344 C 54.207031 36.566406 54.214844 36.601562 54.234375 36.621094 C 54.253906 36.644531 54.277344 36.65625 54.308594 36.65625 C 54.355469 36.65625 54.410156 36.628906 54.472656 36.578125 C 54.535156 36.523438 54.621094 36.4375 54.726562 36.316406 C 54.753906 36.285156 54.785156 36.273438 54.820312 36.273438 C 54.851562 36.273438 54.875 36.285156 54.890625 36.3125 C 54.910156 36.335938 54.917969 36.371094 54.917969 36.417969 C 54.917969 36.507812 54.898438 36.574219 54.851562 36.621094 C 54.753906 36.738281 54.644531 36.832031 54.53125 36.90625 C 54.417969 36.980469 54.285156 37.019531 54.140625 37.019531 C 54.03125 37.019531 53.949219 36.976562 53.894531 36.898438 C 53.84375 36.816406 53.820312 36.703125 53.820312 36.554688 C 53.777344 36.703125 53.71875 36.820312 53.640625 36.898438 C 53.5625 36.976562 53.476562 37.019531 53.386719 37.019531 Z M 56.269531 36.273438 C 56.300781 36.273438 56.324219 36.285156 56.339844 36.3125 C 56.359375 36.335938 56.367188 36.371094 56.367188 36.417969 C 56.367188 36.507812 56.34375 36.574219 56.300781 36.621094 C 56.203125 36.738281 56.09375 36.832031 55.976562 36.90625 C 55.855469 36.980469 55.722656 37.019531 55.570312 37.019531 C 55.097656 37.019531 54.859375 36.703125 54.859375 36.078125 C 54.859375 35.980469 54.863281 35.886719 54.871094 35.789062 L 54.734375 35.789062 C 54.667969 35.789062 54.621094 35.773438 54.59375 35.75 C 54.570312 35.726562 54.558594 35.6875 54.558594 35.636719 C 54.558594 35.515625 54.609375 35.453125 54.714844 35.453125 L 54.914062 35.453125 C 54.953125 35.214844 55.011719 34.992188 55.09375 34.796875 C 55.175781 34.597656 55.273438 34.4375 55.386719 34.320312 C 55.5 34.203125 55.625 34.144531 55.757812 34.144531 C 55.851562 34.144531 55.929688 34.183594 55.984375 34.265625 C 56.039062 34.347656 56.070312 34.449219 56.070312 34.570312 C 56.070312 34.90625 55.917969 35.203125 55.617188 35.453125 L 56.007812 35.453125 C 56.042969 35.453125 56.070312 35.460938 56.085938 35.476562 C 56.101562 35.492188 56.109375 35.519531 56.109375 35.5625 C 56.109375 35.710938 55.980469 35.789062 55.71875 35.789062 L 55.292969 35.789062 C 55.289062 35.894531 55.289062 35.980469 55.289062 36.042969 C 55.289062 36.269531 55.316406 36.429688 55.371094 36.519531 C 55.429688 36.613281 55.519531 36.65625 55.640625 36.65625 C 55.742188 36.65625 55.828125 36.628906 55.90625 36.574219 C 55.980469 36.515625 56.070312 36.429688 56.175781 36.316406 C 56.203125 36.285156 56.234375 36.273438 56.269531 36.273438 Z M 55.664062 34.457031 C 55.628906 34.457031 55.589844 34.5 55.546875 34.582031 C 55.503906 34.664062 55.460938 34.777344 55.425781 34.921875 C 55.386719 35.066406 55.355469 35.226562 55.328125 35.402344 C 55.464844 35.292969 55.566406 35.167969 55.636719 35.027344 C 55.703125 34.890625 55.738281 34.765625 55.738281 34.652344 C 55.738281 34.523438 55.714844 34.457031 55.664062 34.457031 Z M 57.949219 36.277344 C 57.976562 36.277344 58 36.292969 58.019531 36.320312 C 58.035156 36.347656 58.042969 36.378906 58.042969 36.421875 C 58.042969 36.472656 58.035156 36.511719 58.019531 36.539062 C 58.003906 36.566406 57.980469 36.59375 57.945312 36.613281 L 57.277344 37.039062 C 57.191406 37.488281 57.074219 37.84375 56.933594 38.101562 C 56.789062 38.359375 56.609375 38.492188 56.390625 38.492188 C 56.269531 38.492188 56.175781 38.457031 56.101562 38.386719 C 56.027344 38.320312 55.988281 38.230469 55.988281 38.117188 C 55.988281 38.015625 56.015625 37.910156 56.0625 37.804688 C 56.113281 37.695312 56.207031 37.574219 56.34375 37.433594 C 56.476562 37.296875 56.667969 37.136719 56.917969 36.957031 L 56.925781 36.882812 C 56.945312 36.804688 56.960938 36.6875 56.984375 36.535156 C 56.9375 36.695312 56.871094 36.8125 56.789062 36.894531 C 56.703125 36.976562 56.617188 37.019531 56.523438 37.019531 C 56.421875 37.019531 56.335938 36.972656 56.269531 36.882812 C 56.203125 36.792969 56.171875 36.679688 56.171875 36.542969 C 56.171875 36.378906 56.183594 36.230469 56.207031 36.09375 C 56.226562 35.957031 56.265625 35.8125 56.320312 35.660156 C 56.34375 35.59375 56.375 35.546875 56.417969 35.519531 C 56.457031 35.492188 56.523438 35.476562 56.613281 35.476562 C 56.664062 35.476562 56.699219 35.484375 56.71875 35.5 C 56.738281 35.515625 56.75 35.539062 56.75 35.566406 C 56.75 35.585938 56.738281 35.644531 56.710938 35.746094 C 56.6875 35.824219 56.671875 35.898438 56.65625 35.964844 C 56.636719 36.054688 56.621094 36.140625 56.609375 36.21875 C 56.59375 36.300781 56.585938 36.371094 56.585938 36.421875 C 56.585938 36.503906 56.609375 36.546875 56.660156 36.546875 C 56.695312 36.546875 56.738281 36.515625 56.789062 36.449219 C 56.84375 36.382812 56.898438 36.285156 56.957031 36.152344 C 57.015625 36.015625 57.074219 35.855469 57.128906 35.660156 C 57.148438 35.59375 57.175781 35.546875 57.214844 35.519531 C 57.25 35.492188 57.308594 35.476562 57.386719 35.476562 C 57.4375 35.476562 57.476562 35.484375 57.496094 35.496094 C 57.515625 35.507812 57.527344 35.53125 57.527344 35.5625 C 57.527344 35.617188 57.496094 35.804688 57.4375 36.125 L 57.347656 36.652344 C 57.523438 36.523438 57.699219 36.410156 57.867188 36.304688 C 57.898438 36.285156 57.925781 36.277344 57.949219 36.277344 Z M 56.425781 38.171875 C 56.484375 38.171875 56.550781 38.109375 56.621094 37.984375 C 56.695312 37.855469 56.765625 37.644531 56.835938 37.351562 C 56.660156 37.492188 56.53125 37.621094 56.449219 37.738281 C 56.371094 37.855469 56.332031 37.957031 56.332031 38.046875 C 56.332031 38.082031 56.335938 38.113281 56.351562 38.136719 C 56.367188 38.160156 56.394531 38.171875 56.425781 38.171875 Z M 56.425781 38.171875 "/>
</g>
</g>
</svg>
