<?xml version="1.0" encoding="UTF-8"?>
<svg xmlns="http://www.w3.org/2000/svg" xmlns:xlink="http://www.w3.org/1999/xlink" width="70px" height="66px" viewBox="0 0 70 66" version="1.1">
<defs>
<clipPath id="clip1">
  <path d="M 0 32 L 69.914062 32 L 69.914062 36 L 0 36 Z M 0 32 "/>
</clipPath>
<clipPath id="clip2">
  <path d="M 0.175781 0 L 69.742188 0 L 69.742188 29.59375 L 0.175781 29.59375 Z M 0.175781 0 "/>
</clipPath>
<clipPath id="clip3">
  <path d="M 0 38.550781 L 69.566406 38.550781 L 69.566406 65.980469 L 0 65.980469 Z M 0 38.550781 "/>
</clipPath>
</defs>
<g id="surface1">
<g clip-path="url(#clip1)" clip-rule="nonzero">
<path style=" stroke:none;fill-rule:nonzero;fill:rgb(64.313725%,21.568627%,85.882353%);fill-opacity:1;" d="M 0.699219 32.738281 L 69.214844 32.738281 C 69.601562 32.738281 69.914062 33.335938 69.914062 34.070312 C 69.914062 34.808594 69.601562 35.40625 69.214844 35.40625 L 0.699219 35.40625 C 0.3125 35.40625 0 34.808594 0 34.070312 C 0 33.335938 0.3125 32.738281 0.699219 32.738281 Z M 0.699219 32.738281 "/>
</g>
<g clip-path="url(#clip2)" clip-rule="nonzero">
<path style=" stroke:none;fill-rule:nonzero;fill:rgb(64.313725%,21.568627%,85.882353%);fill-opacity:1;" d="M 4.777344 2.449219 C 4.777344 1.367188 4.660156 0.824219 4.429688 0.824219 C 4.183594 0.824219 3.925781 1.460938 3.65625 2.730469 C 3.386719 4 3.148438 5.535156 2.941406 7.339844 C 2.734375 9.140625 2.542969 10.980469 2.371094 12.851562 C 2.199219 14.726562 2.066406 16.304688 1.972656 17.59375 C 1.878906 18.878906 1.832031 19.605469 1.832031 19.765625 C 1.832031 19.996094 1.796875 20.109375 1.730469 20.109375 C 1.589844 20.109375 1.519531 19.398438 1.519531 17.980469 C 1.519531 14.550781 1.621094 11.222656 1.828125 7.992188 C 2.03125 4.757812 2.257812 2.601562 2.507812 1.519531 C 1.835938 1.875 1.289062 2.769531 0.871094 4.207031 C 0.628906 5.007812 0.511719 5.878906 0.511719 6.820312 C 0.511719 7.28125 0.558594 7.511719 0.652344 7.511719 C 0.632812 7.761719 0.582031 7.882812 0.496094 7.882812 C 0.410156 7.882812 0.335938 7.761719 0.273438 7.511719 C 0.210938 7.261719 0.179688 6.917969 0.179688 6.472656 C 0.179688 5.425781 0.347656 4.453125 0.683594 3.554688 C 1.019531 2.660156 1.382812 1.992188 1.773438 1.558594 C 2.164062 1.125 2.496094 0.90625 2.769531 0.90625 C 2.84375 0.90625 2.882812 1.046875 2.882812 1.332031 C 2.554688 4.207031 2.273438 8.222656 2.042969 13.371094 L 2.09375 13.371094 C 2.300781 10.796875 2.515625 8.652344 2.734375 6.9375 C 2.957031 5.226562 3.148438 3.929688 3.3125 3.050781 C 3.480469 2.171875 3.660156 1.445312 3.863281 0.878906 C 4.0625 0.3125 4.261719 0.0273438 4.464844 0.0273438 C 4.878906 0.0273438 5.125 0.703125 5.207031 2.050781 C 5.226562 2.351562 5.234375 2.671875 5.234375 3.011719 C 5.234375 4.09375 5.136719 5.273438 4.9375 6.550781 C 4.65625 8.382812 4.277344 9.660156 3.800781 10.386719 L 3.53125 10.707031 C 3.667969 10.761719 3.8125 11.457031 3.96875 12.796875 C 4.121094 14.140625 4.253906 15.605469 4.375 17.195312 C 4.492188 18.78125 4.632812 20.234375 4.796875 21.546875 C 4.960938 22.863281 5.125 23.519531 5.285156 23.519531 C 5.410156 23.519531 5.507812 23.351562 5.566406 23.015625 C 5.601562 23.015625 5.617188 23.058594 5.617188 23.148438 C 5.617188 23.234375 5.601562 23.359375 5.574219 23.519531 C 5.46875 24.050781 5.34375 24.34375 5.191406 24.398438 C 4.949219 24.398438 4.710938 23.769531 4.484375 22.507812 C 4.253906 21.246094 4.070312 19.847656 3.929688 18.3125 C 3.789062 16.777344 3.636719 15.246094 3.480469 13.71875 C 3.324219 12.191406 3.1875 11.25 3.082031 10.894531 C 3.03125 10.894531 2.988281 10.835938 2.957031 10.722656 C 2.925781 10.605469 2.910156 10.421875 2.90625 10.175781 C 3.402344 10.175781 3.851562 9.234375 4.246094 7.351562 C 4.597656 5.664062 4.777344 4.03125 4.777344 2.449219 Z M 5.957031 20.617188 C 5.570312 20.617188 5.375 19.472656 5.375 17.179688 C 5.375 15.8125 5.464844 14.3125 5.644531 12.679688 C 5.894531 10.386719 6.222656 8.824219 6.625 7.992188 C 6.800781 7.636719 6.964844 7.457031 7.113281 7.457031 C 7.265625 7.457031 7.382812 7.582031 7.46875 7.832031 C 7.558594 8.078125 7.613281 8.328125 7.636719 8.578125 L 7.679688 8.921875 C 7.664062 9.226562 7.625 9.375 7.558594 9.375 C 7.484375 9.375 7.441406 9.308594 7.429688 9.175781 C 7.417969 9.042969 7.402344 8.925781 7.390625 8.828125 C 7.375 8.730469 7.34375 8.597656 7.289062 8.429688 C 7.238281 8.261719 7.179688 8.175781 7.113281 8.175781 C 6.808594 8.175781 6.53125 9.214844 6.28125 11.292969 C 5.996094 13.691406 5.855469 15.945312 5.855469 18.058594 C 5.855469 19.125 5.914062 19.65625 6.027344 19.65625 C 6.117188 19.65625 6.242188 19.28125 6.402344 18.527344 C 6.566406 17.769531 6.738281 16.824219 6.917969 15.6875 C 7.226562 13.734375 7.480469 12.039062 7.671875 10.601562 C 7.832031 9.324219 7.996094 8.683594 8.167969 8.683594 C 8.253906 8.683594 8.300781 8.886719 8.300781 9.296875 C 8.257812 9.632812 8.203125 10.113281 8.136719 10.734375 C 8.070312 11.355469 7.984375 12.589844 7.875 14.4375 C 7.769531 16.285156 7.714844 18.121094 7.714844 19.949219 C 7.714844 21.78125 7.789062 22.695312 7.933594 22.695312 C 7.988281 22.695312 8.042969 22.601562 8.089844 22.414062 C 8.136719 22.226562 8.179688 21.949219 8.214844 21.574219 C 8.230469 21.378906 8.261719 21.28125 8.316406 21.28125 C 8.332031 21.28125 8.347656 21.308594 8.355469 21.363281 C 8.367188 21.414062 8.367188 21.503906 8.355469 21.628906 C 8.347656 21.753906 8.332031 21.925781 8.308594 22.148438 C 8.285156 22.371094 8.234375 22.667969 8.15625 23.039062 C 8.078125 23.414062 7.996094 23.601562 7.910156 23.601562 C 7.714844 23.601562 7.5625 23.113281 7.457031 22.136719 C 7.351562 21.15625 7.296875 20.003906 7.296875 18.671875 C 7.296875 17.339844 7.324219 16.0625 7.375 14.835938 L 7.304688 14.835938 C 6.707031 18.691406 6.257812 20.617188 5.957031 20.617188 Z M 10.074219 18.164062 C 10.074219 19.230469 10.148438 19.765625 10.296875 19.765625 C 10.492188 19.765625 10.703125 18.789062 10.933594 16.835938 C 11.203125 14.597656 11.335938 12.5 11.335938 10.546875 C 11.335938 9.214844 11.246094 8.550781 11.058594 8.550781 C 10.871094 8.550781 10.667969 9.09375 10.449219 10.175781 C 10.226562 11.257812 10.027344 12.515625 9.855469 13.945312 C 9.683594 15.375 9.539062 16.722656 9.414062 17.992188 C 9.292969 19.261719 9.21875 20.203125 9.195312 20.816406 C 9.167969 21.429688 9.148438 21.890625 9.132812 22.203125 C 9.121094 22.511719 9.097656 23.003906 9.066406 23.679688 C 9.035156 24.355469 9.007812 24.871094 8.980469 25.226562 C 8.953125 25.578125 8.921875 26.027344 8.878906 26.570312 C 8.835938 27.113281 8.792969 27.527344 8.75 27.820312 C 8.703125 28.113281 8.652344 28.414062 8.597656 28.714844 C 8.484375 29.300781 8.339844 29.59375 8.167969 29.59375 C 7.9375 29.59375 7.824219 29.105469 7.824219 28.128906 C 7.824219 26.386719 8.179688 23.113281 8.886719 18.300781 C 8.957031 16.347656 9.03125 14.765625 9.105469 13.558594 C 9.269531 10.699219 9.445312 8.484375 9.632812 6.914062 C 9.816406 5.339844 9.984375 4.554688 10.136719 4.554688 C 10.210938 4.554688 10.25 4.722656 10.25 5.0625 C 10.023438 7.316406 9.789062 10.175781 9.550781 13.636719 L 9.507812 14.25 L 9.601562 14.25 C 10.136719 9.847656 10.644531 7.644531 11.117188 7.644531 C 11.5625 7.644531 11.78125 8.96875 11.78125 11.613281 C 11.78125 13.53125 11.652344 15.449219 11.394531 17.367188 C 11.105469 19.535156 10.761719 20.617188 10.363281 20.617188 C 10.039062 20.617188 9.875 19.816406 9.875 18.21875 C 9.875 17.367188 9.9375 16.386719 10.0625 15.277344 C 10.1875 14.167969 10.351562 13.34375 10.554688 12.8125 C 10.597656 12.722656 10.632812 12.757812 10.660156 12.917969 C 10.664062 13.007812 10.660156 13.070312 10.652344 13.105469 C 10.472656 13.636719 10.332031 14.417969 10.226562 15.449219 C 10.125 16.480469 10.074219 17.382812 10.074219 18.164062 Z M 8.019531 27.886719 C 8.019531 28.421875 8.070312 28.6875 8.171875 28.6875 C 8.386719 28.6875 8.542969 27.605469 8.644531 25.4375 C 8.683594 24.691406 8.75 22.808594 8.84375 19.789062 C 8.414062 22.917969 8.148438 25.339844 8.046875 27.0625 C 8.027344 27.382812 8.019531 27.65625 8.019531 27.886719 Z M 13.449219 12.890625 C 13.199219 14.597656 13.003906 16.105469 12.863281 17.421875 C 12.726562 18.734375 12.65625 19.511719 12.65625 19.75 C 12.65625 19.992188 12.625 20.109375 12.558594 20.109375 C 12.417969 20.109375 12.34375 19.398438 12.34375 17.980469 C 12.34375 15.15625 12.421875 12.320312 12.570312 9.46875 C 12.722656 6.617188 12.902344 4.335938 13.109375 2.625 C 13.316406 0.910156 13.507812 0.0546875 13.6875 0.0546875 C 13.761719 0.0546875 13.800781 0.195312 13.800781 0.480469 C 13.550781 2.558594 13.34375 4.925781 13.175781 7.589844 C 13.007812 10.253906 12.867188 13.097656 12.753906 16.113281 L 12.804688 16.113281 C 13.402344 10.574219 13.988281 7.804688 14.5625 7.804688 C 14.804688 7.804688 14.921875 8.238281 14.921875 9.109375 C 14.890625 9.519531 14.847656 10.054688 14.796875 10.722656 C 14.746094 11.386719 14.675781 12.582031 14.589844 14.304688 C 14.507812 16.027344 14.464844 17.535156 14.464844 18.832031 C 14.464844 20.714844 14.539062 21.65625 14.683594 21.65625 C 14.734375 21.65625 14.785156 21.570312 14.839844 21.402344 C 14.890625 21.234375 14.925781 21.148438 14.945312 21.148438 C 15.011719 21.148438 15.007812 21.34375 14.9375 21.734375 C 14.917969 21.859375 14.878906 22.027344 14.8125 22.242188 C 14.75 22.453125 14.6875 22.5625 14.625 22.5625 C 14.441406 22.5625 14.300781 22.078125 14.199219 21.109375 C 14.097656 20.140625 14.046875 18.886719 14.046875 17.339844 C 14.046875 14.730469 14.152344 12.039062 14.359375 9.269531 C 14.367188 9.003906 14.339844 8.886719 14.273438 8.921875 C 14.242188 8.941406 14.207031 9.011719 14.175781 9.136719 C 13.9375 9.933594 13.695312 11.1875 13.449219 12.890625 Z M 17.21875 7.699219 C 17.578125 7.699219 17.753906 8.488281 17.753906 10.070312 C 17.753906 10.972656 17.675781 11.925781 17.515625 12.917969 C 17.242188 14.570312 16.878906 15.394531 16.429688 15.394531 C 16.355469 15.394531 16.296875 15.351562 16.25 15.261719 C 16.203125 15.175781 16.167969 15.039062 16.144531 14.863281 C 16.480469 14.863281 16.785156 14.136719 17.0625 12.679688 C 17.289062 11.507812 17.402344 10.433594 17.402344 9.457031 C 17.402344 8.726562 17.324219 8.363281 17.167969 8.363281 C 16.859375 8.363281 16.570312 9.277344 16.300781 11.105469 C 16.011719 13.097656 15.871094 15.136719 15.871094 17.234375 C 15.871094 19.007812 16.003906 20.074219 16.273438 20.429688 C 16.324219 20.5 16.390625 20.535156 16.46875 20.535156 C 16.550781 20.535156 16.636719 20.460938 16.722656 20.308594 C 16.8125 20.160156 16.890625 19.976562 16.949219 19.765625 C 17.074219 19.339844 17.175781 18.867188 17.253906 18.351562 C 17.273438 18.210938 17.308594 18.140625 17.359375 18.140625 C 17.445312 18.140625 17.484375 18.191406 17.480469 18.300781 C 17.464844 18.496094 17.414062 18.824219 17.320312 19.285156 C 17.230469 19.746094 17.144531 20.113281 17.066406 20.390625 C 16.988281 20.664062 16.886719 20.914062 16.761719 21.136719 C 16.636719 21.359375 16.511719 21.46875 16.386719 21.46875 C 15.886719 21.46875 15.570312 20.582031 15.433594 18.804688 C 15.390625 18.203125 15.367188 17.578125 15.367188 16.941406 C 15.367188 15.75 15.441406 14.453125 15.585938 13.050781 C 15.816406 10.921875 16.136719 9.386719 16.539062 8.445312 C 16.761719 7.945312 16.988281 7.699219 17.21875 7.699219 Z M 19.964844 7.699219 C 20.324219 7.699219 20.503906 8.488281 20.503906 10.070312 C 20.503906 10.972656 20.421875 11.925781 20.261719 12.917969 C 19.988281 14.570312 19.628906 15.394531 19.175781 15.394531 C 19.105469 15.394531 19.046875 15.351562 19 15.261719 C 18.953125 15.175781 18.917969 15.039062 18.894531 14.863281 C 19.226562 14.863281 19.53125 14.136719 19.8125 12.679688 C 20.035156 11.507812 20.148438 10.433594 20.148438 9.457031 C 20.148438 8.726562 20.070312 8.363281 19.917969 8.363281 C 19.605469 8.363281 19.316406 9.277344 19.046875 11.105469 C 18.761719 13.097656 18.617188 15.136719 18.617188 17.234375 C 18.617188 19.007812 18.75 20.074219 19.019531 20.429688 C 19.070312 20.5 19.136719 20.535156 19.21875 20.535156 C 19.296875 20.535156 19.382812 20.460938 19.472656 20.308594 C 19.5625 20.160156 19.636719 19.976562 19.699219 19.765625 C 19.820312 19.339844 19.921875 18.867188 20 18.351562 C 20.019531 18.210938 20.054688 18.140625 20.109375 18.140625 C 20.191406 18.140625 20.230469 18.191406 20.226562 18.300781 C 20.214844 18.496094 20.160156 18.824219 20.070312 19.285156 C 19.976562 19.746094 19.890625 20.113281 19.8125 20.390625 C 19.738281 20.664062 19.636719 20.914062 19.511719 21.136719 C 19.386719 21.359375 19.261719 21.46875 19.132812 21.46875 C 18.632812 21.46875 18.316406 20.582031 18.179688 18.804688 C 18.136719 18.203125 18.117188 17.578125 18.117188 16.941406 C 18.117188 15.75 18.1875 14.453125 18.335938 13.050781 C 18.566406 10.921875 18.882812 9.386719 19.289062 8.445312 C 19.507812 7.945312 19.734375 7.699219 19.964844 7.699219 Z M 26.722656 8.335938 C 27.285156 9.011719 27.5625 10.742188 27.5625 13.53125 C 27.5625 15.859375 27.300781 18.136719 26.777344 20.363281 C 26.25 22.59375 25.53125 23.707031 24.613281 23.707031 C 23.890625 23.707031 23.421875 22.917969 23.207031 21.335938 C 23.128906 20.804688 23.09375 20.257812 23.09375 19.699219 C 23.09375 19.136719 23.128906 18.566406 23.207031 17.980469 C 23.347656 16.84375 23.550781 16.273438 23.820312 16.273438 C 23.84375 16.273438 23.859375 16.324219 23.871094 16.421875 C 23.878906 16.519531 23.878906 16.621094 23.867188 16.726562 C 23.855469 16.835938 23.835938 16.886719 23.8125 16.886719 C 23.652344 16.886719 23.519531 17.277344 23.410156 18.058594 C 23.335938 18.574219 23.296875 19.0625 23.296875 19.523438 C 23.296875 19.984375 23.328125 20.429688 23.382812 20.855469 C 23.546875 22.0625 23.914062 22.667969 24.484375 22.667969 C 25.199219 22.667969 25.820312 21.53125 26.347656 19.257812 C 26.757812 17.519531 27.011719 15.609375 27.105469 13.53125 C 27.128906 13.035156 27.140625 12.574219 27.140625 12.144531 C 27.140625 10.921875 27.042969 10.007812 26.851562 9.402344 C 26.746094 9.082031 26.621094 8.898438 26.46875 8.84375 C 26.214844 9.25 25.941406 9.457031 25.648438 9.457031 C 25.617188 9.457031 25.601562 9.335938 25.601562 9.097656 C 25.601562 8.855469 25.617188 8.738281 25.648438 8.738281 C 26.125 8.738281 26.542969 7.894531 26.898438 6.207031 C 27.164062 4.945312 27.304688 3.710938 27.324219 2.503906 C 27.3125 1.4375 27.203125 0.878906 26.992188 0.824219 C 26.761719 0.824219 26.515625 1.445312 26.25 2.691406 C 25.988281 3.933594 25.75 5.441406 25.535156 7.21875 C 25.324219 8.996094 25.128906 10.808594 24.953125 12.664062 C 24.777344 14.519531 24.640625 16.109375 24.542969 17.433594 C 24.441406 18.757812 24.394531 19.535156 24.394531 19.765625 C 24.394531 19.996094 24.359375 20.109375 24.292969 20.109375 C 24.152344 20.109375 24.082031 19.398438 24.082031 17.980469 C 24.082031 14.550781 24.183594 11.222656 24.390625 7.992188 C 24.59375 4.757812 24.820312 2.601562 25.070312 1.519531 C 24.398438 1.875 23.851562 2.769531 23.433594 4.207031 C 23.191406 5.007812 23.070312 5.878906 23.070312 6.820312 C 23.070312 7.28125 23.117188 7.511719 23.214844 7.511719 C 23.195312 7.761719 23.144531 7.882812 23.058594 7.882812 C 22.972656 7.882812 22.898438 7.761719 22.835938 7.511719 C 22.773438 7.261719 22.738281 6.917969 22.738281 6.472656 C 22.738281 5.425781 22.910156 4.453125 23.246094 3.554688 C 23.582031 2.660156 23.945312 1.992188 24.335938 1.558594 C 24.726562 1.125 25.058594 0.90625 25.332031 0.90625 C 25.40625 0.90625 25.445312 1.046875 25.445312 1.332031 C 25.140625 4.011719 24.859375 7.929688 24.613281 13.078125 L 24.667969 13.078125 C 24.941406 9.863281 25.265625 6.988281 25.636719 4.449219 C 25.832031 3.082031 26.050781 2.003906 26.292969 1.210938 C 26.53125 0.421875 26.777344 0.0273438 27.027344 0.0273438 C 27.421875 0.0273438 27.65625 0.628906 27.734375 1.839844 C 27.746094 2.085938 27.753906 2.351562 27.753906 2.636719 C 27.753906 3.597656 27.65625 4.621094 27.460938 5.714844 C 27.265625 6.804688 27.019531 7.679688 26.722656 8.335938 Z M 29.980469 7.699219 C 30.335938 7.699219 30.515625 8.488281 30.515625 10.070312 C 30.515625 10.972656 30.4375 11.925781 30.277344 12.917969 C 30.003906 14.570312 29.640625 15.394531 29.1875 15.394531 C 29.117188 15.394531 29.058594 15.351562 29.011719 15.261719 C 28.964844 15.175781 28.929688 15.039062 28.90625 14.863281 C 29.238281 14.863281 29.546875 14.136719 29.824219 12.679688 C 30.050781 11.507812 30.164062 10.433594 30.164062 9.457031 C 30.164062 8.726562 30.085938 8.363281 29.929688 8.363281 C 29.617188 8.363281 29.328125 9.277344 29.0625 11.105469 C 28.773438 13.097656 28.628906 15.136719 28.628906 17.234375 C 28.628906 19.007812 28.765625 20.074219 29.03125 20.429688 C 29.085938 20.5 29.152344 20.535156 29.230469 20.535156 C 29.3125 20.535156 29.394531 20.460938 29.484375 20.308594 C 29.574219 20.160156 29.648438 19.976562 29.710938 19.765625 C 29.832031 19.339844 29.933594 18.867188 30.015625 18.351562 C 30.035156 18.210938 30.070312 18.140625 30.121094 18.140625 C 30.207031 18.140625 30.246094 18.191406 30.242188 18.300781 C 30.226562 18.496094 30.171875 18.824219 30.082031 19.285156 C 29.988281 19.746094 29.90625 20.113281 29.828125 20.390625 C 29.75 20.664062 29.648438 20.914062 29.523438 21.136719 C 29.398438 21.359375 29.273438 21.46875 29.144531 21.46875 C 28.648438 21.46875 28.328125 20.582031 28.191406 18.804688 C 28.148438 18.203125 28.128906 17.578125 28.128906 16.941406 C 28.128906 15.75 28.203125 14.453125 28.347656 13.050781 C 28.578125 10.921875 28.894531 9.386719 29.300781 8.445312 C 29.523438 7.945312 29.75 7.699219 29.980469 7.699219 Z M 31.476562 20.617188 C 31.089844 20.617188 30.898438 19.472656 30.898438 17.179688 C 30.898438 15.8125 30.988281 14.3125 31.164062 12.679688 C 31.414062 10.386719 31.742188 8.824219 32.148438 7.992188 C 32.320312 7.636719 32.484375 7.457031 32.636719 7.457031 C 32.785156 7.457031 32.90625 7.582031 32.992188 7.832031 C 33.078125 8.078125 33.132812 8.328125 33.15625 8.578125 L 33.199219 8.921875 C 33.1875 9.226562 33.144531 9.375 33.078125 9.375 C 33.003906 9.375 32.960938 9.308594 32.949219 9.175781 C 32.9375 9.042969 32.925781 8.925781 32.910156 8.828125 C 32.894531 8.730469 32.863281 8.597656 32.8125 8.429688 C 32.757812 8.261719 32.699219 8.175781 32.636719 8.175781 C 32.328125 8.175781 32.050781 9.214844 31.800781 11.292969 C 31.519531 13.691406 31.378906 15.945312 31.378906 18.058594 C 31.378906 19.125 31.433594 19.65625 31.546875 19.65625 C 31.636719 19.65625 31.761719 19.28125 31.925781 18.527344 C 32.085938 17.769531 32.257812 16.824219 32.4375 15.6875 C 32.746094 13.734375 33 12.039062 33.191406 10.601562 C 33.351562 9.324219 33.519531 8.683594 33.6875 8.683594 C 33.777344 8.683594 33.820312 8.886719 33.820312 9.296875 C 33.777344 9.632812 33.726562 10.113281 33.660156 10.734375 C 33.59375 11.355469 33.507812 12.589844 33.398438 14.4375 C 33.289062 16.285156 33.234375 18.121094 33.234375 19.949219 C 33.234375 21.78125 33.308594 22.695312 33.453125 22.695312 C 33.511719 22.695312 33.5625 22.601562 33.609375 22.414062 C 33.65625 22.226562 33.699219 21.949219 33.738281 21.574219 C 33.75 21.378906 33.785156 21.28125 33.835938 21.28125 C 33.855469 21.28125 33.867188 21.308594 33.878906 21.363281 C 33.886719 21.414062 33.886719 21.503906 33.878906 21.628906 C 33.867188 21.753906 33.851562 21.925781 33.828125 22.148438 C 33.804688 22.371094 33.753906 22.667969 33.675781 23.039062 C 33.597656 23.414062 33.519531 23.601562 33.433594 23.601562 C 33.234375 23.601562 33.082031 23.113281 32.976562 22.136719 C 32.871094 21.15625 32.820312 20.003906 32.820312 18.671875 C 32.820312 17.339844 32.84375 16.0625 32.894531 14.835938 L 32.824219 14.835938 C 32.226562 18.691406 31.777344 20.617188 31.476562 20.617188 Z M 36.730469 22.613281 C 36.789062 22.613281 36.839844 22.519531 36.890625 22.335938 C 36.941406 22.148438 36.984375 21.859375 37.027344 21.46875 C 37.03125 21.308594 37.0625 21.230469 37.113281 21.230469 C 37.164062 21.230469 37.183594 21.308594 37.171875 21.46875 C 37.160156 21.628906 37.140625 21.824219 37.117188 22.054688 C 37.089844 22.285156 37.035156 22.59375 36.953125 22.972656 C 36.871094 23.355469 36.789062 23.546875 36.703125 23.546875 C 36.515625 23.546875 36.367188 23.101562 36.265625 22.214844 C 36.15625 21.328125 36.101562 20.230469 36.101562 18.925781 C 36.101562 17.621094 36.128906 16.273438 36.179688 14.890625 L 36.117188 14.890625 C 35.546875 18.636719 35.109375 20.511719 34.804688 20.511719 C 34.441406 20.511719 34.257812 19.464844 34.257812 17.378906 C 34.257812 15.292969 34.378906 13.210938 34.613281 11.132812 C 34.871094 8.84375 35.101562 7.699219 35.296875 7.699219 C 35.382812 7.699219 35.425781 7.894531 35.425781 8.285156 C 35.226562 10.253906 35.058594 12.171875 34.917969 14.039062 C 34.773438 15.902344 34.703125 17.292969 34.703125 18.207031 C 34.703125 19.121094 34.761719 19.578125 34.875 19.578125 C 34.953125 19.578125 35.074219 19.214844 35.230469 18.484375 C 35.386719 17.757812 35.550781 16.871094 35.714844 15.820312 C 36.066406 13.566406 36.335938 11.648438 36.523438 10.070312 C 36.707031 8.488281 36.902344 7.699219 37.097656 7.699219 C 37.191406 7.699219 37.238281 7.894531 37.238281 8.285156 C 36.9375 10.539062 36.722656 13.230469 36.597656 16.355469 C 36.546875 17.597656 36.519531 18.8125 36.519531 20.003906 C 36.519531 21.746094 36.589844 22.613281 36.730469 22.613281 Z M 38.027344 9.082031 C 37.84375 9.082031 37.753906 8.800781 37.753906 8.230469 C 37.753906 8.015625 37.777344 7.882812 37.824219 7.832031 C 37.828125 7.8125 37.835938 7.804688 37.84375 7.804688 C 37.875 7.929688 37.925781 7.992188 38.003906 7.992188 C 38.082031 7.992188 38.207031 7.972656 38.375 7.9375 C 38.597656 5.683594 38.808594 4.554688 39.011719 4.554688 C 39.089844 4.554688 39.128906 4.722656 39.128906 5.0625 C 39.054688 5.769531 38.96875 6.6875 38.875 7.804688 C 39.34375 7.609375 39.644531 7.511719 39.789062 7.511719 C 39.824219 7.511719 39.84375 7.582031 39.84375 7.722656 C 39.84375 8.007812 39.792969 8.152344 39.695312 8.152344 C 39.644531 8.152344 39.34375 8.335938 38.796875 8.710938 C 38.425781 13.148438 38.242188 16.746094 38.242188 19.496094 C 38.242188 22.25 38.386719 23.625 38.679688 23.625 C 38.796875 23.625 38.90625 23.4375 39.011719 23.054688 C 39.113281 22.671875 39.1875 22.292969 39.230469 21.921875 C 39.25 21.726562 39.289062 21.671875 39.351562 21.761719 C 39.378906 21.796875 39.386719 21.851562 39.378906 21.921875 C 39.351562 22.152344 39.3125 22.417969 39.273438 22.722656 C 39.230469 23.023438 39.148438 23.394531 39.023438 23.839844 C 38.902344 24.285156 38.777344 24.503906 38.652344 24.503906 C 38.089844 24.503906 37.808594 22.667969 37.808594 18.992188 C 37.808594 15.882812 37.964844 12.5625 38.269531 9.03125 C 38.203125 9.066406 38.125 9.082031 38.027344 9.082031 Z M 39.84375 28.953125 C 40.269531 28.953125 40.601562 28.199219 40.839844 26.691406 C 41.046875 25.359375 41.207031 23.699219 41.320312 21.707031 C 40.46875 21.78125 39.8125 23.003906 39.355469 25.382812 C 39.328125 25.542969 39.285156 25.570312 39.222656 25.464844 C 39.191406 25.394531 39.179688 25.304688 39.195312 25.199219 C 39.398438 24.042969 39.679688 23.0625 40.042969 22.253906 C 40.40625 21.445312 40.84375 21.007812 41.363281 20.9375 C 41.414062 20.046875 41.464844 19.007812 41.511719 17.820312 C 41.558594 16.628906 41.613281 15.476562 41.671875 14.355469 L 41.609375 14.355469 C 40.996094 18.460938 40.53125 20.511719 40.210938 20.511719 C 39.851562 20.511719 39.675781 19.472656 39.675781 17.394531 C 39.675781 15.316406 39.792969 13.226562 40.027344 11.121094 C 40.261719 9.015625 40.476562 7.882812 40.671875 7.722656 L 40.710938 7.699219 C 40.792969 7.699219 40.832031 7.894531 40.832031 8.285156 C 40.78125 8.761719 40.714844 9.390625 40.636719 10.160156 C 40.554688 10.933594 40.449219 12.203125 40.316406 13.972656 C 40.183594 15.738281 40.121094 17.113281 40.121094 18.097656 C 40.121094 19.085938 40.175781 19.578125 40.289062 19.578125 C 40.421875 19.578125 40.632812 18.714844 40.925781 16.992188 C 41.351562 14.472656 41.726562 11.914062 42.039062 9.324219 C 42.175781 8.238281 42.324219 7.699219 42.476562 7.699219 C 42.578125 7.699219 42.625 7.902344 42.625 8.308594 C 42.539062 8.933594 42.429688 10.09375 42.300781 11.800781 C 42.175781 13.503906 42.070312 15.222656 41.992188 16.953125 C 41.910156 18.683594 41.84375 20.039062 41.785156 21.015625 C 42.144531 21.246094 42.351562 21.832031 42.40625 22.773438 C 42.417969 22.933594 42.421875 23.152344 42.421875 23.425781 C 42.421875 23.703125 42.394531 23.941406 42.335938 24.144531 C 42.28125 24.351562 42.230469 24.453125 42.1875 24.453125 C 42.199219 24.328125 42.199219 24.109375 42.195312 23.800781 C 42.191406 23.488281 42.175781 23.226562 42.148438 23.015625 C 42.125 22.800781 42.074219 22.578125 42.003906 22.347656 C 41.933594 22.117188 41.84375 21.949219 41.730469 21.84375 C 41.367188 26.992188 40.738281 29.566406 39.84375 29.566406 C 39.457031 29.566406 39.203125 29.050781 39.074219 28.019531 C 39.070312 27.96875 39.066406 27.921875 39.066406 27.886719 C 39.066406 27.78125 39.09375 27.714844 39.140625 27.6875 C 39.191406 27.660156 39.226562 27.71875 39.25 27.863281 C 39.335938 28.589844 39.535156 28.953125 39.84375 28.953125 Z M 45.167969 21.707031 C 45.167969 23.023438 45.351562 23.8125 45.71875 24.078125 C 45.789062 24.132812 45.871094 24.160156 45.960938 24.160156 C 46.550781 24.160156 47.015625 23.445312 47.359375 22.015625 C 47.703125 20.585938 47.875 18.789062 47.875 16.621094 C 47.875 15.769531 47.832031 14.984375 47.75 14.265625 C 47.667969 13.542969 47.566406 12.949219 47.445312 12.480469 C 47.320312 12.007812 47.1875 11.535156 47.042969 11.054688 C 46.902344 10.574219 46.769531 10.140625 46.644531 9.75 C 46.523438 9.359375 46.421875 8.886719 46.339844 8.335938 C 46.253906 7.785156 46.214844 7.199219 46.214844 6.578125 C 46.214844 4.945312 46.410156 3.441406 46.796875 2.0625 C 47.1875 0.6875 47.605469 0 48.050781 0 C 48.140625 0 48.207031 0.125 48.25 0.371094 C 48.292969 0.621094 48.3125 0.871094 48.3125 1.117188 L 48.304688 1.464844 C 48.273438 1.394531 48.191406 1.359375 48.058594 1.359375 C 47.757812 1.359375 47.464844 1.890625 47.183594 2.957031 C 46.898438 4.023438 46.757812 5.257812 46.757812 6.660156 C 46.757812 7.226562 46.800781 7.78125 46.882812 8.324219 C 46.964844 8.867188 47.066406 9.339844 47.1875 9.75 C 47.3125 10.15625 47.445312 10.613281 47.585938 11.121094 C 47.726562 11.625 47.859375 12.125 47.980469 12.613281 C 48.101562 13.101562 48.207031 13.695312 48.289062 14.398438 C 48.371094 15.097656 48.410156 15.839844 48.410156 16.621094 C 48.410156 18.769531 48.175781 20.679688 47.703125 22.347656 C 47.234375 24.015625 46.652344 24.851562 45.960938 24.851562 C 45.375 24.851562 45.007812 24.140625 44.851562 22.722656 C 44.730469 21.546875 44.777344 20.253906 44.992188 18.832031 C 45.210938 17.410156 45.523438 16.453125 45.933594 15.957031 C 46.082031 15.777344 46.21875 15.6875 46.335938 15.6875 C 46.453125 15.6875 46.535156 15.765625 46.578125 15.914062 C 46.625 16.066406 46.652344 16.300781 46.667969 16.621094 C 46.222656 16.621094 45.84375 17.296875 45.53125 18.644531 C 45.289062 19.65625 45.167969 20.679688 45.167969 21.707031 Z M 48.445312 6.980469 C 48.445312 7.066406 48.425781 7.113281 48.378906 7.113281 C 48.335938 7.113281 48.292969 7.078125 48.253906 7.003906 C 48.21875 6.933594 48.199219 6.835938 48.199219 6.710938 C 48.199219 4.902344 48.253906 3.445312 48.363281 2.34375 C 48.46875 1.242188 48.613281 0.691406 48.792969 0.691406 C 48.839844 0.691406 48.878906 0.753906 48.914062 0.878906 C 48.945312 1.003906 48.960938 1.164062 48.960938 1.359375 C 48.75 2.15625 48.597656 3.355469 48.503906 4.953125 C 48.464844 5.59375 48.445312 6.269531 48.445312 6.980469 Z M 51.253906 12.332031 C 51.410156 11.390625 51.488281 10.507812 51.488281 9.683594 C 51.488281 8.855469 51.421875 8.445312 51.285156 8.445312 C 51.117188 8.445312 50.933594 8.988281 50.722656 10.082031 C 50.511719 11.175781 50.328125 12.414062 50.164062 13.796875 C 50 15.183594 49.863281 16.464844 49.75 17.648438 C 49.636719 18.828125 49.582031 19.542969 49.582031 19.789062 C 49.578125 20.003906 49.542969 20.109375 49.484375 20.109375 C 49.339844 20.109375 49.269531 19.398438 49.269531 17.980469 C 49.269531 15.15625 49.347656 12.320312 49.496094 9.46875 C 49.648438 6.617188 49.828125 4.335938 50.035156 2.625 C 50.242188 0.910156 50.433594 0.0546875 50.613281 0.0546875 C 50.6875 0.0546875 50.726562 0.195312 50.726562 0.480469 C 50.476562 2.558594 50.257812 5.085938 50.074219 8.070312 C 49.925781 10.378906 49.796875 12.855469 49.695312 15.503906 L 49.75 15.503906 C 50.289062 10.300781 50.824219 7.699219 51.363281 7.699219 C 51.695312 7.699219 51.863281 8.417969 51.863281 9.855469 C 51.863281 10.777344 51.773438 11.753906 51.589844 12.785156 C 51.410156 13.816406 51.179688 14.5 50.902344 14.835938 C 50.957031 15.03125 51.074219 16.25 51.25 18.484375 C 51.308594 19.285156 51.394531 20.011719 51.503906 20.667969 C 51.609375 21.328125 51.726562 21.65625 51.851562 21.65625 C 51.976562 21.65625 52.070312 21.488281 52.132812 21.148438 C 52.160156 21.148438 52.171875 21.195312 52.171875 21.28125 C 52.171875 21.371094 52.160156 21.503906 52.136719 21.683594 C 52.035156 22.214844 51.90625 22.507812 51.757812 22.5625 C 51.5625 22.5625 51.382812 22.1875 51.214844 21.441406 C 51.042969 20.695312 50.910156 19.878906 50.816406 18.992188 C 50.722656 18.105469 50.636719 17.21875 50.554688 16.339844 C 50.46875 15.460938 50.417969 14.96875 50.402344 14.863281 C 50.367188 14.773438 50.347656 14.667969 50.335938 14.542969 C 50.710938 14.542969 51.015625 13.804688 51.253906 12.332031 Z M 52.484375 18.351562 C 52.484375 15.722656 52.554688 13.378906 52.699219 11.320312 C 52.84375 9.261719 53.027344 8.230469 53.246094 8.230469 C 53.355469 8.230469 53.410156 8.453125 53.410156 8.898438 C 53.363281 9.359375 53.304688 9.972656 53.234375 10.734375 C 53.164062 11.496094 53.070312 12.878906 52.953125 14.875 C 52.839844 16.875 52.78125 18.65625 52.78125 20.21875 C 52.78125 20.464844 52.746094 20.589844 52.675781 20.589844 C 52.546875 20.589844 52.484375 19.84375 52.484375 18.351562 Z M 53.515625 5.273438 L 53.429688 5.726562 C 53.332031 5.726562 53.28125 5.371094 53.28125 4.660156 C 53.28125 4.234375 53.3125 3.785156 53.375 3.316406 C 53.4375 2.84375 53.523438 2.609375 53.636719 2.609375 C 53.730469 2.609375 53.777344 2.816406 53.777344 3.222656 C 53.777344 3.632812 53.691406 4.316406 53.515625 5.273438 Z M 54.320312 16.300781 L 54.382812 16.300781 C 54.992188 10.636719 55.582031 7.804688 56.15625 7.804688 C 56.398438 7.804688 56.515625 8.238281 56.515625 9.109375 C 56.484375 9.519531 56.441406 10.054688 56.390625 10.722656 C 56.339844 11.386719 56.269531 12.582031 56.183594 14.304688 C 56.09375 16.027344 56.050781 17.535156 56.050781 18.832031 C 56.050781 20.714844 56.125 21.65625 56.269531 21.65625 C 56.328125 21.65625 56.378906 21.570312 56.433594 21.402344 C 56.484375 21.234375 56.519531 21.148438 56.539062 21.148438 C 56.605469 21.148438 56.605469 21.34375 56.539062 21.734375 C 56.515625 21.859375 56.472656 22.027344 56.40625 22.242188 C 56.34375 22.453125 56.28125 22.5625 56.214844 22.5625 C 56.035156 22.5625 55.894531 22.078125 55.792969 21.109375 C 55.691406 20.140625 55.640625 18.886719 55.640625 17.339844 C 55.640625 14.890625 55.742188 12.199219 55.945312 9.269531 C 55.964844 9.039062 55.945312 8.921875 55.890625 8.921875 C 55.851562 8.921875 55.808594 8.996094 55.761719 9.136719 C 55.535156 9.882812 55.296875 11.117188 55.046875 12.839844 C 54.796875 14.5625 54.601562 16.101562 54.460938 17.460938 C 54.320312 18.820312 54.25 19.609375 54.25 19.832031 C 54.25 20.054688 54.21875 20.164062 54.152344 20.164062 C 54 20.164062 53.925781 19.460938 53.925781 18.058594 C 53.925781 15.414062 53.996094 13.015625 54.140625 10.867188 C 54.285156 8.71875 54.457031 7.644531 54.660156 7.644531 C 54.746094 7.644531 54.785156 7.839844 54.785156 8.230469 C 54.570312 10.875 54.414062 13.566406 54.320312 16.300781 Z M 61.09375 6.925781 C 61.09375 6.996094 61.074219 7.039062 61.035156 7.058594 C 60.992188 7.078125 60.953125 7.050781 60.914062 6.980469 C 60.875 6.90625 60.855469 6.808594 60.855469 6.6875 C 60.855469 4.875 60.90625 3.414062 61.015625 2.304688 C 61.125 1.195312 61.265625 0.640625 61.441406 0.640625 C 61.488281 0.640625 61.527344 0.703125 61.558594 0.824219 C 61.59375 0.949219 61.609375 1.117188 61.609375 1.332031 C 61.394531 2.148438 61.238281 3.339844 61.148438 4.902344 C 61.113281 5.539062 61.09375 6.214844 61.09375 6.925781 Z M 60.671875 1.277344 C 60.019531 1.277344 59.4375 2.707031 58.925781 5.566406 C 58.484375 8.035156 58.195312 10.910156 58.058594 14.195312 C 58.011719 15.28125 57.984375 16.273438 57.984375 17.179688 C 57.984375 18.921875 58.070312 20.320312 58.242188 21.375 C 58.410156 22.433594 58.648438 22.960938 58.953125 22.960938 C 59.367188 22.960938 59.722656 22.0625 60.011719 20.269531 C 60.210938 19.0625 60.308594 17.996094 60.308594 17.074219 C 60.308594 16.664062 60.28125 16.460938 60.226562 16.460938 C 60.253906 16.054688 60.324219 15.847656 60.4375 15.847656 C 60.570312 15.847656 60.636719 16.203125 60.636719 16.914062 C 60.636719 18.246094 60.480469 19.667969 60.167969 21.175781 C 59.796875 22.96875 59.359375 23.867188 58.863281 23.867188 C 58.234375 23.867188 57.8125 22.683594 57.589844 20.324219 C 57.484375 19.222656 57.429688 17.976562 57.429688 16.582031 C 57.429688 15.1875 57.488281 13.628906 57.613281 11.90625 C 57.847656 8.496094 58.242188 5.664062 58.800781 3.410156 C 59.359375 1.152344 59.976562 0.0195312 60.65625 0 C 60.75 0 60.820312 0.117188 60.859375 0.347656 C 60.902344 0.578125 60.921875 0.800781 60.917969 1.011719 L 60.917969 1.359375 C 60.878906 1.304688 60.796875 1.277344 60.671875 1.277344 Z M 61.867188 20.617188 C 61.484375 20.617188 61.289062 19.472656 61.289062 17.179688 C 61.289062 15.8125 61.378906 14.3125 61.558594 12.679688 C 61.808594 10.386719 62.136719 8.824219 62.539062 7.992188 C 62.714844 7.636719 62.875 7.457031 63.027344 7.457031 C 63.179688 7.457031 63.296875 7.582031 63.382812 7.832031 C 63.472656 8.078125 63.527344 8.328125 63.550781 8.578125 L 63.59375 8.921875 C 63.578125 9.226562 63.539062 9.375 63.472656 9.375 C 63.398438 9.375 63.351562 9.308594 63.339844 9.175781 C 63.328125 9.042969 63.316406 8.925781 63.300781 8.828125 C 63.289062 8.730469 63.253906 8.597656 63.203125 8.429688 C 63.152344 8.261719 63.09375 8.175781 63.027344 8.175781 C 62.722656 8.175781 62.445312 9.214844 62.195312 11.292969 C 61.910156 13.691406 61.769531 15.945312 61.769531 18.058594 C 61.769531 19.125 61.828125 19.65625 61.941406 19.65625 C 62.027344 19.65625 62.15625 19.28125 62.316406 18.527344 C 62.480469 17.769531 62.652344 16.824219 62.828125 15.6875 C 63.140625 13.734375 63.390625 12.039062 63.585938 10.601562 C 63.746094 9.324219 63.910156 8.683594 64.078125 8.683594 C 64.167969 8.683594 64.214844 8.886719 64.214844 9.296875 C 64.171875 9.632812 64.117188 10.113281 64.050781 10.734375 C 63.984375 11.355469 63.898438 12.589844 63.789062 14.4375 C 63.683594 16.285156 63.628906 18.121094 63.628906 19.949219 C 63.628906 21.78125 63.699219 22.695312 63.847656 22.695312 C 63.902344 22.695312 63.953125 22.601562 64 22.414062 C 64.050781 22.226562 64.089844 21.949219 64.128906 21.574219 C 64.144531 21.378906 64.175781 21.28125 64.226562 21.28125 C 64.246094 21.28125 64.261719 21.308594 64.269531 21.363281 C 64.28125 21.414062 64.28125 21.503906 64.269531 21.628906 C 64.261719 21.753906 64.246094 21.925781 64.222656 22.148438 C 64.199219 22.371094 64.148438 22.667969 64.070312 23.039062 C 63.992188 23.414062 63.910156 23.601562 63.824219 23.601562 C 63.628906 23.601562 63.476562 23.113281 63.371094 22.136719 C 63.265625 21.15625 63.210938 20.003906 63.210938 18.671875 C 63.210938 17.339844 63.238281 16.0625 63.289062 14.835938 L 63.21875 14.835938 C 62.621094 18.691406 62.171875 20.617188 61.867188 20.617188 Z M 66.898438 12.972656 C 66.71875 12.972656 66.628906 12.234375 66.628906 10.761719 C 66.628906 9.925781 66.671875 9.144531 66.757812 8.417969 C 66.4375 9.464844 66.078125 11.414062 65.683594 14.265625 C 65.289062 17.113281 65.089844 18.972656 65.089844 19.84375 C 65.089844 20.058594 65.050781 20.164062 64.976562 20.164062 C 64.839844 20.164062 64.773438 19.460938 64.773438 18.058594 C 64.773438 15.414062 64.84375 13.015625 64.984375 10.867188 C 65.125 8.71875 65.296875 7.644531 65.5 7.644531 C 65.589844 7.644531 65.632812 7.839844 65.632812 8.230469 C 65.417969 10.824219 65.261719 13.476562 65.167969 16.195312 L 65.214844 16.195312 C 65.597656 12.875 66.019531 10.28125 66.480469 8.417969 C 66.746094 7.351562 66.984375 6.820312 67.203125 6.820312 C 67.25 6.820312 67.289062 6.871094 67.316406 6.980469 C 67.347656 7.085938 67.363281 7.21875 67.363281 7.378906 C 67.332031 7.503906 67.289062 7.6875 67.242188 7.9375 C 67.195312 8.1875 67.132812 8.777344 67.054688 9.707031 C 66.972656 10.640625 66.933594 11.65625 66.933594 12.757812 C 66.933594 12.902344 66.921875 12.972656 66.898438 12.972656 Z M 69.199219 7.699219 C 69.558594 7.699219 69.738281 8.488281 69.738281 10.070312 C 69.738281 10.972656 69.65625 11.925781 69.496094 12.917969 C 69.222656 14.570312 68.859375 15.394531 68.410156 15.394531 C 68.339844 15.394531 68.28125 15.351562 68.234375 15.261719 C 68.183594 15.175781 68.148438 15.039062 68.125 14.863281 C 68.460938 14.863281 68.765625 14.136719 69.042969 12.679688 C 69.269531 11.507812 69.382812 10.433594 69.382812 9.457031 C 69.382812 8.726562 69.304688 8.363281 69.152344 8.363281 C 68.839844 8.363281 68.550781 9.277344 68.28125 11.105469 C 67.996094 13.097656 67.851562 15.136719 67.851562 17.234375 C 67.851562 19.007812 67.984375 20.074219 68.253906 20.429688 C 68.304688 20.5 68.371094 20.535156 68.453125 20.535156 C 68.53125 20.535156 68.617188 20.460938 68.707031 20.308594 C 68.796875 20.160156 68.871094 19.976562 68.933594 19.765625 C 69.054688 19.339844 69.15625 18.867188 69.234375 18.351562 C 69.253906 18.210938 69.289062 18.140625 69.339844 18.140625 C 69.425781 18.140625 69.464844 18.191406 69.460938 18.300781 C 69.445312 18.496094 69.394531 18.824219 69.300781 19.285156 C 69.210938 19.746094 69.125 20.113281 69.046875 20.390625 C 68.96875 20.664062 68.871094 20.914062 68.746094 21.136719 C 68.621094 21.359375 68.492188 21.46875 68.367188 21.46875 C 67.867188 21.46875 67.550781 20.582031 67.414062 18.804688 C 67.371094 18.203125 67.351562 17.578125 67.351562 16.941406 C 67.351562 15.75 67.421875 14.453125 67.570312 13.050781 C 67.800781 10.921875 68.117188 9.386719 68.523438 8.445312 C 68.742188 7.945312 68.96875 7.699219 69.199219 7.699219 Z M 69.199219 7.699219 "/>
</g>
<g clip-path="url(#clip3)" clip-rule="nonzero">
<path style=" stroke:none;fill-rule:nonzero;fill:rgb(69.411765%,61.568627%,81.568627%);fill-opacity:1;" d="M 4.820312 52.628906 C 4.867188 52.628906 4.902344 52.707031 4.929688 52.863281 C 4.953125 53.023438 4.96875 53.238281 4.96875 53.511719 C 4.96875 54.023438 4.933594 54.429688 4.867188 54.730469 C 4.703125 55.488281 4.535156 56.074219 4.363281 56.484375 C 4.191406 56.898438 3.992188 57.105469 3.757812 57.105469 C 3.535156 57.105469 3.34375 56.878906 3.183594 56.417969 C 3.027344 55.960938 2.875 55.175781 2.734375 54.0625 C 2.617188 53.171875 2.527344 52.515625 2.460938 52.085938 C 2.398438 51.664062 2.332031 51.359375 2.269531 51.175781 C 2.203125 50.992188 2.125 50.882812 2.03125 50.84375 C 2.015625 51.117188 1.976562 51.980469 1.910156 53.433594 C 1.882812 54.089844 1.867188 54.488281 1.859375 54.632812 C 1.824219 55.429688 1.753906 56.042969 1.652344 56.464844 C 1.546875 56.894531 1.386719 57.105469 1.175781 57.105469 C 0.945312 57.105469 0.738281 56.847656 0.558594 56.328125 C 0.382812 55.8125 0.242188 55.09375 0.144531 54.167969 C 0.046875 53.246094 0 52.195312 0 51.019531 C 0 48.820312 0.101562 46.921875 0.304688 45.324219 C 0.507812 43.726562 0.792969 42.503906 1.160156 41.660156 C 1.523438 40.816406 1.949219 40.394531 2.425781 40.394531 C 2.757812 40.394531 3.039062 40.585938 3.265625 40.964844 C 3.492188 41.34375 3.65625 41.867188 3.769531 42.535156 C 3.875 43.203125 3.929688 43.957031 3.929688 44.792969 C 3.929688 45.527344 3.886719 46.242188 3.792969 46.941406 C 3.703125 47.644531 3.5625 48.261719 3.378906 48.800781 C 3.195312 49.335938 2.972656 49.734375 2.707031 49.996094 C 2.875 50.167969 3.003906 50.441406 3.09375 50.824219 C 3.183594 51.203125 3.273438 51.757812 3.363281 52.492188 C 3.460938 53.277344 3.558594 53.851562 3.652344 54.21875 C 3.75 54.585938 3.859375 54.769531 3.984375 54.769531 C 4.09375 54.769531 4.199219 54.628906 4.300781 54.34375 C 4.402344 54.066406 4.527344 53.585938 4.679688 52.902344 C 4.722656 52.71875 4.769531 52.628906 4.820312 52.628906 Z M 1.171875 53.769531 L 1.3125 50.824219 C 1.195312 50.824219 1.113281 50.71875 1.070312 50.507812 C 1.027344 50.296875 1.003906 50.0625 1.003906 49.800781 C 1.003906 49.488281 1.03125 49.238281 1.085938 49.054688 C 1.140625 48.871094 1.199219 48.78125 1.269531 48.78125 L 1.402344 48.78125 C 1.457031 47.496094 1.507812 46.390625 1.558594 45.460938 C 1.601562 44.609375 1.746094 44.183594 1.996094 44.183594 C 2.191406 44.183594 2.289062 44.519531 2.289062 45.1875 C 2.289062 45.332031 2.289062 45.441406 2.285156 45.519531 L 2.128906 48.78125 C 2.316406 48.742188 2.488281 48.570312 2.644531 48.269531 C 2.796875 47.96875 2.921875 47.550781 3.011719 47.011719 C 3.105469 46.476562 3.148438 45.867188 3.148438 45.1875 C 3.148438 44.363281 3.074219 43.714844 2.925781 43.242188 C 2.777344 42.769531 2.558594 42.535156 2.269531 42.535156 C 1.929688 42.535156 1.632812 42.851562 1.378906 43.484375 C 1.121094 44.121094 0.921875 45.066406 0.78125 46.3125 C 0.640625 47.566406 0.566406 49.085938 0.566406 50.882812 C 0.566406 51.71875 0.589844 52.4375 0.636719 53.042969 C 0.679688 53.644531 0.734375 54.09375 0.800781 54.394531 C 0.867188 54.699219 0.929688 54.847656 0.988281 54.847656 C 1.035156 54.847656 1.070312 54.761719 1.101562 54.59375 C 1.132812 54.421875 1.152344 54.148438 1.171875 53.769531 Z M 5.207031 57.105469 C 4.992188 57.105469 4.820312 56.8125 4.695312 56.222656 C 4.566406 55.632812 4.5 54.859375 4.5 53.90625 C 4.5 52.859375 4.566406 51.867188 4.695312 50.929688 C 4.820312 49.992188 4.992188 49.242188 5.207031 48.671875 C 5.417969 48.101562 5.644531 47.816406 5.886719 47.816406 C 5.960938 47.816406 6.011719 47.871094 6.039062 47.984375 C 6.066406 48.09375 6.085938 48.296875 6.105469 48.582031 C 6.175781 48.53125 6.253906 48.503906 6.332031 48.503906 C 6.503906 48.503906 6.589844 48.734375 6.589844 49.191406 C 6.589844 49.46875 6.5625 50.121094 6.511719 51.15625 C 6.429688 52.660156 6.390625 53.707031 6.390625 54.296875 C 6.390625 54.496094 6.402344 54.652344 6.429688 54.769531 C 6.457031 54.886719 6.488281 54.945312 6.53125 54.945312 C 6.597656 54.945312 6.675781 54.785156 6.769531 54.464844 C 6.863281 54.144531 6.992188 53.625 7.152344 52.902344 C 7.191406 52.71875 7.238281 52.628906 7.292969 52.628906 C 7.335938 52.628906 7.371094 52.707031 7.398438 52.863281 C 7.425781 53.023438 7.4375 53.238281 7.4375 53.511719 C 7.4375 54.035156 7.40625 54.441406 7.339844 54.730469 C 7.195312 55.398438 7.046875 55.960938 6.886719 56.417969 C 6.726562 56.878906 6.570312 57.105469 6.421875 57.105469 C 6.308594 57.105469 6.203125 56.957031 6.105469 56.664062 C 6.011719 56.367188 5.941406 55.96875 5.890625 55.457031 C 5.710938 56.554688 5.484375 57.105469 5.207031 57.105469 Z M 5.394531 55.121094 C 5.472656 55.121094 5.546875 54.953125 5.613281 54.613281 C 5.683594 54.273438 5.734375 53.820312 5.765625 53.257812 L 5.957031 49.644531 C 5.8125 49.65625 5.679688 49.863281 5.554688 50.261719 C 5.433594 50.660156 5.332031 51.1875 5.261719 51.84375 C 5.1875 52.496094 5.152344 53.191406 5.152344 53.925781 C 5.152344 54.332031 5.171875 54.632812 5.214844 54.828125 C 5.261719 55.023438 5.320312 55.121094 5.394531 55.121094 Z M 9.921875 52.628906 C 9.96875 52.628906 10.003906 52.707031 10.027344 52.863281 C 10.054688 53.023438 10.066406 53.238281 10.066406 53.511719 C 10.066406 54.035156 10.035156 54.441406 9.96875 54.730469 C 9.820312 55.425781 9.660156 55.992188 9.488281 56.4375 C 9.316406 56.882812 9.121094 57.105469 8.902344 57.105469 C 8.71875 57.105469 8.566406 56.855469 8.453125 56.359375 C 8.253906 56.84375 8.050781 57.09375 7.835938 57.105469 C 7.789062 59.632812 7.6875 61.746094 7.527344 63.441406 C 7.367188 65.136719 7.132812 65.980469 6.824219 65.980469 C 6.636719 65.980469 6.496094 65.726562 6.40625 65.214844 C 6.316406 64.707031 6.273438 64 6.273438 63.09375 C 6.273438 61.8125 6.351562 60.316406 6.507812 58.609375 C 6.664062 56.902344 6.902344 55.019531 7.230469 52.960938 C 7.230469 51.050781 7.226562 49.722656 7.21875 48.976562 C 7.214844 48.597656 7.257812 48.296875 7.339844 48.074219 C 7.421875 47.851562 7.527344 47.738281 7.652344 47.738281 C 7.726562 47.738281 7.777344 47.792969 7.8125 47.90625 C 7.84375 48.015625 7.863281 48.238281 7.867188 48.5625 C 7.867188 48.890625 7.867188 49.132812 7.871094 49.289062 C 7.980469 48.765625 8.089844 48.390625 8.199219 48.160156 C 8.304688 47.933594 8.421875 47.816406 8.542969 47.816406 C 8.738281 47.816406 8.894531 48.113281 9.019531 48.703125 C 9.140625 49.289062 9.203125 50.0625 9.203125 51.019531 C 9.203125 51.710938 9.175781 52.386719 9.113281 53.042969 C 9.054688 53.695312 8.972656 54.292969 8.871094 54.828125 C 8.941406 54.90625 9.003906 54.945312 9.050781 54.945312 C 9.167969 54.945312 9.277344 54.789062 9.378906 54.476562 C 9.484375 54.160156 9.617188 53.636719 9.78125 52.902344 C 9.824219 52.71875 9.871094 52.628906 9.921875 52.628906 Z M 7.859375 55.222656 C 7.984375 55.117188 8.101562 54.855469 8.207031 54.445312 C 8.3125 54.03125 8.394531 53.523438 8.457031 52.910156 C 8.519531 52.304688 8.550781 51.667969 8.550781 51 C 8.550781 50.605469 8.53125 50.308594 8.488281 50.109375 C 8.449219 49.902344 8.394531 49.800781 8.324219 49.800781 C 8.199219 49.800781 8.046875 50.296875 7.871094 51.292969 C 7.867188 51.871094 7.867188 52.714844 7.867188 53.828125 C 7.867188 54.429688 7.863281 54.894531 7.859375 55.222656 Z M 6.867188 64.058594 C 6.960938 64.058594 7.039062 63.289062 7.101562 61.753906 C 7.164062 60.210938 7.203125 58.296875 7.21875 56.007812 C 7.070312 57.316406 6.953125 58.566406 6.867188 59.757812 C 6.777344 60.949219 6.734375 61.949219 6.734375 62.761719 C 6.734375 63.179688 6.75 63.5 6.773438 63.722656 C 6.800781 63.945312 6.832031 64.058594 6.867188 64.058594 Z M 12.664062 52.628906 C 12.707031 52.628906 12.742188 52.707031 12.769531 52.863281 C 12.796875 53.023438 12.808594 53.238281 12.808594 53.511719 C 12.808594 54.035156 12.777344 54.441406 12.710938 54.730469 C 12.550781 55.425781 12.386719 55.992188 12.21875 56.4375 C 12.050781 56.882812 11.859375 57.105469 11.640625 57.105469 C 11.464844 57.105469 11.332031 56.914062 11.242188 56.523438 C 11.152344 56.140625 11.105469 55.582031 11.105469 54.847656 C 11.105469 54.480469 11.128906 53.828125 11.179688 52.882812 C 11.222656 52.058594 11.246094 51.488281 11.246094 51.175781 C 11.246094 50.964844 11.226562 50.863281 11.1875 50.863281 C 11.144531 50.863281 11.078125 51.082031 10.996094 51.515625 C 10.914062 51.957031 10.828125 52.539062 10.746094 53.257812 C 10.664062 53.976562 10.597656 54.738281 10.542969 55.535156 C 10.476562 56.582031 10.316406 57.105469 10.054688 57.105469 C 9.949219 57.105469 9.882812 56.964844 9.847656 56.683594 C 9.816406 56.402344 9.800781 55.894531 9.800781 55.160156 C 9.800781 54.742188 9.800781 54.410156 9.804688 54.160156 L 9.808594 52.589844 C 9.808594 50.574219 9.863281 48.472656 9.972656 46.285156 C 10.082031 44.101562 10.242188 42.261719 10.457031 40.777344 C 10.671875 39.292969 10.925781 38.550781 11.226562 38.550781 C 11.386719 38.550781 11.515625 38.808594 11.613281 39.324219 C 11.710938 39.839844 11.761719 40.511719 11.761719 41.335938 C 11.761719 42.660156 11.660156 44.03125 11.453125 45.449219 C 11.25 46.871094 10.917969 48.53125 10.457031 50.429688 C 10.445312 51.109375 10.441406 51.8125 10.441406 52.53125 C 10.554688 51.417969 10.679688 50.511719 10.820312 49.8125 C 10.960938 49.109375 11.101562 48.609375 11.238281 48.308594 C 11.375 48.007812 11.5 47.855469 11.617188 47.855469 C 11.84375 47.855469 11.953125 48.28125 11.953125 49.132812 C 11.953125 49.644531 11.917969 50.566406 11.839844 51.902344 C 11.773438 53.042969 11.742188 53.792969 11.742188 54.160156 C 11.742188 54.683594 11.792969 54.945312 11.890625 54.945312 C 11.960938 54.945312 12.042969 54.785156 12.140625 54.464844 C 12.234375 54.144531 12.363281 53.625 12.523438 52.902344 C 12.5625 52.71875 12.609375 52.628906 12.664062 52.628906 Z M 11.117188 40.492188 C 11.054688 40.492188 10.984375 40.828125 10.90625 41.503906 C 10.832031 42.179688 10.757812 43.089844 10.6875 44.234375 C 10.617188 45.378906 10.558594 46.625 10.511719 47.976562 C 10.726562 47.019531 10.90625 45.980469 11.046875 44.851562 C 11.1875 43.726562 11.257812 42.707031 11.257812 41.789062 C 11.257812 41.371094 11.246094 41.050781 11.21875 40.828125 C 11.195312 40.605469 11.160156 40.492188 11.117188 40.492188 Z M 14.835938 52.628906 C 14.878906 52.628906 14.914062 52.707031 14.941406 52.863281 C 14.96875 53.023438 14.980469 53.238281 14.980469 53.511719 C 14.980469 54.035156 14.949219 54.441406 14.882812 54.730469 C 14.753906 55.320312 14.574219 55.863281 14.339844 56.359375 C 14.105469 56.855469 13.851562 57.105469 13.585938 57.105469 C 13.222656 57.105469 12.9375 56.734375 12.738281 55.988281 C 12.535156 55.242188 12.433594 54.21875 12.433594 52.921875 C 12.433594 52.019531 12.484375 51.179688 12.585938 50.402344 C 12.6875 49.621094 12.828125 49.003906 13.003906 48.542969 C 13.183594 48.085938 13.386719 47.855469 13.613281 47.855469 C 13.8125 47.855469 13.972656 48.082031 14.09375 48.53125 C 14.21875 48.984375 14.277344 49.597656 14.277344 50.371094 C 14.277344 51.273438 14.191406 52.050781 14.019531 52.695312 C 13.847656 53.34375 13.558594 53.859375 13.148438 54.238281 C 13.234375 54.839844 13.398438 55.140625 13.644531 55.140625 C 13.800781 55.140625 13.976562 54.9375 14.175781 54.523438 C 14.375 54.109375 14.546875 53.570312 14.695312 52.902344 C 14.734375 52.71875 14.78125 52.628906 14.835938 52.628906 Z M 13.523438 49.78125 C 13.394531 49.78125 13.285156 50.0625 13.199219 50.625 C 13.109375 51.1875 13.066406 51.871094 13.066406 52.667969 L 13.066406 52.707031 C 13.269531 52.523438 13.429688 52.25 13.550781 51.882812 C 13.667969 51.515625 13.726562 51.089844 13.726562 50.605469 C 13.726562 50.359375 13.707031 50.160156 13.671875 50.007812 C 13.636719 49.859375 13.585938 49.78125 13.523438 49.78125 Z M 17.007812 52.628906 C 17.054688 52.628906 17.089844 52.707031 17.113281 52.863281 C 17.140625 53.023438 17.152344 53.238281 17.152344 53.511719 C 17.152344 54.035156 17.121094 54.441406 17.054688 54.730469 C 16.925781 55.320312 16.746094 55.863281 16.511719 56.359375 C 16.277344 56.855469 16.027344 57.105469 15.757812 57.105469 C 15.394531 57.105469 15.113281 56.734375 14.910156 55.988281 C 14.707031 55.242188 14.609375 54.21875 14.609375 52.921875 C 14.609375 52.019531 14.660156 51.179688 14.757812 50.402344 C 14.859375 49.621094 15 49.003906 15.175781 48.542969 C 15.355469 48.085938 15.558594 47.855469 15.785156 47.855469 C 15.984375 47.855469 16.148438 48.082031 16.269531 48.53125 C 16.390625 48.984375 16.453125 49.597656 16.453125 50.371094 C 16.453125 51.273438 16.363281 52.050781 16.191406 52.695312 C 16.023438 53.34375 15.730469 53.859375 15.320312 54.238281 C 15.40625 54.839844 15.574219 55.140625 15.816406 55.140625 C 15.972656 55.140625 16.148438 54.9375 16.347656 54.523438 C 16.550781 54.109375 16.722656 53.570312 16.867188 52.902344 C 16.910156 52.71875 16.957031 52.628906 17.007812 52.628906 Z M 15.695312 49.78125 C 15.566406 49.78125 15.460938 50.0625 15.371094 50.625 C 15.28125 51.1875 15.238281 51.871094 15.238281 52.667969 L 15.238281 52.707031 C 15.441406 52.523438 15.605469 52.25 15.722656 51.882812 C 15.839844 51.515625 15.898438 51.089844 15.898438 50.605469 C 15.898438 50.359375 15.882812 50.160156 15.84375 50.007812 C 15.808594 49.859375 15.757812 49.78125 15.695312 49.78125 Z M 17.949219 57.105469 C 17.792969 57.105469 17.679688 56.949219 17.601562 56.636719 C 17.523438 56.320312 17.484375 55.910156 17.484375 55.398438 C 17.484375 54.808594 17.527344 54.335938 17.617188 53.984375 C 17.707031 53.628906 17.828125 53.453125 17.988281 53.453125 C 18.140625 53.453125 18.257812 53.59375 18.335938 53.875 C 18.414062 54.15625 18.453125 54.574219 18.453125 55.121094 C 18.453125 55.726562 18.40625 56.207031 18.316406 56.5625 C 18.226562 56.925781 18.105469 57.105469 17.949219 57.105469 Z M 18.128906 51.507812 C 17.976562 51.507812 17.863281 51.351562 17.78125 51.039062 C 17.707031 50.722656 17.667969 50.3125 17.667969 49.800781 C 17.667969 49.210938 17.710938 48.742188 17.796875 48.386719 C 17.886719 48.035156 18.011719 47.855469 18.171875 47.855469 C 18.324219 47.855469 18.441406 47.996094 18.515625 48.277344 C 18.597656 48.558594 18.636719 48.976562 18.636719 49.527344 C 18.636719 50.128906 18.589844 50.609375 18.5 50.96875 C 18.410156 51.328125 18.285156 51.507812 18.128906 51.507812 Z M 24.953125 52.667969 C 25 52.667969 25.035156 52.75 25.058594 52.910156 C 25.085938 53.078125 25.101562 53.285156 25.101562 53.53125 C 25.101562 53.832031 25.085938 54.070312 25.0625 54.238281 C 25.039062 54.410156 25 54.558594 24.949219 54.691406 C 24.742188 55.203125 24.417969 56.039062 23.96875 57.203125 C 23.835938 59.914062 23.660156 62.046875 23.445312 63.605469 C 23.230469 65.164062 22.957031 65.941406 22.625 65.941406 C 22.449219 65.941406 22.304688 65.738281 22.195312 65.324219 C 22.082031 64.914062 22.027344 64.371094 22.027344 63.703125 C 22.027344 63.089844 22.0625 62.46875 22.136719 61.839844 C 22.210938 61.210938 22.347656 60.484375 22.546875 59.660156 C 22.746094 58.835938 23.027344 57.890625 23.390625 56.832031 L 23.40625 56.457031 C 23.132812 56.890625 22.863281 57.105469 22.601562 57.105469 C 22.210938 57.105469 21.871094 56.820312 21.574219 56.25 C 21.28125 55.683594 21.050781 54.875 20.886719 53.828125 C 20.722656 52.78125 20.644531 51.5625 20.644531 50.175781 C 20.644531 48.238281 20.738281 46.523438 20.933594 45.039062 C 21.128906 43.554688 21.398438 42.402344 21.738281 41.582031 C 22.082031 40.765625 22.464844 40.355469 22.886719 40.355469 C 23.292969 40.355469 23.597656 40.710938 23.800781 41.425781 C 24.003906 42.140625 24.105469 43.085938 24.105469 44.261719 C 24.105469 45.035156 24.066406 45.652344 23.992188 46.117188 C 23.917969 46.582031 23.8125 46.816406 23.671875 46.816406 C 23.578125 46.816406 23.503906 46.730469 23.445312 46.5625 C 23.390625 46.390625 23.359375 46.15625 23.359375 45.855469 C 23.359375 45.722656 23.367188 45.5 23.382812 45.1875 C 23.402344 44.820312 23.414062 44.53125 23.414062 44.324219 C 23.414062 43.773438 23.367188 43.347656 23.28125 43.046875 C 23.191406 42.746094 23.042969 42.59375 22.835938 42.59375 C 22.582031 42.59375 22.347656 42.871094 22.128906 43.417969 C 21.910156 43.96875 21.738281 44.789062 21.605469 45.882812 C 21.472656 46.976562 21.40625 48.289062 21.40625 49.820312 C 21.40625 51.390625 21.523438 52.605469 21.75 53.460938 C 21.976562 54.320312 22.304688 54.75 22.734375 54.75 C 22.976562 54.75 23.226562 54.546875 23.484375 54.140625 L 23.558594 51.746094 L 23.027344 51.746094 C 22.929688 51.746094 22.855469 51.65625 22.804688 51.476562 C 22.75 51.304688 22.726562 51.011719 22.726562 50.605469 C 22.726562 50.238281 22.75 49.953125 22.804688 49.742188 C 22.855469 49.53125 22.925781 49.429688 23.011719 49.429688 L 23.984375 49.429688 C 24.0625 49.429688 24.125 49.523438 24.175781 49.714844 C 24.226562 49.902344 24.246094 50.175781 24.234375 50.527344 C 24.226562 50.945312 24.191406 51.894531 24.132812 53.375 L 24.074219 54.867188 C 24.351562 54.082031 24.605469 53.402344 24.835938 52.824219 C 24.878906 52.71875 24.917969 52.667969 24.953125 52.667969 Z M 22.683594 64.039062 C 22.773438 64.039062 22.871094 63.652344 22.980469 62.878906 C 23.089844 62.105469 23.1875 60.863281 23.28125 59.148438 C 23.019531 60 22.828125 60.769531 22.710938 61.457031 C 22.597656 62.144531 22.539062 62.75 22.539062 63.273438 C 22.539062 63.78125 22.585938 64.039062 22.683594 64.039062 Z M 26.882812 52.628906 C 26.925781 52.628906 26.960938 52.707031 26.988281 52.863281 C 27.015625 53.023438 27.027344 53.238281 27.027344 53.511719 C 27.027344 54.035156 26.996094 54.441406 26.929688 54.730469 C 26.777344 55.425781 26.617188 55.992188 26.441406 56.4375 C 26.265625 56.882812 26.066406 57.105469 25.84375 57.105469 C 25.539062 57.105469 25.3125 56.582031 25.167969 55.535156 C 25.019531 54.488281 24.945312 53.132812 24.945312 51.46875 C 24.945312 49.875 25 48.054688 25.109375 46.011719 C 25.21875 43.96875 25.378906 42.214844 25.59375 40.75 C 25.804688 39.28125 26.058594 38.550781 26.355469 38.550781 C 26.523438 38.550781 26.652344 38.839844 26.75 39.421875 C 26.84375 40.003906 26.890625 40.839844 26.890625 41.925781 C 26.890625 43.484375 26.777344 45.292969 26.546875 47.347656 C 26.320312 49.402344 26.007812 51.4375 25.617188 53.453125 C 25.640625 53.992188 25.679688 54.371094 25.734375 54.601562 C 25.792969 54.832031 25.863281 54.945312 25.953125 54.945312 C 26.097656 54.945312 26.222656 54.792969 26.328125 54.484375 C 26.4375 54.175781 26.574219 53.648438 26.742188 52.902344 C 26.78125 52.71875 26.828125 52.628906 26.882812 52.628906 Z M 26.242188 40.492188 C 26.160156 40.492188 26.070312 41.035156 25.96875 42.125 C 25.871094 43.210938 25.78125 44.558594 25.703125 46.167969 C 25.628906 47.777344 25.585938 49.324219 25.578125 50.800781 C 25.824219 49.269531 26.023438 47.734375 26.167969 46.195312 C 26.3125 44.660156 26.386719 43.253906 26.386719 41.984375 C 26.386719 40.992188 26.339844 40.492188 26.242188 40.492188 Z M 29.386719 50.980469 C 29.433594 50.980469 29.46875 51.066406 29.492188 51.234375 C 29.515625 51.40625 29.527344 51.621094 29.527344 51.882812 C 29.527344 52.511719 29.476562 52.882812 29.378906 53.003906 C 29.167969 53.277344 28.941406 53.433594 28.691406 53.472656 C 28.625 54.574219 28.492188 55.453125 28.300781 56.117188 C 28.105469 56.777344 27.886719 57.105469 27.636719 57.105469 C 27.429688 57.105469 27.253906 56.917969 27.105469 56.535156 C 26.957031 56.15625 26.84375 55.652344 26.769531 55.023438 C 26.691406 54.394531 26.65625 53.714844 26.65625 52.980469 C 26.65625 51.988281 26.703125 51.101562 26.804688 50.320312 C 26.90625 49.542969 27.042969 48.933594 27.222656 48.492188 C 27.398438 48.054688 27.59375 47.835938 27.808594 47.835938 C 28.074219 47.835938 28.285156 48.179688 28.449219 48.867188 C 28.609375 49.554688 28.703125 50.402344 28.730469 51.410156 C 28.894531 51.371094 29.089844 51.242188 29.316406 51.019531 C 29.34375 50.992188 29.367188 50.980469 29.386719 50.980469 Z M 27.679688 55.023438 C 27.792969 55.023438 27.886719 54.855469 27.96875 54.515625 C 28.050781 54.171875 28.105469 53.683594 28.132812 53.042969 C 28.027344 52.765625 27.941406 52.40625 27.886719 51.960938 C 27.828125 51.515625 27.800781 51.042969 27.800781 50.546875 C 27.800781 50.339844 27.804688 50.128906 27.816406 49.917969 L 27.789062 49.917969 C 27.652344 49.917969 27.535156 50.171875 27.441406 50.671875 C 27.351562 51.179688 27.304688 51.890625 27.304688 52.804688 C 27.304688 53.527344 27.34375 54.074219 27.417969 54.457031 C 27.492188 54.835938 27.578125 55.023438 27.679688 55.023438 Z M 33.144531 51.039062 C 33.15625 51.023438 33.171875 51.019531 33.195312 51.019531 C 33.25 51.019531 33.289062 51.085938 33.316406 51.214844 C 33.34375 51.347656 33.359375 51.523438 33.359375 51.746094 C 33.359375 52.152344 33.335938 52.46875 33.296875 52.695312 C 33.253906 52.925781 33.191406 53.09375 33.109375 53.199219 C 32.949219 53.394531 32.777344 53.492188 32.597656 53.492188 C 32.445312 53.492188 32.300781 53.414062 32.164062 53.257812 C 32.066406 53.871094 31.953125 54.507812 31.832031 55.160156 C 31.691406 55.910156 31.574219 56.417969 31.476562 56.695312 C 31.375 56.96875 31.265625 57.105469 31.140625 57.105469 C 31 57.105469 30.894531 56.902344 30.824219 56.496094 C 30.753906 56.089844 30.710938 55.425781 30.691406 54.496094 L 30.664062 53.0625 C 30.558594 54.160156 30.460938 55 30.375 55.574219 C 30.292969 56.152344 30.207031 56.550781 30.121094 56.773438 C 30.035156 56.996094 29.9375 57.105469 29.820312 57.105469 C 29.679688 57.105469 29.566406 56.898438 29.484375 56.476562 C 29.40625 56.058594 29.355469 55.398438 29.332031 54.496094 C 29.292969 52.660156 29.269531 51.058594 29.269531 49.683594 L 29.269531 48.996094 C 29.273438 48.5625 29.304688 48.261719 29.363281 48.09375 C 29.421875 47.921875 29.511719 47.835938 29.628906 47.835938 C 29.71875 47.835938 29.785156 47.914062 29.828125 48.0625 C 29.875 48.214844 29.894531 48.464844 29.894531 48.820312 C 29.894531 50.324219 29.917969 52.28125 29.96875 54.691406 C 30.203125 52.820312 30.421875 50.867188 30.617188 48.839844 C 30.65625 48.445312 30.703125 48.179688 30.757812 48.042969 C 30.808594 47.90625 30.875 47.835938 30.953125 47.835938 C 31.046875 47.835938 31.109375 47.910156 31.148438 48.054688 C 31.183594 48.199219 31.203125 48.453125 31.203125 48.820312 C 31.203125 50.324219 31.226562 52.28125 31.273438 54.691406 C 31.484375 53.527344 31.640625 52.597656 31.742188 51.902344 C 31.691406 51.523438 31.664062 51.070312 31.664062 50.546875 C 31.664062 50.101562 31.691406 49.671875 31.742188 49.25 C 31.796875 48.832031 31.867188 48.492188 31.957031 48.230469 C 32.046875 47.96875 32.148438 47.835938 32.265625 47.835938 C 32.363281 47.835938 32.445312 47.972656 32.507812 48.238281 C 32.570312 48.507812 32.601562 48.898438 32.601562 49.410156 C 32.601562 49.996094 32.5625 50.671875 32.476562 51.429688 C 32.609375 51.40625 32.785156 51.308594 33.003906 51.136719 Z M 38.808594 44.441406 C 38.808594 45.554688 38.703125 46.511719 38.496094 47.316406 C 38.285156 48.121094 37.984375 48.703125 37.582031 49.054688 C 37.796875 49.277344 37.960938 49.640625 38.074219 50.144531 C 38.183594 50.648438 38.238281 51.226562 38.238281 51.882812 C 38.238281 52.917969 38.152344 53.8125 37.980469 54.574219 C 37.808594 55.332031 37.558594 55.917969 37.230469 56.328125 C 36.898438 56.742188 36.503906 56.949219 36.035156 56.949219 C 35.863281 56.949219 35.722656 56.929688 35.621094 56.890625 C 35.617188 57.257812 35.574219 57.53125 35.496094 57.714844 C 35.414062 57.898438 35.3125 57.988281 35.1875 57.988281 C 35.0625 57.988281 34.976562 57.886719 34.929688 57.675781 C 34.882812 57.464844 34.863281 57.160156 34.871094 56.753906 C 34.902344 54.917969 34.960938 53 35.054688 50.988281 C 35.144531 48.980469 35.257812 47.039062 35.398438 45.167969 C 35.421875 44.839844 35.46875 44.609375 35.542969 44.480469 C 35.613281 44.347656 35.710938 44.285156 35.828125 44.285156 C 36.039062 44.285156 36.144531 44.503906 36.144531 44.949219 C 36.144531 45.132812 36.136719 45.34375 36.113281 45.578125 C 36.023438 46.601562 35.933594 47.984375 35.84375 49.730469 C 35.753906 51.480469 35.691406 53.144531 35.652344 54.730469 C 35.816406 54.78125 35.953125 54.808594 36.058594 54.808594 C 36.542969 54.808594 36.898438 54.542969 37.128906 54.011719 C 37.355469 53.484375 37.46875 52.804688 37.46875 51.980469 C 37.46875 51.40625 37.402344 50.921875 37.273438 50.527344 C 37.144531 50.136719 36.925781 49.917969 36.621094 49.878906 C 36.550781 49.867188 36.503906 49.800781 36.472656 49.683594 C 36.445312 49.566406 36.433594 49.375 36.433594 49.113281 C 36.433594 48.734375 36.453125 48.425781 36.496094 48.191406 C 36.535156 47.957031 36.613281 47.832031 36.722656 47.816406 C 36.96875 47.792969 37.195312 47.652344 37.394531 47.40625 C 37.59375 47.15625 37.75 46.804688 37.863281 46.351562 C 37.980469 45.902344 38.035156 45.375 38.035156 44.773438 C 38.035156 44.015625 37.9375 43.414062 37.738281 42.976562 C 37.542969 42.539062 37.238281 42.320312 36.828125 42.320312 C 36.457031 42.320312 36.097656 42.5 35.75 42.863281 C 35.402344 43.21875 35.109375 43.675781 34.867188 44.222656 C 34.753906 44.472656 34.660156 44.597656 34.585938 44.597656 C 34.523438 44.597656 34.472656 44.515625 34.441406 44.351562 C 34.40625 44.1875 34.390625 43.980469 34.390625 43.734375 C 34.390625 43.40625 34.410156 43.125 34.445312 42.890625 C 34.484375 42.652344 34.570312 42.386719 34.710938 42.082031 C 35 41.457031 35.34375 40.964844 35.734375 40.609375 C 36.128906 40.257812 36.527344 40.082031 36.9375 40.082031 C 37.566406 40.082031 38.035156 40.480469 38.34375 41.277344 C 38.652344 42.078125 38.808594 43.132812 38.808594 44.441406 Z M 41.109375 52.628906 C 41.15625 52.628906 41.191406 52.707031 41.214844 52.863281 C 41.242188 53.023438 41.253906 53.238281 41.253906 53.511719 C 41.253906 54.035156 41.222656 54.441406 41.15625 54.730469 C 41.027344 55.320312 40.847656 55.863281 40.613281 56.359375 C 40.378906 56.855469 40.128906 57.105469 39.859375 57.105469 C 39.496094 57.105469 39.210938 56.734375 39.011719 55.988281 C 38.808594 55.242188 38.710938 54.21875 38.710938 52.921875 C 38.710938 52.019531 38.757812 51.179688 38.859375 50.402344 C 38.960938 49.621094 39.101562 49.003906 39.28125 48.542969 C 39.457031 48.085938 39.660156 47.855469 39.886719 47.855469 C 40.085938 47.855469 40.25 48.082031 40.371094 48.53125 C 40.492188 48.984375 40.550781 49.597656 40.550781 50.371094 C 40.550781 51.273438 40.464844 52.050781 40.296875 52.695312 C 40.121094 53.34375 39.832031 53.859375 39.421875 54.238281 C 39.507812 54.839844 39.675781 55.140625 39.917969 55.140625 C 40.074219 55.140625 40.25 54.9375 40.453125 54.523438 C 40.652344 54.109375 40.824219 53.570312 40.96875 52.902344 C 41.011719 52.71875 41.058594 52.628906 41.109375 52.628906 Z M 39.796875 49.78125 C 39.667969 49.78125 39.558594 50.0625 39.472656 50.625 C 39.382812 51.1875 39.339844 51.871094 39.339844 52.667969 L 39.339844 52.707031 C 39.542969 52.523438 39.707031 52.25 39.824219 51.882812 C 39.941406 51.515625 40 51.089844 40 50.605469 C 40 50.359375 39.980469 50.160156 39.945312 50.007812 C 39.910156 49.859375 39.859375 49.78125 39.796875 49.78125 Z M 43.625 52.667969 C 43.671875 52.667969 43.707031 52.75 43.734375 52.910156 C 43.757812 53.078125 43.773438 53.285156 43.773438 53.53125 C 43.773438 53.832031 43.761719 54.070312 43.734375 54.238281 C 43.710938 54.410156 43.671875 54.558594 43.621094 54.691406 L 42.621094 57.222656 C 42.488281 59.933594 42.316406 62.0625 42.101562 63.613281 C 41.890625 65.167969 41.617188 65.941406 41.289062 65.941406 C 41.113281 65.941406 40.96875 65.738281 40.855469 65.324219 C 40.746094 64.914062 40.691406 64.371094 40.691406 63.703125 C 40.691406 63.089844 40.726562 62.460938 40.800781 61.820312 C 40.875 61.175781 41.015625 60.441406 41.21875 59.613281 C 41.421875 58.777344 41.707031 57.824219 42.078125 56.753906 L 42.09375 56.300781 C 42.121094 55.816406 42.148438 55.121094 42.179688 54.21875 C 42.109375 55.160156 42.011719 55.878906 41.886719 56.367188 C 41.761719 56.859375 41.628906 57.105469 41.492188 57.105469 C 41.335938 57.105469 41.207031 56.832031 41.109375 56.289062 C 41.007812 55.746094 40.960938 55.070312 40.960938 54.257812 C 40.960938 53.277344 40.976562 52.375 41.011719 51.558594 C 41.046875 50.738281 41.105469 49.875 41.183594 48.957031 C 41.21875 48.5625 41.269531 48.28125 41.332031 48.113281 C 41.394531 47.941406 41.492188 47.855469 41.625 47.855469 C 41.703125 47.855469 41.757812 47.902344 41.785156 47.996094 C 41.816406 48.085938 41.828125 48.222656 41.828125 48.40625 C 41.828125 48.511719 41.8125 48.863281 41.773438 49.46875 C 41.738281 49.953125 41.710938 50.390625 41.6875 50.78125 C 41.660156 51.320312 41.636719 51.832031 41.617188 52.324219 C 41.59375 52.816406 41.585938 53.21875 41.585938 53.53125 C 41.585938 54.03125 41.621094 54.277344 41.695312 54.277344 C 41.746094 54.277344 41.8125 54.082031 41.890625 53.6875 C 41.96875 53.296875 42.050781 52.699219 42.140625 51.902344 C 42.226562 51.105469 42.3125 50.121094 42.398438 48.957031 C 42.425781 48.5625 42.46875 48.28125 42.523438 48.113281 C 42.582031 47.941406 42.667969 47.855469 42.78125 47.855469 C 42.863281 47.855469 42.917969 47.894531 42.949219 47.976562 C 42.980469 48.054688 42.996094 48.183594 42.996094 48.367188 C 42.996094 48.695312 42.949219 49.820312 42.859375 51.746094 L 42.726562 54.90625 C 42.992188 54.148438 43.253906 53.453125 43.507812 52.824219 C 43.550781 52.71875 43.589844 52.667969 43.625 52.667969 Z M 41.347656 64.039062 C 41.433594 64.039062 41.53125 63.660156 41.636719 62.898438 C 41.746094 62.140625 41.851562 60.875 41.960938 59.109375 C 41.691406 59.960938 41.5 60.738281 41.378906 61.4375 C 41.257812 62.136719 41.199219 62.75 41.199219 63.273438 C 41.199219 63.496094 41.210938 63.679688 41.234375 63.820312 C 41.257812 63.964844 41.292969 64.039062 41.347656 64.039062 Z M 46.238281 50.980469 C 46.28125 50.980469 46.316406 51.066406 46.339844 51.234375 C 46.367188 51.40625 46.378906 51.621094 46.378906 51.882812 C 46.378906 52.511719 46.328125 52.882812 46.226562 53.003906 C 46.019531 53.277344 45.789062 53.433594 45.539062 53.472656 C 45.472656 54.574219 45.34375 55.453125 45.148438 56.117188 C 44.953125 56.777344 44.734375 57.105469 44.488281 57.105469 C 44.277344 57.105469 44.101562 56.917969 43.953125 56.535156 C 43.804688 56.15625 43.695312 55.652344 43.617188 55.023438 C 43.542969 54.394531 43.503906 53.714844 43.503906 52.980469 C 43.503906 51.988281 43.554688 51.101562 43.65625 50.320312 C 43.753906 49.542969 43.894531 48.933594 44.070312 48.492188 C 44.246094 48.054688 44.445312 47.835938 44.660156 47.835938 C 44.921875 47.835938 45.136719 48.179688 45.296875 48.867188 C 45.457031 49.554688 45.554688 50.402344 45.582031 51.410156 C 45.742188 51.371094 45.9375 51.242188 46.164062 51.019531 C 46.191406 50.992188 46.214844 50.980469 46.238281 50.980469 Z M 44.527344 55.023438 C 44.640625 55.023438 44.738281 54.855469 44.816406 54.515625 C 44.898438 54.171875 44.953125 53.683594 44.980469 53.042969 C 44.875 52.765625 44.792969 52.40625 44.734375 51.960938 C 44.675781 51.515625 44.648438 51.042969 44.648438 50.546875 C 44.648438 50.339844 44.652344 50.128906 44.664062 49.917969 L 44.636719 49.917969 C 44.5 49.917969 44.382812 50.171875 44.292969 50.671875 C 44.199219 51.179688 44.152344 51.890625 44.152344 52.804688 C 44.152344 53.527344 44.191406 54.074219 44.265625 54.457031 C 44.339844 54.835938 44.429688 55.023438 44.527344 55.023438 Z M 46.425781 57.105469 C 46.292969 57.105469 46.199219 56.84375 46.148438 56.320312 C 46.09375 55.796875 46.066406 54.960938 46.066406 53.808594 C 46.066406 52.105469 46.128906 50.488281 46.257812 48.957031 C 46.289062 48.578125 46.339844 48.296875 46.414062 48.121094 C 46.484375 47.945312 46.582031 47.855469 46.710938 47.855469 C 46.78125 47.855469 46.828125 47.890625 46.859375 47.957031 C 46.886719 48.019531 46.898438 48.144531 46.898438 48.328125 C 46.898438 48.539062 46.875 49.007812 46.820312 49.742188 C 46.785156 50.265625 46.757812 50.722656 46.738281 51.117188 C 46.71875 51.507812 46.699219 51.992188 46.6875 52.570312 C 46.800781 51.445312 46.929688 50.527344 47.070312 49.820312 C 47.214844 49.113281 47.351562 48.609375 47.492188 48.308594 C 47.628906 48.007812 47.753906 47.855469 47.867188 47.855469 C 48.09375 47.855469 48.207031 48.28125 48.207031 49.132812 C 48.207031 49.644531 48.167969 50.566406 48.089844 51.902344 C 48.027344 53.042969 47.992188 53.792969 47.992188 54.160156 C 47.992188 54.683594 48.042969 54.945312 48.144531 54.945312 C 48.214844 54.945312 48.296875 54.785156 48.390625 54.464844 C 48.488281 54.144531 48.613281 53.625 48.773438 52.902344 C 48.816406 52.71875 48.863281 52.628906 48.914062 52.628906 C 48.960938 52.628906 48.996094 52.707031 49.023438 52.863281 C 49.046875 53.023438 49.058594 53.238281 49.058594 53.511719 C 49.058594 54.035156 49.027344 54.441406 48.960938 54.730469 C 48.8125 55.425781 48.652344 55.992188 48.480469 56.4375 C 48.308594 56.882812 48.113281 57.105469 47.894531 57.105469 C 47.714844 57.105469 47.582031 56.914062 47.492188 56.523438 C 47.402344 56.140625 47.359375 55.582031 47.359375 54.847656 C 47.359375 54.480469 47.382812 53.828125 47.429688 52.882812 C 47.476562 52.058594 47.496094 51.488281 47.496094 51.175781 C 47.496094 50.964844 47.480469 50.863281 47.441406 50.863281 C 47.394531 50.863281 47.332031 51.082031 47.25 51.515625 C 47.167969 51.957031 47.085938 52.539062 47 53.257812 C 46.914062 53.976562 46.847656 54.738281 46.796875 55.535156 C 46.757812 56.152344 46.710938 56.566406 46.664062 56.78125 C 46.613281 56.996094 46.53125 57.105469 46.425781 57.105469 Z M 51.722656 52.628906 C 51.769531 52.628906 51.804688 52.707031 51.828125 52.863281 C 51.855469 53.023438 51.867188 53.238281 51.867188 53.511719 C 51.867188 54.035156 51.835938 54.441406 51.769531 54.730469 C 51.628906 55.382812 51.472656 55.945312 51.300781 56.40625 C 51.132812 56.875 50.960938 57.105469 50.796875 57.105469 C 50.53125 57.105469 50.332031 56.523438 50.191406 55.359375 C 50.046875 56.050781 49.917969 56.515625 49.808594 56.753906 C 49.699219 56.988281 49.574219 57.105469 49.425781 57.105469 C 49.214844 57.105469 49.039062 56.808594 48.902344 56.214844 C 48.765625 55.617188 48.699219 54.839844 48.699219 53.886719 C 48.699219 52.839844 48.757812 51.867188 48.875 50.96875 C 48.992188 50.070312 49.15625 49.339844 49.359375 48.769531 C 49.566406 48.199219 49.800781 47.863281 50.054688 47.757812 C 50.121094 45.21875 50.25 43.046875 50.433594 41.246094 C 50.621094 39.449219 50.863281 38.550781 51.164062 38.550781 C 51.316406 38.550781 51.4375 38.804688 51.539062 39.316406 C 51.636719 39.824219 51.6875 40.597656 51.6875 41.632812 C 51.6875 43.097656 51.589844 44.8125 51.398438 46.777344 C 51.210938 48.742188 50.953125 50.757812 50.632812 52.824219 C 50.648438 53.585938 50.679688 54.128906 50.726562 54.457031 C 50.773438 54.78125 50.832031 54.945312 50.90625 54.945312 C 51 54.945312 51.09375 54.789062 51.191406 54.476562 C 51.289062 54.160156 51.417969 53.636719 51.582031 52.902344 C 51.625 52.71875 51.671875 52.628906 51.722656 52.628906 Z M 51.109375 40.472656 C 51.042969 40.472656 50.976562 40.914062 50.910156 41.796875 C 50.84375 42.683594 50.789062 43.839844 50.742188 45.265625 C 50.695312 46.691406 50.660156 48.183594 50.640625 49.742188 C 51.027344 46.546875 51.222656 43.980469 51.222656 42.042969 C 51.222656 41.546875 51.210938 41.160156 51.1875 40.886719 C 51.167969 40.609375 51.140625 40.472656 51.109375 40.472656 Z M 49.609375 55.121094 C 49.675781 55.121094 49.742188 55.019531 49.808594 54.816406 C 49.871094 54.613281 49.957031 54.238281 50.054688 53.6875 C 50.023438 52.980469 50.003906 52.191406 50.003906 51.3125 C 50.003906 51 50.007812 50.488281 50.015625 49.78125 C 49.824219 50.003906 49.664062 50.484375 49.539062 51.222656 C 49.410156 51.964844 49.347656 52.785156 49.347656 53.6875 C 49.347656 54.644531 49.433594 55.121094 49.609375 55.121094 Z M 57.347656 44.441406 C 57.347656 45.554688 57.246094 46.511719 57.035156 47.316406 C 56.828125 48.121094 56.523438 48.703125 56.125 49.054688 C 56.339844 49.277344 56.503906 49.640625 56.613281 50.144531 C 56.726562 50.648438 56.78125 51.226562 56.78125 51.882812 C 56.78125 52.917969 56.695312 53.8125 56.523438 54.574219 C 56.351562 55.332031 56.101562 55.917969 55.773438 56.328125 C 55.441406 56.742188 55.042969 56.949219 54.578125 56.949219 C 54.40625 56.949219 54.265625 56.929688 54.164062 56.890625 C 54.160156 57.257812 54.117188 57.53125 54.039062 57.714844 C 53.957031 57.898438 53.855469 57.988281 53.730469 57.988281 C 53.605469 57.988281 53.519531 57.886719 53.472656 57.675781 C 53.425781 57.464844 53.40625 57.160156 53.414062 56.753906 C 53.445312 54.917969 53.503906 53 53.59375 50.988281 C 53.683594 48.980469 53.800781 47.039062 53.9375 45.167969 C 53.964844 44.839844 54.011719 44.609375 54.085938 44.480469 C 54.15625 44.347656 54.253906 44.285156 54.371094 44.285156 C 54.582031 44.285156 54.6875 44.503906 54.6875 44.949219 C 54.6875 45.132812 54.679688 45.34375 54.65625 45.578125 C 54.566406 46.601562 54.476562 47.984375 54.386719 49.730469 C 54.296875 51.480469 54.230469 53.144531 54.195312 54.730469 C 54.359375 54.78125 54.496094 54.808594 54.601562 54.808594 C 55.085938 54.808594 55.441406 54.542969 55.667969 54.011719 C 55.898438 53.484375 56.011719 52.804688 56.011719 51.980469 C 56.011719 51.40625 55.945312 50.921875 55.816406 50.527344 C 55.683594 50.136719 55.46875 49.917969 55.164062 49.878906 C 55.09375 49.867188 55.042969 49.800781 55.015625 49.683594 C 54.988281 49.566406 54.976562 49.375 54.976562 49.113281 C 54.976562 48.734375 54.996094 48.425781 55.039062 48.191406 C 55.078125 47.957031 55.15625 47.832031 55.265625 47.816406 C 55.511719 47.792969 55.734375 47.652344 55.933594 47.40625 C 56.136719 47.15625 56.292969 46.804688 56.40625 46.351562 C 56.519531 45.902344 56.578125 45.375 56.578125 44.773438 C 56.578125 44.015625 56.480469 43.414062 56.28125 42.976562 C 56.082031 42.539062 55.78125 42.320312 55.371094 42.320312 C 55 42.320312 54.640625 42.5 54.292969 42.863281 C 53.945312 43.21875 53.652344 43.675781 53.40625 44.222656 C 53.296875 44.472656 53.203125 44.597656 53.125 44.597656 C 53.0625 44.597656 53.015625 44.515625 52.984375 44.351562 C 52.949219 44.1875 52.933594 43.980469 52.933594 43.734375 C 52.933594 43.40625 52.953125 43.125 52.988281 42.890625 C 53.023438 42.652344 53.113281 42.386719 53.25 42.082031 C 53.542969 41.457031 53.886719 40.964844 54.277344 40.609375 C 54.667969 40.257812 55.070312 40.082031 55.480469 40.082031 C 56.109375 40.082031 56.578125 40.480469 56.886719 41.277344 C 57.195312 42.078125 57.347656 43.132812 57.347656 44.441406 Z M 59.652344 52.628906 C 59.699219 52.628906 59.734375 52.707031 59.757812 52.863281 C 59.785156 53.023438 59.796875 53.238281 59.796875 53.511719 C 59.796875 54.035156 59.765625 54.441406 59.699219 54.730469 C 59.570312 55.320312 59.390625 55.863281 59.15625 56.359375 C 58.921875 56.855469 58.671875 57.105469 58.402344 57.105469 C 58.039062 57.105469 57.753906 56.734375 57.554688 55.988281 C 57.351562 55.242188 57.253906 54.21875 57.253906 52.921875 C 57.253906 52.019531 57.300781 51.179688 57.402344 50.402344 C 57.503906 49.621094 57.644531 49.003906 57.820312 48.542969 C 58 48.085938 58.203125 47.855469 58.429688 47.855469 C 58.628906 47.855469 58.792969 48.082031 58.914062 48.53125 C 59.035156 48.984375 59.09375 49.597656 59.09375 50.371094 C 59.09375 51.273438 59.007812 52.050781 58.835938 52.695312 C 58.664062 53.34375 58.375 53.859375 57.964844 54.238281 C 58.050781 54.839844 58.21875 55.140625 58.460938 55.140625 C 58.617188 55.140625 58.792969 54.9375 58.992188 54.523438 C 59.195312 54.109375 59.367188 53.570312 59.511719 52.902344 C 59.554688 52.71875 59.601562 52.628906 59.652344 52.628906 Z M 58.339844 49.78125 C 58.210938 49.78125 58.101562 50.0625 58.015625 50.625 C 57.925781 51.1875 57.882812 51.871094 57.882812 52.667969 L 57.882812 52.707031 C 58.085938 52.523438 58.25 52.25 58.367188 51.882812 C 58.484375 51.515625 58.542969 51.089844 58.542969 50.605469 C 58.542969 50.359375 58.523438 50.160156 58.488281 50.007812 C 58.453125 49.859375 58.402344 49.78125 58.339844 49.78125 Z M 60.117188 57.105469 C 59.902344 57.105469 59.730469 56.8125 59.601562 56.222656 C 59.472656 55.632812 59.410156 54.859375 59.410156 53.90625 C 59.410156 52.859375 59.472656 51.867188 59.601562 50.929688 C 59.730469 49.992188 59.902344 49.242188 60.113281 48.671875 C 60.328125 48.101562 60.554688 47.816406 60.792969 47.816406 C 60.871094 47.816406 60.921875 47.871094 60.949219 47.984375 C 60.972656 48.09375 60.996094 48.296875 61.011719 48.582031 C 61.085938 48.53125 61.160156 48.503906 61.242188 48.503906 C 61.410156 48.503906 61.496094 48.734375 61.496094 49.191406 C 61.496094 49.46875 61.472656 50.121094 61.417969 51.15625 C 61.339844 52.660156 61.300781 53.707031 61.300781 54.296875 C 61.300781 54.496094 61.3125 54.652344 61.339844 54.769531 C 61.363281 54.886719 61.398438 54.945312 61.441406 54.945312 C 61.503906 54.945312 61.585938 54.785156 61.679688 54.464844 C 61.773438 54.144531 61.898438 53.625 62.058594 52.902344 C 62.101562 52.71875 62.148438 52.628906 62.199219 52.628906 C 62.246094 52.628906 62.28125 52.707031 62.308594 52.863281 C 62.332031 53.023438 62.34375 53.238281 62.34375 53.511719 C 62.34375 54.035156 62.3125 54.441406 62.246094 54.730469 C 62.105469 55.398438 61.953125 55.960938 61.792969 56.417969 C 61.632812 56.878906 61.480469 57.105469 61.332031 57.105469 C 61.214844 57.105469 61.109375 56.957031 61.015625 56.664062 C 60.921875 56.367188 60.847656 55.96875 60.800781 55.457031 C 60.617188 56.554688 60.390625 57.105469 60.117188 57.105469 Z M 60.304688 55.121094 C 60.382812 55.121094 60.453125 54.953125 60.523438 54.613281 C 60.59375 54.273438 60.644531 53.820312 60.675781 53.257812 L 60.867188 49.644531 C 60.722656 49.65625 60.585938 49.863281 60.464844 50.261719 C 60.339844 50.660156 60.242188 51.1875 60.167969 51.84375 C 60.097656 52.496094 60.058594 53.191406 60.058594 53.925781 C 60.058594 54.332031 60.082031 54.632812 60.125 54.828125 C 60.167969 55.023438 60.226562 55.121094 60.304688 55.121094 Z M 62.582031 57.105469 C 62.425781 57.105469 62.296875 56.832031 62.199219 56.289062 C 62.101562 55.746094 62.050781 55.070312 62.050781 54.257812 C 62.050781 53.277344 62.066406 52.375 62.101562 51.558594 C 62.136719 50.738281 62.195312 49.875 62.273438 48.957031 C 62.308594 48.5625 62.359375 48.28125 62.421875 48.113281 C 62.484375 47.941406 62.582031 47.855469 62.71875 47.855469 C 62.792969 47.855469 62.847656 47.902344 62.875 47.996094 C 62.90625 48.085938 62.921875 48.222656 62.921875 48.40625 C 62.921875 48.511719 62.902344 48.863281 62.863281 49.46875 C 62.828125 49.953125 62.800781 50.390625 62.78125 50.78125 C 62.710938 52.15625 62.675781 53.074219 62.675781 53.53125 C 62.675781 53.808594 62.683594 54 62.703125 54.109375 C 62.71875 54.222656 62.746094 54.277344 62.785156 54.277344 C 62.835938 54.277344 62.902344 54.082031 62.980469 53.6875 C 63.058594 53.296875 63.140625 52.699219 63.230469 51.902344 C 63.320312 51.105469 63.40625 50.121094 63.488281 48.957031 C 63.515625 48.5625 63.558594 48.28125 63.613281 48.113281 C 63.671875 47.941406 63.757812 47.855469 63.875 47.855469 C 63.953125 47.855469 64.007812 47.890625 64.039062 47.964844 C 64.070312 48.035156 64.085938 48.171875 64.085938 48.367188 C 64.085938 48.695312 64.042969 49.589844 63.957031 51.058594 C 63.859375 52.734375 63.8125 53.769531 63.8125 54.160156 C 63.8125 54.410156 63.824219 54.601562 63.851562 54.738281 C 63.878906 54.875 63.917969 54.945312 63.960938 54.945312 C 64.03125 54.945312 64.113281 54.785156 64.207031 54.464844 C 64.304688 54.144531 64.433594 53.625 64.589844 52.902344 C 64.632812 52.71875 64.679688 52.628906 64.730469 52.628906 C 64.777344 52.628906 64.8125 52.707031 64.839844 52.863281 C 64.863281 53.023438 64.878906 53.238281 64.878906 53.511719 C 64.878906 54.035156 64.84375 54.441406 64.777344 54.730469 C 64.628906 55.425781 64.46875 55.992188 64.296875 56.4375 C 64.125 56.882812 63.929688 57.105469 63.710938 57.105469 C 63.546875 57.105469 63.421875 56.863281 63.34375 56.378906 C 63.265625 55.894531 63.226562 55.214844 63.226562 54.335938 C 63.167969 55.226562 63.078125 55.910156 62.960938 56.386719 C 62.84375 56.867188 62.71875 57.105469 62.582031 57.105469 Z M 66.90625 52.628906 C 66.949219 52.628906 66.984375 52.707031 67.011719 52.863281 C 67.039062 53.023438 67.050781 53.238281 67.050781 53.511719 C 67.050781 54.035156 67.015625 54.441406 66.953125 54.730469 C 66.800781 55.425781 66.640625 55.992188 66.460938 56.4375 C 66.285156 56.882812 66.082031 57.105469 65.851562 57.105469 C 65.144531 57.105469 64.789062 55.226562 64.789062 51.46875 C 64.789062 50.894531 64.796875 50.3125 64.804688 49.722656 L 64.601562 49.722656 C 64.5 49.722656 64.429688 49.652344 64.394531 49.507812 C 64.355469 49.363281 64.335938 49.132812 64.335938 48.820312 C 64.335938 48.085938 64.414062 47.71875 64.570312 47.71875 L 64.867188 47.71875 C 64.929688 46.28125 65.019531 44.964844 65.140625 43.773438 C 65.261719 42.582031 65.40625 41.632812 65.578125 40.925781 C 65.75 40.21875 65.9375 39.863281 66.132812 39.863281 C 66.28125 39.863281 66.394531 40.105469 66.476562 40.589844 C 66.5625 41.074219 66.601562 41.683594 66.601562 42.417969 C 66.601562 44.445312 66.378906 46.214844 65.925781 47.71875 L 66.507812 47.71875 C 66.5625 47.71875 66.605469 47.765625 66.628906 47.855469 C 66.652344 47.949219 66.664062 48.117188 66.664062 48.367188 C 66.664062 49.269531 66.46875 49.722656 66.078125 49.722656 L 65.441406 49.722656 C 65.433594 50.378906 65.429688 50.886719 65.429688 51.253906 C 65.429688 52.617188 65.472656 53.570312 65.558594 54.121094 C 65.644531 54.671875 65.777344 54.945312 65.960938 54.945312 C 66.113281 54.945312 66.242188 54.777344 66.359375 54.433594 C 66.472656 54.09375 66.609375 53.585938 66.765625 52.902344 C 66.804688 52.71875 66.851562 52.628906 66.90625 52.628906 Z M 65.992188 41.75 C 65.941406 41.75 65.882812 41.996094 65.820312 42.484375 C 65.753906 42.976562 65.695312 43.65625 65.636719 44.527344 C 65.578125 45.398438 65.53125 46.363281 65.492188 47.425781 C 65.699219 46.757812 65.851562 46.007812 65.953125 45.175781 C 66.058594 44.34375 66.109375 43.589844 66.109375 42.910156 C 66.109375 42.136719 66.070312 41.75 65.992188 41.75 Z M 69.421875 52.667969 C 69.464844 52.667969 69.503906 52.75 69.527344 52.910156 C 69.554688 53.078125 69.566406 53.285156 69.566406 53.53125 C 69.566406 53.832031 69.554688 54.070312 69.53125 54.238281 C 69.507812 54.410156 69.46875 54.558594 69.417969 54.691406 L 68.417969 57.222656 C 68.285156 59.933594 68.113281 62.0625 67.898438 63.613281 C 67.683594 65.167969 67.414062 65.941406 67.082031 65.941406 C 66.90625 65.941406 66.761719 65.738281 66.652344 65.324219 C 66.539062 64.914062 66.484375 64.371094 66.484375 63.703125 C 66.484375 63.089844 66.523438 62.460938 66.597656 61.820312 C 66.671875 61.175781 66.808594 60.441406 67.011719 59.613281 C 67.214844 58.777344 67.503906 57.824219 67.875 56.753906 L 67.890625 56.300781 C 67.914062 55.816406 67.941406 55.121094 67.972656 54.21875 C 67.90625 55.160156 67.808594 55.878906 67.683594 56.367188 C 67.558594 56.859375 67.425781 57.105469 67.285156 57.105469 C 67.128906 57.105469 67.003906 56.832031 66.902344 56.289062 C 66.804688 55.746094 66.753906 55.070312 66.753906 54.257812 C 66.753906 53.277344 66.773438 52.375 66.808594 51.558594 C 66.84375 50.738281 66.898438 49.875 66.980469 48.957031 C 67.015625 48.5625 67.0625 48.28125 67.125 48.113281 C 67.1875 47.941406 67.285156 47.855469 67.421875 47.855469 C 67.5 47.855469 67.550781 47.902344 67.582031 47.996094 C 67.609375 48.085938 67.625 48.222656 67.625 48.40625 C 67.625 48.511719 67.605469 48.863281 67.566406 49.46875 C 67.535156 49.953125 67.503906 50.390625 67.484375 50.78125 C 67.457031 51.320312 67.433594 51.832031 67.410156 52.324219 C 67.390625 52.816406 67.378906 53.21875 67.378906 53.53125 C 67.378906 54.03125 67.417969 54.277344 67.488281 54.277344 C 67.542969 54.277344 67.605469 54.082031 67.683594 53.6875 C 67.761719 53.296875 67.847656 52.699219 67.933594 51.902344 C 68.023438 51.105469 68.109375 50.121094 68.191406 48.957031 C 68.21875 48.5625 68.261719 48.28125 68.320312 48.113281 C 68.378906 47.941406 68.464844 47.855469 68.578125 47.855469 C 68.65625 47.855469 68.714844 47.894531 68.746094 47.976562 C 68.777344 48.054688 68.792969 48.183594 68.792969 48.367188 C 68.792969 48.695312 68.746094 49.820312 68.65625 51.746094 L 68.519531 54.90625 C 68.789062 54.148438 69.046875 53.453125 69.300781 52.824219 C 69.347656 52.71875 69.386719 52.667969 69.421875 52.667969 Z M 67.140625 64.039062 C 67.226562 64.039062 67.324219 63.660156 67.433594 62.898438 C 67.539062 62.140625 67.648438 60.875 67.753906 59.109375 C 67.488281 59.960938 67.292969 60.738281 67.175781 61.4375 C 67.054688 62.136719 66.996094 62.75 66.996094 63.273438 C 66.996094 63.496094 67.007812 63.679688 67.027344 63.820312 C 67.050781 63.964844 67.089844 64.039062 67.140625 64.039062 Z M 67.140625 64.039062 "/>
</g>
</g>
</svg>
