<svg xmlns="http://www.w3.org/2000/svg" version="1.1" xmlns:xlink="http://www.w3.org/1999/xlink" xmlns:svgjs="http://svgjs.dev/svgjs" width="1500" height="375" viewBox="0 0 1500 375"><g transform="matrix(1,0,0,1,-0.9090909090909918,-0.051108085190293195)"><svg viewBox="0 0 396 99" data-background-color="#35185a" preserveAspectRatio="xMidYMid meet" height="375" width="1500" xmlns="http://www.w3.org/2000/svg" xmlns:xlink="http://www.w3.org/1999/xlink"><g id="tight-bounds" transform="matrix(1,0,0,1,0.2400000000000091,0.013492534490239905)"><svg viewBox="0 0 395.52 98.97301493101953" height="98.97301493101953" width="395.52"><g><svg viewBox="0 0 397.4975999999999 99.46788000567462" height="98.97301493101953" width="395.52"><g><svg viewBox="0 0 397.4975999999999 99.46788000567462" height="99.46788000567462" width="397.4975999999999"><g id="textblocktransform"><svg viewBox="0 0 397.4975999999999 99.46788000567462" height="99.46788000567462" width="397.4975999999999" id="textblock"><g><rect width="397.4975999999999" height="4.023106027801729" x="0" y="49.35070468233746" fill="#a437db" opacity="1" stroke-width="0" stroke="transparent" fill-opacity="1" class="rect-qz-0" data-fill-palette-color="primary" rx="1%" id="qz-0" data-palette-color="#a437db"></rect></g><g transform="matrix(1,0,0,1,0.9887999999999693,0)"><svg viewBox="0 0 395.52 44.61144365482233" height="44.61144365482233" width="395.52"><g transform="matrix(1,0,0,1,0,0)"><svg width="395.52" viewBox="-0.08 -30.96 393.95 44.440000000000005" height="44.61144365482233" data-palette-color="#a437db"><path d="M25.96-27.28L25.96-27.28Q25.96-29.72 24-29.72L24-29.72Q21.92-29.72 19.62-26.86 17.32-24 15.56-19.94 13.8-15.88 12.34-11.66 10.88-7.44 10.08-4.54 9.28-1.64 9.28-1.28L9.28-1.28Q9.28-0.76 8.72-0.76L8.72-0.76Q7.52-0.76 7.52-3.96L7.52-3.96Q7.52-11.68 9.26-18.96 11-26.24 13.12-28.68L13.12-28.68Q7.4-27.88 3.84-24.64L3.84-24.64Q1.8-22.84 1.8-20.72L1.8-20.72Q1.8-19.68 2.6-19.68L2.6-19.68Q2.44-19.12 1.72-19.12 1-19.12 0.46-19.68-0.08-20.24-0.08-21.24L-0.08-21.24Q-0.08-23.6 2.78-25.62 5.64-27.64 8.96-28.62 12.28-29.6 14.6-29.6L14.6-29.6Q15.24-29.6 15.24-28.96L15.24-28.96Q12.44-22.48 10.48-10.88L10.48-10.88 10.76-10.88Q12.52-16.68 14.4-20.54 16.28-24.4 17.68-26.38 19.08-28.36 20.78-29.64 22.48-30.92 24.2-30.92L24.2-30.92Q27.72-30.92 28.4-27.88L28.4-27.88Q28.56-27.2 28.56-26.44L28.56-26.44Q28.56-24 26.88-21.12L26.88-21.12Q24.48-17 20.44-15.36L20.44-15.36 18.92-14.88Q20.08-14.76 21.38-11.74 22.68-8.72 23.68-5.14 24.68-1.56 26.08 1.4 27.48 4.36 28.84 4.36L28.84 4.36Q29.92 4.36 30.44 3.6L30.44 3.6Q30.72 3.6 30.72 3.8 30.72 4 30.48 4.36L30.48 4.36Q29.6 5.56 28.32 5.68L28.32 5.68Q26.24 5.68 24.3 2.84 22.36 0 21.16-3.46 19.96-6.92 18.62-10.36 17.28-13.8 16.36-14.6L16.36-14.6Q15.92-14.6 15.66-14.86 15.4-15.12 15.36-15.68L15.36-15.68Q19.6-15.68 22.96-19.92L22.96-19.92Q25.96-23.72 25.96-27.28ZM32.64 0L32.64 0Q29.36 0 29.36-5.16L29.36-5.16Q29.36-8.24 30.88-11.92L30.88-11.92Q33-17.08 36.44-18.96L36.44-18.96Q37.92-19.76 39.2-19.76 40.48-19.76 41.22-19.2 41.96-18.64 42.16-18.08L42.16-18.08 42.4-17.56Q42.28-16.88 41.72-16.88L41.72-16.88Q41.08-16.88 40.98-17.18 40.88-17.48 40.76-17.7 40.64-17.92 40.2-18.3 39.76-18.68 39.2-18.68L39.2-18.68Q36.6-18.68 34.48-14L34.48-14Q32.08-8.6 32.08-3.84L32.08-3.84Q32.08-1.44 33.04-1.44L33.04-1.44Q33.8-1.44 35.18-3.14 36.56-4.84 38.08-7.4L38.08-7.4Q40.72-11.8 42.36-15.04L42.36-15.04Q43.72-17.92 45.16-17.92L45.16-17.92Q45.92-17.92 45.92-17L45.92-17Q45.56-16.24 45-14.84 44.44-13.44 43.52-9.28 42.6-5.12 42.6-1 42.6 3.12 43.84 3.12L43.84 3.12Q44.32 3.12 44.72 2.7 45.12 2.28 45.44 1.44L45.44 1.44Q45.56 1 46 1L46 1Q46.16 1 46.24 1.12 46.32 1.24 46.24 1.52 46.16 1.8 45.96 2.3 45.76 2.8 45.1 3.64 44.44 4.48 43.72 4.48L43.72 4.48Q42.04 4.48 41.14 2.28 40.24 0.08 40.24-2.92 40.24-5.92 40.68-8.68L40.68-8.68 40.28-8.68Q35.2 0 32.64 0ZM55.96-3.68L55.96-3.68Q55.96-1.28 57.23-1.28L57.23-1.28Q58.88-1.28 60.84-5.68L60.84-5.68Q63.12-10.72 63.12-15.12L63.12-15.12Q63.12-18.12 61.54-18.12 59.96-18.12 58.08-15.68 56.2-13.24 54.73-10.02 53.28-6.8 52.23-3.94 51.2-1.08 50.98 0.3 50.76 1.68 50.64 2.38 50.52 3.08 50.26 4.6 50 6.12 49.78 6.92 49.55 7.72 49.2 8.94 48.84 10.16 48.46 10.82 48.08 11.48 47.6 12.16L47.6 12.16Q46.64 13.48 45.16 13.48L45.16 13.48Q43.23 13.48 43.23 11.28L43.23 11.28Q43.23 7.36 49.24-3.48L49.24-3.48Q49.84-7.88 50.48-10.6L50.48-10.6Q51.88-17.04 53.46-20.58 55.04-24.12 56.32-24.12L56.32-24.12Q56.96-24.12 56.96-23.36L56.96-23.36Q55.04-18.28 53-10.48L53-10.48 52.76-9.56 53.28-9.56Q57.84-19.48 61.88-19.48L61.88-19.48Q65.64-19.48 65.64-13.52L65.64-13.52Q65.64-9.2 63.44-4.88L63.44-4.88Q61 0 57.6 0L57.6 0Q54.84 0 54.84-3.6L54.84-3.6Q54.84-5.52 55.9-8.02 56.96-10.52 58.68-11.72L58.68-11.72Q59.04-11.92 59.28-11.56L59.28-11.56Q59.32-11.36 59.23-11.28L59.23-11.28Q57.72-10.08 56.84-7.76 55.96-5.44 55.96-3.68ZM44.32 10.92L44.32 10.92Q44.32 12.12 45.2 12.12L45.2 12.12Q47 12.12 47.88 7.24L47.88 7.24Q48.2 5.56 49-1.24L49-1.24Q45.36 5.8 44.48 9.68L44.48 9.68Q44.32 10.4 44.32 10.92ZM75.07-11.6Q72.95-7.76 71.77-4.8 70.59-1.84 70.59-1.3 70.59-0.76 70.03-0.76L70.03-0.76Q68.83-0.76 68.83-3.96L68.83-3.96Q68.83-10.32 70.11-16.74 71.39-23.16 73.15-27.02 74.91-30.88 76.43-30.88L76.43-30.88Q77.07-30.88 77.07-30.24L77.07-30.24Q74.95-25.56 73.53-19.56 72.11-13.56 71.15-6.76L71.15-6.76 71.43-6.76Q76.51-19.24 81.39-19.24L81.39-19.24Q83.43-19.24 83.43-17.28L83.43-17.28Q83.15-16.36 82.71-14.86 82.27-13.36 81.55-9.48 80.83-5.6 80.83-2.68L80.83-2.68Q80.83 1.56 82.07 1.56L82.07 1.56Q82.51 1.56 82.95 1.18 83.39 0.8 83.55 0.8L83.55 0.8Q84.11 0.8 83.51 1.68L83.51 1.68Q83.35 1.96 82.81 2.44 82.27 2.92 81.75 2.92L81.75 2.92Q80.19 2.92 79.33 0.74 78.47-1.44 78.47-4.92L78.47-4.92Q78.47-10.8 80.23-17.04L80.23-17.04Q80.31-17.64 79.75-17.56L79.75-17.56Q79.47-17.52 79.19-17.24L79.19-17.24Q77.19-15.44 75.07-11.6ZM96.43-19.4L96.43-19.4Q99.47-19.4 99.47-15.84L99.47-15.84Q99.47-13.8 98.11-11.56L98.11-11.56Q95.79-7.84 91.95-7.84L91.95-7.84Q91.35-7.84 90.95-8.04 90.55-8.24 90.35-8.64L90.35-8.64Q93.19-8.64 95.55-11.92L95.55-11.92Q97.47-14.56 97.47-16.76L97.47-16.76Q97.47-18.4 96.15-18.4L96.15-18.4Q93.51-18.4 91.23-14.28L91.23-14.28Q88.79-9.8 88.79-5.08L88.79-5.08Q88.79-1.08 91.07-0.28L91.07-0.28Q91.51-0.12 92.19-0.12 92.87-0.12 93.63-0.46 94.39-0.8 94.91-1.28L94.91-1.28Q95.95-2.24 96.63-3.4L96.63-3.4Q96.79-3.72 97.23-3.72L97.23-3.72Q97.95-3.72 97.91-3.48L97.91-3.48Q97.79-3.04 97.01-2 96.23-0.96 95.57-0.34 94.91 0.28 93.85 0.78 92.79 1.28 91.71 1.28L91.71 1.28Q87.47 1.28 86.31-2.72L86.31-2.72Q85.95-4.08 85.95-5.52L85.95-5.52Q85.95-8.2 87.19-11.36L87.19-11.36Q89.15-16.16 92.59-18.28L92.59-18.28Q94.47-19.4 96.43-19.4ZM111.99-19.4L111.99-19.4Q115.03-19.4 115.03-15.84L115.03-15.84Q115.03-13.8 113.67-11.56L113.67-11.56Q111.35-7.84 107.51-7.84L107.51-7.84Q106.91-7.84 106.51-8.04 106.11-8.24 105.91-8.64L105.91-8.64Q108.75-8.64 111.11-11.92L111.11-11.92Q113.03-14.56 113.03-16.76L113.03-16.76Q113.03-18.4 111.71-18.4L111.71-18.4Q109.07-18.4 106.79-14.28L106.79-14.28Q104.35-9.8 104.35-5.08L104.35-5.08Q104.35-1.08 106.63-0.28L106.63-0.28Q107.07-0.12 107.75-0.12 108.43-0.12 109.19-0.46 109.95-0.8 110.47-1.28L110.47-1.28Q111.51-2.24 112.19-3.4L112.19-3.4Q112.35-3.72 112.79-3.72L112.79-3.72Q113.51-3.72 113.47-3.48L113.47-3.48Q113.35-3.04 112.57-2 111.79-0.96 111.13-0.34 110.47 0.28 109.41 0.78 108.35 1.28 107.27 1.28L107.27 1.28Q103.03 1.28 101.87-2.72L101.87-2.72Q101.51-4.08 101.51-5.52L101.51-5.52Q101.51-8.2 102.75-11.36L102.75-11.36Q104.71-16.16 108.15-18.28L108.15-18.28Q110.03-19.4 111.99-19.4ZM150.26-18.44L150.26-18.44Q155.02-16.92 155.02-10.64L155.02-10.64Q155.02-5.4 150.56-0.38 146.1 4.64 138.3 4.64L138.3 4.64Q132.18 4.64 130.34 1.08L130.34 1.08Q129.7-0.12 129.7-1.38 129.7-2.64 130.34-3.96L130.34-3.96Q131.54-6.52 133.82-6.52L133.82-6.52Q134.02-6.52 134.1-6.3 134.18-6.08 134.08-5.84 133.98-5.6 133.78-5.6L133.78-5.6Q132.42-5.6 131.5-3.84L131.5-3.84Q130.86-2.68 130.86-1.64 130.86-0.6 131.34 0.36L131.34 0.36Q132.74 3.08 137.58 3.08L137.58 3.08Q143.66 3.08 148.14-2.04L148.14-2.04Q151.62-5.96 152.42-10.64L152.42-10.64Q152.62-11.76 152.62-12.72L152.62-12.72Q152.62-15.48 150.98-16.84L150.98-16.84Q150.1-17.56 148.82-17.68L148.82-17.68Q146.66-16.76 144.18-16.76L144.18-16.76Q143.9-16.76 143.9-17.3 143.9-17.84 144.18-17.84L144.18-17.84Q148.22-17.84 151.26-21.64L151.26-21.64Q153.5-24.48 153.66-27.2L153.66-27.2Q153.58-29.6 151.78-29.72L151.78-29.72Q149.82-29.72 147.58-26.92 145.34-24.12 143.54-20.12 141.74-16.12 140.24-11.94 138.74-7.76 137.9-4.78 137.06-1.8 137.06-1.28 137.06-0.76 136.5-0.76L136.5-0.76Q135.3-0.76 135.3-3.96L135.3-3.96Q135.3-11.68 137.04-18.96 138.78-26.24 140.9-28.68L140.9-28.68Q135.18-27.88 131.62-24.64L131.62-24.64Q129.58-22.84 129.58-20.72L129.58-20.72Q129.58-19.68 130.38-19.68L130.38-19.68Q130.22-19.12 129.5-19.12 128.78-19.12 128.24-19.68 127.7-20.24 127.7-21.24L127.7-21.24Q127.7-23.6 130.56-25.62 133.42-27.64 136.74-28.62 140.06-29.6 142.38-29.6L142.38-29.6Q143.02-29.6 143.02-28.96L143.02-28.96Q140.42-22.92 138.3-11.32L138.3-11.32 138.62-11.32Q140.94-18.56 144.1-24.28L144.1-24.28Q145.78-27.36 147.82-29.14 149.86-30.92 151.98-30.92L151.98-30.92Q155.34-30.92 155.98-28.2L155.98-28.2Q156.1-27.64 156.1-27L156.1-27Q156.1-24.84 154.44-22.38 152.78-19.92 150.26-18.44ZM168.7-19.4L168.7-19.4Q171.74-19.4 171.74-15.84L171.74-15.84Q171.74-13.8 170.38-11.56L170.38-11.56Q168.06-7.84 164.22-7.84L164.22-7.84Q163.62-7.84 163.22-8.04 162.82-8.24 162.62-8.64L162.62-8.64Q165.46-8.64 167.82-11.92L167.82-11.92Q169.74-14.56 169.74-16.76L169.74-16.76Q169.74-18.4 168.42-18.4L168.42-18.4Q165.78-18.4 163.5-14.28L163.5-14.28Q161.06-9.8 161.06-5.08L161.06-5.08Q161.06-1.08 163.34-0.28L163.34-0.28Q163.78-0.12 164.46-0.12 165.14-0.12 165.9-0.46 166.66-0.8 167.18-1.28L167.18-1.28Q168.22-2.24 168.9-3.4L168.9-3.4Q169.06-3.72 169.5-3.72L169.5-3.72Q170.22-3.72 170.18-3.48L170.18-3.48Q170.06-3.04 169.28-2 168.5-0.96 167.84-0.34 167.18 0.28 166.12 0.78 165.06 1.28 163.98 1.28L163.98 1.28Q159.74 1.28 158.58-2.72L158.58-2.72Q158.22-4.08 158.22-5.52L158.22-5.52Q158.22-8.2 159.46-11.36L159.46-11.36Q161.42-16.16 164.86-18.28L164.86-18.28Q166.74-19.4 168.7-19.4ZM177.18 0L177.18 0Q173.9 0 173.9-5.16L173.9-5.16Q173.9-8.24 175.42-11.92L175.42-11.92Q177.54-17.08 180.98-18.96L180.98-18.96Q182.46-19.76 183.74-19.76 185.02-19.76 185.76-19.2 186.5-18.64 186.7-18.08L186.7-18.08 186.94-17.56Q186.82-16.88 186.26-16.88L186.26-16.88Q185.62-16.88 185.52-17.18 185.42-17.48 185.3-17.7 185.18-17.92 184.74-18.3 184.3-18.68 183.74-18.68L183.74-18.68Q181.14-18.68 179.02-14L179.02-14Q176.62-8.6 176.62-3.84L176.62-3.84Q176.62-1.44 177.58-1.44L177.58-1.44Q178.34-1.44 179.72-3.14 181.1-4.84 182.62-7.4L182.62-7.4Q185.26-11.8 186.9-15.04L186.9-15.04Q188.26-17.92 189.7-17.92L189.7-17.92Q190.46-17.92 190.46-17L190.46-17Q190.1-16.24 189.54-14.84 188.98-13.44 188.06-9.28 187.14-5.12 187.14-1 187.14 3.12 188.38 3.12L188.38 3.12Q188.86 3.12 189.26 2.7 189.66 2.28 189.98 1.44L189.98 1.44Q190.1 1 190.54 1L190.54 1Q190.7 1 190.78 1.12 190.86 1.24 190.78 1.52 190.7 1.8 190.5 2.3 190.3 2.8 189.64 3.64 188.98 4.48 188.26 4.48L188.26 4.48Q186.58 4.48 185.68 2.28 184.78 0.08 184.78-2.92 184.78-5.92 185.22-8.68L185.22-8.68 184.82-8.68Q179.74 0 177.18 0ZM206.94 3L206.94 3Q207.42 3 207.84 2.58 208.26 2.16 208.62 1.28L208.62 1.28Q208.66 0.92 209.1 0.92 209.54 0.92 209.44 1.28 209.34 1.64 209.12 2.16 208.9 2.68 208.2 3.54 207.5 4.4 206.78 4.4L206.78 4.4Q205.18 4.4 204.3 2.4L204.3 2.4Q203.38 0.4 203.38-2.54 203.38-5.48 203.82-8.6L203.82-8.6 203.46-8.6Q198.62-0.16 196.02-0.16L196.02-0.16Q192.94-0.16 192.94-4.86 192.94-9.56 194.94-14.24L194.94-14.24Q197.14-19.4 198.82-19.4L198.82-19.4Q199.54-19.4 199.54-18.52L199.54-18.52Q197.86-14.08 196.66-9.88 195.46-5.68 195.46-3.62 195.46-1.56 196.42-1.56L196.42-1.56Q197.1-1.56 198.44-3.2 199.78-4.84 201.18-7.2L201.18-7.2Q204.18-12.28 205.76-15.84 207.34-19.4 209.02-19.4L209.02-19.4Q209.82-19.4 209.82-18.52L209.82-18.52Q207.26-13.44 206.18-6.4L206.18-6.4Q205.74-3.6 205.74-0.92L205.74-0.92Q205.74 3 206.94 3ZM214.29-17.32L214.29-17.32Q212.73-17.32 212.73-18.6L212.73-18.6Q212.73-19.08 213.13-19.2L213.13-19.2Q213.17-19.24 213.25-19.24L213.25-19.24Q213.49-18.96 214.15-18.96 214.81-18.96 216.25-19.04L216.25-19.04Q218.13-24.12 219.85-24.12L219.85-24.12Q220.53-24.12 220.53-23.36L220.53-23.36Q219.89-21.76 219.09-19.24L219.09-19.24Q223.05-19.68 224.25-19.68L224.25-19.68Q224.57-19.68 224.57-19.36L224.57-19.36Q224.57-18.72 223.73-18.72L223.73-18.72Q223.29-18.72 218.65-17.88L218.65-17.88Q215.49-7.88 215.49-1.68 215.49 4.52 217.97 4.52L217.97 4.52Q218.97 4.52 219.85 3.66 220.73 2.8 221.09 1.96L221.09 1.96Q221.25 1.52 221.77 1.72L221.77 1.72Q222.01 1.8 221.93 1.96L221.93 1.96Q221.69 2.48 221.33 3.16 220.97 3.84 219.93 4.84 218.89 5.84 217.81 5.84L217.81 5.84Q213.05 5.84 213.05-2.44L213.05-2.44Q213.05-9.44 215.65-17.4L215.65-17.4Q215.09-17.32 214.29-17.32ZM224.57 12.52L224.57 12.52Q228.17 12.52 230.21 9.12L230.21 9.12Q231.97 6.12 232.93 1.64L232.93 1.64Q225.69 1.8 221.81 7.16L221.81 7.16Q221.57 7.52 221.05 7.28L221.05 7.28Q220.77 7.12 220.89 6.88L220.89 6.88Q222.61 4.28 225.69 2.46 228.77 0.64 233.17 0.48L233.17 0.48Q233.61-1.52 234.01-4.2 234.41-6.88 234.93-9.4L234.93-9.4 234.57-9.4Q229.37-0.16 226.65-0.16L226.65-0.16Q223.61-0.16 223.61-4.84 223.61-9.52 225.61-14.26 227.61-19 229.25-19.36L229.25-19.36 229.49-19.4Q230.17-19.4 230.17-18.52L230.17-18.52Q229.73-17.44 229.05-15.7 228.37-13.96 227.25-9.98 226.13-6 226.13-3.78 226.13-1.56 227.09-1.56L227.09-1.56Q228.21-1.56 230.69-5.44L230.69-5.44Q234.33-11.12 237.01-16.96L237.01-16.96Q238.17-19.4 239.49-19.4L239.49-19.4Q240.33-19.4 240.33-18.48L240.33-18.48Q239.57-17.08 238.49-13.24 237.41-9.4 236.73-5.5 236.05-1.6 235.57 0.6L235.57 0.6Q238.61 1.12 239.09 3.24L239.09 3.24Q239.17 3.6 239.17 4.22 239.17 4.84 238.69 5.3 238.21 5.76 237.85 5.76L237.85 5.76Q237.93 5.48 237.89 4.78 237.85 4.08 237.63 3.6 237.41 3.12 236.81 2.6 236.21 2.08 235.25 1.84L235.25 1.84Q232.17 13.44 224.57 13.44L224.57 13.44Q221.29 13.44 220.21 11.12L220.21 11.12Q220.17 11 220.17 10.92L220.17 10.92Q220.17 10.68 220.59 10.62 221.01 10.56 221.21 10.88L221.21 10.88Q221.93 12.52 224.57 12.52ZM254.73 1.64L254.73 1.64Q254.73 4.6 257.85 5.2L257.85 5.2Q258.45 5.32 259.21 5.32L259.21 5.32Q264.21 5.32 267.13 2.1 270.05-1.12 270.05-6L270.05-6Q270.05-7.92 269.35-9.54 268.65-11.16 267.61-12.22 266.57-13.28 265.35-14.36 264.13-15.44 263.09-16.32 262.05-17.2 261.35-18.44 260.65-19.68 260.65-21.08L260.65-21.08Q260.65-24.76 263.95-27.86 267.25-30.96 271.05-30.96L271.05-30.96Q271.81-30.96 272.17-30.4 272.53-29.84 272.53-29.28L272.53-29.28 272.49-28.76Q272.21-28.92 271.09-28.92L271.09-28.92Q268.53-28.92 266.13-26.52 263.73-24.12 263.73-20.96L263.73-20.96Q263.73-19.68 264.43-18.46 265.13-17.24 266.17-16.32 267.21-15.4 268.41-14.26 269.61-13.12 270.65-12.02 271.69-10.92 272.39-9.34 273.09-7.76 273.09-6L273.09-6Q273.09-1.16 269.09 2.6 265.09 6.36 259.21 6.36L259.21 6.36Q254.25 6.36 252.93 3.16L252.93 3.16Q251.89 0.52 253.73-2.68 255.57-5.88 259.05-7L259.05-7Q260.33-7.4 261.33-7.4 262.33-7.4 262.71-7.06 263.09-6.72 263.21-6L263.21-6Q259.45-6 256.77-2.96L256.77-2.96Q254.73-0.68 254.73 1.64ZM273.29-20.48L273.29-20.48Q273.29-20.28 272.91-20.28 272.53-20.28 272.21-20.44 271.89-20.6 271.89-20.88L271.89-20.88Q271.89-24.96 272.81-27.44 273.73-29.92 275.25-29.92L275.25-29.92Q275.65-29.92 275.93-29.64 276.21-29.36 276.21-28.92L276.21-28.92Q274.41-27.12 273.61-23.52L273.61-23.52Q273.29-22.08 273.29-20.48ZM289.2-12.44L289.2-12.44Q290.52-14.56 290.52-16.42 290.52-18.28 289.36-18.28L289.36-18.28Q287.96-18.28 286.18-15.82 284.4-13.36 283.02-10.24 281.64-7.12 280.68-4.46 279.72-1.8 279.72-1.24L279.72-1.24Q279.68-0.76 279.16-0.76L279.16-0.76Q277.96-0.76 277.96-3.96L277.96-3.96Q277.96-10.32 279.24-16.74 280.52-23.16 282.28-27.02 284.04-30.88 285.56-30.88L285.56-30.88Q286.2-30.88 286.2-30.24L286.2-30.24Q284.08-25.56 282.52-18.84L282.52-18.84Q281.24-13.64 280.36-7.68L280.36-7.68 280.68-7.68Q285.24-19.4 289.8-19.4L289.8-19.4Q292.64-19.4 292.64-16.16L292.64-16.16Q292.64-14.08 291.1-11.76 289.56-9.44 287.2-8.68L287.2-8.68Q287.68-8.24 289.16-3.2L289.16-3.2Q289.68-1.4 290.6 0.08 291.52 1.56 292.58 1.56 293.64 1.56 294.16 0.8L294.16 0.8Q294.4 0.8 294.4 1 294.4 1.2 294.2 1.6L294.2 1.6Q293.32 2.8 292.04 2.92L292.04 2.92Q290.4 2.92 288.96 1.24 287.52-0.44 286.72-2.44 285.92-4.44 285.22-6.42 284.52-8.4 284.36-8.64L284.36-8.64Q284.08-8.84 284-9.12L284-9.12Q287.16-9.12 289.2-12.44ZM296.16-3.4L296.16-3.4Q296.16-9.32 297.38-13.96 298.6-18.6 300.48-18.6L300.48-18.6Q301.4-18.6 301.4-17.6L301.4-17.6Q301-16.56 300.4-14.84 299.8-13.12 298.82-8.62 297.84-4.12 297.84-0.6L297.84-0.6Q297.84-0.04 297.24-0.04L297.24-0.04Q296.16-0.04 296.16-3.4ZM302-23.04L301.52-22.36Q300.68-22.36 300.68-23.96L300.68-23.96Q300.68-24.92 301.2-25.98 301.72-27.04 302.68-27.04L302.68-27.04Q303.48-27.04 303.48-26.12L303.48-26.12Q303.48-25.2 302-23.04L302-23.04ZM306.56-6.48L306.92-6.48Q312.08-19.24 316.96-19.24L316.96-19.24Q319-19.24 319-17.28L319-17.28Q318.72-16.36 318.28-14.86 317.84-13.36 317.1-9.48 316.36-5.6 316.36-2.68L316.36-2.68Q316.36 1.56 317.6 1.56L317.6 1.56Q318.08 1.56 318.52 1.18 318.96 0.8 319.12 0.8L319.12 0.8Q319.68 0.8 319.12 1.68L319.12 1.68Q318.92 1.96 318.38 2.44 317.84 2.92 317.28 2.92L317.28 2.92Q315.76 2.92 314.9 0.74 314.04-1.44 314.04-4.92L314.04-4.92Q314.04-10.44 315.76-17.04L315.76-17.04Q315.92-17.56 315.44-17.56L315.44-17.56Q315.12-17.56 314.72-17.24L314.72-17.24Q312.8-15.56 310.68-11.68 308.56-7.8 307.36-4.74 306.16-1.68 306.16-1.18 306.16-0.68 305.6-0.68L305.6-0.68Q304.32-0.68 304.32-3.84L304.32-3.84Q304.32-9.8 305.54-14.64 306.76-19.48 308.48-19.48L308.48-19.48Q309.2-19.48 309.2-18.6L309.2-18.6Q307.36-12.64 306.56-6.48L306.56-6.48ZM344.92-20.56L344.92-20.56Q344.92-20.4 344.58-20.36 344.24-20.32 343.9-20.48 343.56-20.64 343.56-20.92L343.56-20.92Q343.56-25 344.48-27.5 345.4-30 346.88-30L346.88-30Q347.28-30 347.56-29.72 347.84-29.44 347.84-28.96L347.84-28.96Q346-27.12 345.24-23.6L345.24-23.6Q344.92-22.16 344.92-20.56ZM342.52-29.04L342.52-29.04Q337-29.04 332.64-22.6L332.64-22.6Q328.88-17.04 327.72-9.64L327.72-9.64Q327.32-7.2 327.32-5.16L327.32-5.16Q327.32-1.24 328.76 1.14 330.2 3.52 332.8 3.52L332.8 3.52Q336.32 3.52 338.8-0.52L338.8-0.52Q340.48-3.24 340.48-5.32L340.48-5.32Q340.48-6.24 340-6.24L340-6.24Q340.24-7.16 341.2-7.16L341.2-7.16Q342.32-7.16 342.32-5.56L342.32-5.56Q342.32-2.56 339.68 0.84L339.68 0.84Q336.52 4.88 332.28 4.88L332.28 4.88Q326.96 4.88 325.08-0.44L325.08-0.44Q324.16-2.92 324.16-6.06 324.16-9.2 325.2-13.08L325.2-13.08Q327.2-20.76 331.94-25.84 336.68-30.92 342.44-30.96L342.44-30.96Q343.24-30.96 343.6-30.44 343.96-29.92 343.92-29.44L343.92-29.44 343.92-28.92Q343.6-29.04 342.52-29.04ZM349.31 0L349.31 0Q346.03 0 346.03-5.16L346.03-5.16Q346.03-8.24 347.55-11.92L347.55-11.92Q349.67-17.08 353.11-18.96L353.11-18.96Q354.59-19.76 355.87-19.76 357.15-19.76 357.89-19.2 358.63-18.64 358.83-18.08L358.83-18.08 359.07-17.56Q358.95-16.88 358.39-16.88L358.39-16.88Q357.75-16.88 357.65-17.18 357.55-17.48 357.43-17.7 357.31-17.92 356.87-18.3 356.43-18.68 355.87-18.68L355.87-18.68Q353.27-18.68 351.15-14L351.15-14Q348.75-8.6 348.75-3.84L348.75-3.84Q348.75-1.44 349.71-1.44L349.71-1.44Q350.47-1.44 351.85-3.14 353.23-4.84 354.75-7.4L354.75-7.4Q357.39-11.8 359.03-15.04L359.03-15.04Q360.39-17.92 361.83-17.92L361.83-17.92Q362.59-17.92 362.59-17L362.59-17Q362.23-16.24 361.67-14.84 361.11-13.44 360.19-9.28 359.27-5.12 359.27-1 359.27 3.12 360.51 3.12L360.51 3.12Q360.99 3.12 361.39 2.7 361.79 2.28 362.11 1.44L362.11 1.44Q362.23 1 362.67 1L362.67 1Q362.83 1 362.91 1.12 362.99 1.24 362.91 1.52 362.83 1.8 362.63 2.3 362.43 2.8 361.77 3.64 361.11 4.48 360.39 4.48L360.39 4.48Q358.71 4.48 357.81 2.28 356.91 0.08 356.91-2.92 356.91-5.92 357.35-8.68L357.35-8.68 356.95-8.68Q351.87 0 349.31 0ZM377.79-11.48L377.79-11.48Q376.27-11.48 376.27-14.8L376.27-14.8Q376.27-16.68 376.99-18.32L376.99-18.32Q374.27-15.96 370.91-9.54 367.55-3.12 367.55-1.16L367.55-1.16Q367.55-0.68 366.91-0.68L366.91-0.68Q365.75-0.68 365.75-3.84L365.75-3.84Q365.75-9.8 366.95-14.64 368.15-19.48 369.87-19.48L369.87-19.48Q370.63-19.48 370.63-18.6L370.63-18.6Q368.79-12.76 367.99-6.64L367.99-6.64 368.27-6.64Q371.51-14.12 375.43-18.32L375.43-18.32Q377.67-20.72 379.51-20.72L379.51-20.72Q379.91-20.72 380.17-20.48 380.43-20.24 380.43-19.88L380.43-19.88Q380.15-19.6 379.75-19.04 379.35-18.48 378.67-16.38 377.99-14.28 377.99-11.8L377.99-11.8Q377.99-11.48 377.79-11.48ZM390.83-19.4L390.83-19.4Q393.87-19.4 393.87-15.84L393.87-15.84Q393.87-13.8 392.51-11.56L392.51-11.56Q390.19-7.84 386.35-7.84L386.35-7.84Q385.75-7.84 385.35-8.04 384.95-8.24 384.75-8.64L384.75-8.64Q387.59-8.64 389.95-11.92L389.95-11.92Q391.87-14.56 391.87-16.76L391.87-16.76Q391.87-18.4 390.55-18.4L390.55-18.4Q387.91-18.4 385.63-14.28L385.63-14.28Q383.19-9.8 383.19-5.08L383.19-5.08Q383.19-1.08 385.47-0.28L385.47-0.28Q385.91-0.12 386.59-0.12 387.27-0.12 388.03-0.46 388.79-0.8 389.31-1.28L389.31-1.28Q390.35-2.24 391.03-3.4L391.03-3.4Q391.19-3.72 391.63-3.72L391.63-3.72Q392.35-3.72 392.31-3.48L392.31-3.48Q392.19-3.04 391.41-2 390.63-0.96 389.97-0.34 389.31 0.28 388.25 0.78 387.19 1.28 386.11 1.28L386.11 1.28Q381.87 1.28 380.71-2.72L380.71-2.72Q380.35-4.08 380.35-5.52L380.35-5.52Q380.35-8.2 381.59-11.36L381.59-11.36Q383.55-16.16 386.99-18.28L386.99-18.28Q388.87-19.4 390.83-19.4Z" opacity="1" transform="matrix(1,0,0,1,0,0)" fill="#a437db" class="wordmark-text-0" data-fill-palette-color="primary" id="text-0"></path></svg></g></svg></g><g transform="matrix(1,0,0,1,0,58.113071737654316)"><svg viewBox="0 0 395.52 41.3548082680203" height="41.3548082680203" width="395.52"><g transform="matrix(1,0,0,1,0,0)"><svg width="395.52" viewBox="2.75 -47 668.05 69.85000000000001" height="41.3548082680203" data-palette-color="#b19dd0"><path d="M49.05-11.15Q49.7-11.15 50.08-10.55 50.45-9.95 50.45-8.9L50.45-8.9Q50.45-6.95 49.5-5.8L49.5-5.8Q47.1-2.9 44.65-1.33 42.2 0.25 38.85 0.25L38.85 0.25Q35.6 0.25 33.33-1.5 31.05-3.25 29-7.5L29-7.5Q27.35-10.9 26.4-12.53 25.45-14.15 24.53-14.85 23.6-15.55 22.25-15.7L22.25-15.7Q22.05-14.65 21.1-9.1L21.1-9.1Q20.7-6.6 20.6-6.05L20.6-6.05Q20.1-3 18.6-1.38 17.1 0.25 14.05 0.25L14.05 0.25Q10.7 0.25 8.13-1.73 5.55-3.7 4.15-7.23 2.75-10.75 2.75-15.25L2.75-15.25Q2.75-23.65 5.68-29.75 8.6-35.85 13.88-39.08 19.15-42.3 26.05-42.3L26.05-42.3Q30.85-42.3 34.1-40.85 37.35-39.4 38.93-36.85 40.5-34.3 40.5-31.1L40.5-31.1Q40.5-28.3 39.18-25.63 37.85-22.95 35.2-20.9 32.55-18.85 28.75-17.85L28.75-17.85Q31.15-17.2 32.45-15.75 33.75-14.3 35.05-11.5L35.05-11.5Q36.45-8.5 37.83-7.1 39.2-5.7 41-5.7L41-5.7Q42.6-5.7 44.05-6.78 45.5-7.85 47.7-10.45L47.7-10.45Q48.3-11.15 49.05-11.15L49.05-11.15ZM14-8.25L15.35-15.75Q13.65-15.75 13.03-16.55 12.4-17.35 12.4-18.35L12.4-18.35Q12.4-19.55 13.18-20.25 13.95-20.95 14.95-20.95L14.95-20.95 16.2-20.95Q17-25.85 17.7-29.4L17.7-29.4Q18.35-32.65 21.9-32.65L21.9-32.65Q24.75-32.65 24.75-30.1L24.75-30.1Q24.75-29.55 24.7-29.25L24.7-29.25 23.2-20.95Q25.9-21.1 28.13-22.25 30.35-23.4 31.68-25.45 33-27.5 33-30.1L33-30.1Q33-33.25 30.85-35.05 28.7-36.85 24.55-36.85L24.55-36.85Q19.65-36.85 15.98-34.43 12.3-32 10.25-27.23 8.2-22.45 8.2-15.6L8.2-15.6Q8.2-12.4 8.85-10.1 9.5-7.8 10.45-6.65 11.4-5.5 12.25-5.5L12.25-5.5Q12.9-5.5 13.33-6.15 13.75-6.8 14-8.25L14-8.25ZM52.77 0.25Q49.67 0.25 47.82-2 45.97-4.25 45.97-7.9L45.97-7.9Q45.97-11.9 47.82-15.48 49.67-19.05 52.74-21.23 55.82-23.4 59.27-23.4L59.27-23.4Q60.37-23.4 60.74-22.98 61.12-22.55 61.37-21.45L61.37-21.45Q62.42-21.65 63.57-21.65L63.57-21.65Q66.02-21.65 66.02-19.9L66.02-19.9Q66.02-18.85 65.27-14.9L65.27-14.9Q64.12-9.15 64.12-6.9L64.12-6.9Q64.12-6.15 64.49-5.7 64.87-5.25 65.47-5.25L65.47-5.25Q66.42-5.25 67.77-6.48 69.12-7.7 71.42-10.45L71.42-10.45Q72.02-11.15 72.77-11.15L72.77-11.15Q73.42-11.15 73.79-10.55 74.17-9.95 74.17-8.9L74.17-8.9Q74.17-6.9 73.22-5.8L73.22-5.8Q71.17-3.25 68.87-1.5 66.57 0.25 64.42 0.25L64.42 0.25Q62.77 0.25 61.39-0.88 60.02-2 59.32-3.95L59.32-3.95Q56.72 0.25 52.77 0.25L52.77 0.25ZM54.57-4.8Q55.67-4.8 56.67-6.1 57.67-7.4 58.12-9.55L58.12-9.55 59.97-18.75Q57.87-18.7 56.09-17.18 54.32-15.65 53.27-13.15 52.22-10.65 52.22-7.85L52.22-7.85Q52.22-6.3 52.84-5.55 53.47-4.8 54.57-4.8L54.57-4.8ZM98.03-11.15Q98.68-11.15 99.06-10.55 99.43-9.95 99.43-8.9L99.43-8.9Q99.43-6.9 98.48-5.8L98.48-5.8Q96.33-3.15 93.86-1.45 91.38 0.25 88.23 0.25L88.23 0.25Q85.58 0.25 83.93-1.65L83.93-1.65Q81.08 0.2 77.98 0.25L77.98 0.25Q77.33 9.9 75.03 16.38 72.73 22.85 68.28 22.85L68.28 22.85Q65.58 22.85 64.28 20.9 62.98 18.95 62.98 15.5L62.98 15.5Q62.98 10.6 65.23 4.08 67.48-2.45 72.18-10.3L72.18-10.3Q72.18-17.6 72.08-20.45L72.08-20.45Q72.03-21.9 73.23-22.75 74.43-23.6 76.23-23.6L76.23-23.6Q77.28-23.6 77.76-23.18 78.23-22.75 78.28-21.5L78.28-21.5Q78.28-20.25 78.33-19.65L78.33-19.65Q79.93-21.65 81.48-22.53 83.03-23.4 84.78-23.4L84.78-23.4Q87.58-23.4 89.36-21.15 91.13-18.9 91.13-15.25L91.13-15.25Q91.13-12.6 90.28-10.1 89.43-7.6 87.93-5.55L87.93-5.55Q88.98-5.25 89.68-5.25L89.68-5.25Q91.33-5.25 92.83-6.45 94.33-7.65 96.68-10.45L96.68-10.45Q97.28-11.15 98.03-11.15L98.03-11.15ZM78.23-4.55Q80.03-4.95 81.56-6.53 83.08-8.1 83.98-10.43 84.88-12.75 84.88-15.3L84.88-15.3Q84.88-16.8 84.28-17.57 83.68-18.35 82.68-18.35L82.68-18.35Q80.88-18.35 78.33-14.55L78.33-14.55Q78.28-12.35 78.28-8.1L78.28-8.1Q78.28-5.8 78.23-4.55L78.23-4.55ZM68.68 17.95Q70.03 17.95 70.93 12.08 71.83 6.2 72.08-2.55L72.08-2.55Q69.93 2.45 68.68 7 67.43 11.55 67.43 14.65L67.43 14.65Q67.43 16.25 67.81 17.1 68.18 17.95 68.68 17.95L68.68 17.95ZM124.35-11.15Q125-11.15 125.37-10.55 125.75-9.95 125.75-8.9L125.75-8.9Q125.75-6.9 124.8-5.8L124.8-5.8Q122.5-3.15 120.07-1.45 117.65 0.25 114.55 0.25L114.55 0.25Q112 0.25 110.7-1.23 109.4-2.7 109.4-5.5L109.4-5.5Q109.4-6.9 110.1-10.5L110.1-10.5Q110.75-13.65 110.75-14.85L110.75-14.85Q110.75-15.65 110.2-15.65L110.2-15.65Q109.55-15.65 108.35-13.98 107.15-12.3 105.95-9.55 104.75-6.8 104-3.75L104-3.75Q103.05 0.25 99.3 0.25L99.3 0.25Q97.8 0.25 97.32-0.83 96.85-1.9 96.85-4.7L96.85-4.7Q96.85-6.3 96.9-7.25L96.9-7.25 96.95-11.25Q96.95-18.95 98.52-27.3 100.1-35.65 103.17-41.33 106.25-47 110.55-47L110.55-47Q112.85-47 114.27-45.03 115.7-43.05 115.7-39.9L115.7-39.9Q115.7-34.85 112.75-29.43 109.8-24 103.15-16.75L103.15-16.75Q103-14.15 103-11.4L103-11.4Q104.65-15.65 106.67-18.32 108.7-21 110.67-22.15 112.65-23.3 114.3-23.3L114.3-23.3Q117.55-23.3 117.55-20.05L117.55-20.05Q117.55-18.1 116.45-13L116.45-13Q115.5-8.65 115.5-7.25L115.5-7.25Q115.5-5.25 116.95-5.25L116.95-5.25Q117.95-5.25 119.32-6.48 120.7-7.7 123-10.45L123-10.45Q123.6-11.15 124.35-11.15L124.35-11.15ZM109.5-42.05Q108.6-42.05 107.5-39.48 106.4-36.9 105.37-32.52 104.35-28.15 103.7-23L103.7-23Q106.8-26.65 108.82-30.95 110.85-35.25 110.85-38.75L110.85-38.75Q110.85-40.35 110.5-41.2 110.15-42.05 109.5-42.05L109.5-42.05ZM145.21-11.15Q145.86-11.15 146.24-10.55 146.61-9.95 146.61-8.9L146.61-8.9Q146.61-6.9 145.66-5.8L145.66-5.8Q143.81-3.55 140.44-1.65 137.06 0.25 133.21 0.25L133.21 0.25Q127.96 0.25 125.06-2.6 122.16-5.45 122.16-10.4L122.16-10.4Q122.16-13.85 123.61-16.82 125.06-19.8 127.64-21.55 130.21-23.3 133.46-23.3L133.46-23.3Q136.36-23.3 138.11-21.58 139.86-19.85 139.86-16.9L139.86-16.9Q139.86-13.45 137.39-10.98 134.91-8.5 129.01-7.05L129.01-7.05Q130.26-4.75 133.76-4.75L133.76-4.75Q136.01-4.75 138.89-6.33 141.76-7.9 143.86-10.45L143.86-10.45Q144.46-11.15 145.21-11.15L145.21-11.15ZM132.61-18.4Q130.76-18.4 129.49-16.25 128.21-14.1 128.21-11.05L128.21-11.05 128.21-10.95Q131.16-11.65 132.86-13.05 134.56-14.45 134.56-16.3L134.56-16.3Q134.56-17.25 134.04-17.82 133.51-18.4 132.61-18.4L132.61-18.4ZM166.08-11.15Q166.73-11.15 167.1-10.55 167.48-9.95 167.48-8.9L167.48-8.9Q167.48-6.9 166.53-5.8L166.53-5.8Q164.68-3.55 161.3-1.65 157.93 0.25 154.08 0.25L154.08 0.25Q148.83 0.25 145.93-2.6 143.03-5.45 143.03-10.4L143.03-10.4Q143.03-13.85 144.48-16.82 145.93-19.8 148.5-21.55 151.08-23.3 154.33-23.3L154.33-23.3Q157.23-23.3 158.98-21.58 160.73-19.85 160.73-16.9L160.73-16.9Q160.73-13.45 158.25-10.98 155.78-8.5 149.88-7.05L149.88-7.05Q151.13-4.75 154.63-4.75L154.63-4.75Q156.88-4.75 159.75-6.33 162.63-7.9 164.73-10.45L164.73-10.45Q165.33-11.15 166.08-11.15L166.08-11.15ZM153.48-18.4Q151.63-18.4 150.35-16.25 149.08-14.1 149.08-11.05L149.08-11.05 149.08-10.95Q152.03-11.65 153.73-13.05 155.43-14.45 155.43-16.3L155.43-16.3Q155.43-17.25 154.9-17.82 154.38-18.4 153.48-18.4L153.48-18.4ZM175.1 0.25Q172.9 0.25 171.77-0.95 170.65-2.15 170.65-4.1L170.65-4.1Q170.65-6.35 171.92-7.7 173.2-9.05 175.5-9.05L175.5-9.05Q177.7-9.05 178.82-7.98 179.95-6.9 179.95-4.8L179.95-4.8Q179.95-2.5 178.65-1.13 177.35 0.25 175.1 0.25L175.1 0.25ZM176.85-14Q174.65-14 173.52-15.2 172.4-16.4 172.4-18.35L172.4-18.35Q172.4-20.6 173.67-21.95 174.95-23.3 177.25-23.3L177.25-23.3Q179.45-23.3 180.57-22.23 181.7-21.15 181.7-19.05L181.7-19.05Q181.7-16.75 180.4-15.38 179.1-14 176.85-14L176.85-14ZM242.38-11.05Q243.03-11.05 243.4-10.43 243.78-9.8 243.78-8.85L243.78-8.85Q243.78-7.7 243.43-7.05 243.08-6.4 242.33-5.9L242.33-5.9Q239.38-3.95 232.93 0.5L232.93 0.5Q230.98 10.85 227.88 16.8 224.78 22.75 220.03 22.75L220.03 22.75Q217.48 22.75 215.88 21.18 214.28 19.6 214.28 17.05L214.28 17.05Q214.28 14.7 215.33 12.3 216.38 9.9 219.25 6.75 222.13 3.6 227.38-0.45L227.38-0.45 227.53-1.4Q223.58 0.25 219.78 0.25L219.78 0.25Q214.18 0.25 209.93-1.93 205.68-4.1 203.33-8.1 200.98-12.1 200.98-17.4L200.98-17.4Q200.98-24.8 203.78-30.48 206.58-36.15 211.5-39.28 216.43-42.4 222.53-42.4L222.53-42.4Q228.38-42.4 231.3-39.68 234.23-36.95 234.23-32.45L234.23-32.45Q234.23-29.5 233.15-27.73 232.08-25.95 230.08-25.95L230.08-25.95Q228.73-25.95 227.9-26.6 227.08-27.25 227.08-28.4L227.08-28.4Q227.08-28.9 227.28-30.1L227.28-30.1Q227.58-31.5 227.58-32.3L227.58-32.3Q227.58-34.4 226.3-35.55 225.03-36.7 222.03-36.7L222.03-36.7Q218.38-36.7 215.25-34.6 212.13-32.5 210.23-28.33 208.33-24.15 208.33-18.3L208.33-18.3Q208.33-12.3 211.6-9.03 214.88-5.75 221.08-5.75L221.08-5.75Q224.53-5.75 228.28-7.3L228.28-7.3 228.98-13.4 223.88-13.4Q222.48-13.4 221.73-14.08 220.98-14.75 220.98-16.3L220.98-16.3Q220.98-17.7 221.73-18.5 222.48-19.3 223.73-19.3L223.73-19.3 233.08-19.3Q234.18-19.3 234.9-18.57 235.63-17.85 235.48-16.5L235.48-16.5Q235.33-14.9 234.48-9.25L234.48-9.25 233.93-5.45Q237.93-8.45 241.23-10.65L241.23-10.65Q241.88-11.05 242.38-11.05L242.38-11.05ZM220.58 17.9Q221.88 17.9 223.43 14.95 224.98 12 226.33 5.45L226.33 5.45Q222.53 8.7 220.85 11.33 219.18 13.95 219.18 15.95L219.18 15.95Q219.18 17.9 220.58 17.9L220.58 17.9ZM260.89-11.15Q261.54-11.15 261.92-10.55 262.29-9.95 262.29-8.9L262.29-8.9Q262.29-6.9 261.34-5.8L261.34-5.8Q259.19-3.15 256.67-1.45 254.14 0.25 250.94 0.25L250.94 0.25Q246.54 0.25 244.42-3.75 242.29-7.75 242.29-14.1L242.29-14.1Q242.29-20.2 243.87-28 245.44-35.8 248.52-41.4 251.59-47 255.84-47L255.84-47Q258.24-47 259.62-44.78 260.99-42.55 260.99-38.4L260.99-38.4Q260.99-32.45 257.69-24.6 254.39-16.75 248.74-9.05L248.74-9.05Q249.09-7 249.89-6.13 250.69-5.25 251.99-5.25L251.99-5.25Q254.04-5.25 255.59-6.43 257.14-7.6 259.54-10.45L259.54-10.45Q260.14-11.15 260.89-11.15L260.89-11.15ZM254.74-42.05Q253.59-42.05 252.14-37.9 250.69-33.75 249.59-27.6 248.49-21.45 248.39-15.8L248.39-15.8Q251.94-21.65 254.04-27.53 256.14-33.4 256.14-38.25L256.14-38.25Q256.14-42.05 254.74-42.05L254.74-42.05ZM284.96-15.35Q285.61-15.35 285.96-14.7 286.31-14.05 286.31-13.05L286.31-13.05Q286.31-10.65 284.86-10.2L284.86-10.2Q281.86-9.15 278.26-9L278.26-9Q277.31-4.8 274.51-2.27 271.71 0.25 268.16 0.25L268.16 0.25Q265.16 0.25 263.03-1.2 260.91-2.65 259.81-5.05 258.71-7.45 258.71-10.25L258.71-10.25Q258.71-14.05 260.16-17.03 261.61-20 264.16-21.68 266.71-23.35 269.81-23.35L269.81-23.35Q273.61-23.35 275.93-20.73 278.26-18.1 278.66-14.25L278.66-14.25Q281.01-14.4 284.26-15.25L284.26-15.25Q284.66-15.35 284.96-15.35L284.96-15.35ZM268.56-5.05Q270.16-5.05 271.33-6.35 272.51-7.65 272.91-10.1L272.91-10.1Q271.36-11.15 270.53-12.85 269.71-14.55 269.71-16.45L269.71-16.45Q269.71-17.25 269.86-18.05L269.86-18.05 269.61-18.05Q267.61-18.05 266.28-16.13 264.96-14.2 264.96-10.7L264.96-10.7Q264.96-7.95 266.03-6.5 267.11-5.05 268.56-5.05L268.56-5.05ZM321.03-15.2Q321.18-15.25 321.53-15.25L321.53-15.25Q322.28-15.25 322.68-14.75 323.08-14.25 323.08-13.4L323.08-13.4Q323.08-11.85 322.48-10.98 321.88-10.1 320.68-9.7L320.68-9.7Q318.38-8.95 315.78-8.95L315.78-8.95Q313.58-8.95 311.63-9.55L311.63-9.55Q310.18-7.2 308.43-4.7L308.43-4.7Q306.43-1.85 305-0.8 303.58 0.25 301.78 0.25L301.78 0.25Q299.78 0.25 298.75-1.3 297.73-2.85 297.48-6.4L297.48-6.4 297.23-10.05Q295.68-5.85 294.45-3.65 293.23-1.45 292-0.6 290.78 0.25 289.13 0.25L289.13 0.25Q287.08 0.25 285.9-1.35 284.73-2.95 284.43-6.4L284.43-6.4Q283.83-13.4 283.83-18.65L283.83-18.65 283.83-20.4Q283.88-22.05 284.73-22.7 285.58-23.35 287.28-23.35L287.28-23.35Q288.58-23.35 289.2-22.78 289.83-22.2 289.83-20.85L289.83-20.85Q289.83-15.1 290.53-5.9L290.53-5.9Q293.93-13.05 296.78-20.8L296.78-20.8Q297.33-22.3 298.1-22.83 298.88-23.35 299.98-23.35L299.98-23.35Q301.33-23.35 301.85-22.8 302.38-22.25 302.38-20.85L302.38-20.85Q302.38-15.1 303.08-5.9L303.08-5.9Q306.08-10.35 307.58-13L307.58-13Q306.83-14.45 306.83-16.45L306.83-16.45Q306.83-18.15 307.58-19.75 308.33-21.35 309.63-22.35 310.93-23.35 312.58-23.35L312.58-23.35Q314.03-23.35 314.93-22.33 315.83-21.3 315.83-19.35L315.83-19.35Q315.83-17.1 314.63-14.2L314.63-14.2Q316.53-14.3 319.68-14.95L319.68-14.95 321.03-15.2ZM375.41-32Q375.41-27.75 372.41-24.68 369.41-21.6 363.66-20.25L363.66-20.25Q366.76-19.4 368.36-17.48 369.96-15.55 369.96-13.05L369.96-13.05Q369.96-9.1 367.48-6.2 365.01-3.3 360.26-1.73 355.51-0.15 348.81-0.15L348.81-0.15Q346.31-0.15 344.81-0.3L344.81-0.3Q344.76 1.1 343.61 1.8 342.46 2.5 340.66 2.5L340.66 2.5Q338.86 2.5 338.18 1.7 337.51 0.9 337.61-0.65L337.61-0.65Q338.06-7.65 339.36-15.33 340.66-23 342.66-30.15L342.66-30.15Q343.01-31.4 344.06-31.9 345.11-32.4 346.81-32.4L346.81-32.4Q349.86-32.4 349.86-30.7L349.86-30.7Q349.86-30 349.56-29.1L349.56-29.1Q348.26-25.2 346.96-18.53 345.66-11.85 345.11-5.8L345.11-5.8Q347.51-5.6 349.01-5.6L349.01-5.6Q356.01-5.6 359.28-7.63 362.56-9.65 362.56-12.8L362.56-12.8Q362.56-15 360.68-16.5 358.81-18 354.41-18.15L354.41-18.15Q353.41-18.2 353.01-18.65 352.61-19.1 352.61-20.1L352.61-20.1Q352.61-21.55 353.21-22.45 353.81-23.35 355.41-23.4L355.41-23.4Q358.96-23.5 361.83-24.45 364.71-25.4 366.36-27.13 368.01-28.85 368.01-31.15L368.01-31.15Q368.01-34.05 365.16-35.73 362.31-37.4 356.41-37.4L356.41-37.4Q351.06-37.4 346.06-36.02 341.06-34.65 337.56-32.55L337.56-32.55Q335.96-31.6 334.86-31.6L334.86-31.6Q333.96-31.6 333.48-32.23 333.01-32.85 333.01-33.8L333.01-33.8Q333.01-35.05 333.53-35.95 334.06-36.85 336.06-38L336.06-38Q340.26-40.4 345.91-41.75 351.56-43.1 357.46-43.1L357.46-43.1Q366.51-43.1 370.96-40.05 375.41-37 375.41-32L375.41-32ZM397.52-11.15Q398.17-11.15 398.55-10.55 398.92-9.95 398.92-8.9L398.92-8.9Q398.92-6.9 397.97-5.8L397.97-5.8Q396.12-3.55 392.75-1.65 389.37 0.25 385.52 0.25L385.52 0.25Q380.27 0.25 377.37-2.6 374.47-5.45 374.47-10.4L374.47-10.4Q374.47-13.85 375.92-16.82 377.37-19.8 379.95-21.55 382.52-23.3 385.77-23.3L385.77-23.3Q388.67-23.3 390.42-21.58 392.17-19.85 392.17-16.9L392.17-16.9Q392.17-13.45 389.7-10.98 387.22-8.5 381.32-7.05L381.32-7.05Q382.57-4.75 386.07-4.75L386.07-4.75Q388.32-4.75 391.2-6.33 394.07-7.9 396.17-10.45L396.17-10.45Q396.77-11.15 397.52-11.15L397.52-11.15ZM384.92-18.4Q383.07-18.4 381.8-16.25 380.52-14.1 380.52-11.05L380.52-11.05 380.52-10.95Q383.47-11.65 385.17-13.05 386.87-14.45 386.87-16.3L386.87-16.3Q386.87-17.25 386.35-17.82 385.82-18.4 384.92-18.4L384.92-18.4ZM421.69-11.05Q422.34-11.05 422.71-10.43 423.09-9.8 423.09-8.85L423.09-8.85Q423.09-7.7 422.74-7.05 422.39-6.4 421.64-5.9L421.64-5.9 412.04 0.55Q410.14 10.9 407.06 16.82 403.99 22.75 399.24 22.75L399.24 22.75Q396.69 22.75 395.09 21.18 393.49 19.6 393.49 17.05L393.49 17.05Q393.49 14.7 394.56 12.25 395.64 9.8 398.56 6.63 401.49 3.45 406.84-0.65L406.84-0.65 406.99-1.8Q407.34-3.65 407.79-7.1L407.79-7.1Q406.79-3.5 404.99-1.63 403.19 0.25 401.19 0.25L401.19 0.25Q398.94 0.25 397.51-1.83 396.09-3.9 396.09-7L396.09-7Q396.09-10.75 396.59-13.88 397.09-17 398.24-20.5L398.24-20.5Q398.74-22 399.64-22.65 400.54-23.3 402.49-23.3L402.49-23.3Q403.59-23.3 404.01-22.95 404.44-22.6 404.44-21.9L404.44-21.9Q404.44-21.5 403.89-19.2L403.89-19.2Q403.39-17.35 403.09-15.85L403.09-15.85Q402.69-13.8 402.39-11.93 402.09-10.05 402.09-8.85L402.09-8.85Q402.09-6.95 403.14-6.95L403.14-6.95Q403.89-6.95 405.01-8.45 406.14-9.95 407.41-13 408.69-16.05 409.89-20.5L409.89-20.5Q410.29-22 411.11-22.65 411.94-23.3 413.59-23.3L413.59-23.3Q414.74-23.3 415.19-23 415.64-22.7 415.64-22L415.64-22Q415.64-20.75 414.34-13.4L414.34-13.4 413.04-5.35Q416.89-8.25 420.54-10.65L420.54-10.65Q421.19-11.05 421.69-11.05L421.69-11.05ZM399.79 17.9Q401.04 17.9 402.59 15 404.14 12.1 405.69 5.35L405.69 5.35Q401.84 8.6 400.11 11.28 398.39 13.95 398.39 15.95L398.39 15.95Q398.39 16.8 398.71 17.35 399.04 17.9 399.79 17.9L399.79 17.9ZM446.76-15.35Q447.41-15.35 447.76-14.7 448.11-14.05 448.11-13.05L448.11-13.05Q448.11-10.65 446.66-10.2L446.66-10.2Q443.66-9.15 440.06-9L440.06-9Q439.11-4.8 436.31-2.27 433.51 0.25 429.96 0.25L429.96 0.25Q426.96 0.25 424.83-1.2 422.71-2.65 421.61-5.05 420.51-7.45 420.51-10.25L420.51-10.25Q420.51-14.05 421.96-17.03 423.41-20 425.96-21.68 428.51-23.35 431.61-23.35L431.61-23.35Q435.41-23.35 437.73-20.73 440.06-18.1 440.46-14.25L440.46-14.25Q442.81-14.4 446.06-15.25L446.06-15.25Q446.46-15.35 446.76-15.35L446.76-15.35ZM430.36-5.05Q431.96-5.05 433.13-6.35 434.31-7.65 434.71-10.1L434.71-10.1Q433.16-11.15 432.33-12.85 431.51-14.55 431.51-16.45L431.51-16.45Q431.51-17.25 431.66-18.05L431.66-18.05 431.41-18.05Q429.41-18.05 428.08-16.13 426.76-14.2 426.76-10.7L426.76-10.7Q426.76-7.95 427.83-6.5 428.91-5.05 430.36-5.05L430.36-5.05ZM448.57 0.25Q446.67 0.25 445.9-1.75 445.12-3.75 445.12-8.15L445.12-8.15Q445.12-14.65 446.97-20.5L446.97-20.5Q447.42-21.95 448.45-22.63 449.47-23.3 451.32-23.3L451.32-23.3Q452.32-23.3 452.72-23.05 453.12-22.8 453.12-22.1L453.12-22.1Q453.12-21.3 452.37-18.5L452.37-18.5Q451.87-16.5 451.57-15 451.27-13.5 451.07-11.3L451.07-11.3Q452.72-15.6 454.77-18.3 456.82-21 458.8-22.15 460.77-23.3 462.42-23.3L462.42-23.3Q465.67-23.3 465.67-20.05L465.67-20.05Q465.67-18.1 464.57-13L464.57-13Q463.62-8.65 463.62-7.25L463.62-7.25Q463.62-5.25 465.07-5.25L465.07-5.25Q466.07-5.25 467.45-6.48 468.82-7.7 471.12-10.45L471.12-10.45Q471.72-11.15 472.47-11.15L472.47-11.15Q473.12-11.15 473.5-10.55 473.87-9.95 473.87-8.9L473.87-8.9Q473.87-6.9 472.92-5.8L472.92-5.8Q470.77-3.15 468.3-1.45 465.82 0.25 462.67 0.25L462.67 0.25Q460.12 0.25 458.82-1.23 457.52-2.7 457.52-5.5L457.52-5.5Q457.52-6.9 458.22-10.5L458.22-10.5Q458.87-13.65 458.87-14.85L458.87-14.85Q458.87-15.65 458.32-15.65L458.32-15.65Q457.67-15.65 456.5-13.98 455.32-12.3 454.1-9.55 452.87-6.8 452.12-3.75L452.12-3.75Q451.57-1.4 450.85-0.58 450.12 0.25 448.57 0.25L448.57 0.25ZM499.44-11.15Q500.09-11.15 500.46-10.55 500.84-9.95 500.84-8.9L500.84-8.9Q500.84-6.9 499.89-5.8L499.89-5.8Q497.84-3.3 495.39-1.53 492.94 0.25 490.54 0.25L490.54 0.25Q486.74 0.25 484.74-4.2L484.74-4.2Q482.64-1.55 481.06-0.65 479.49 0.25 477.39 0.25L477.39 0.25Q474.34 0.25 472.36-2.02 470.39-4.3 470.39-7.95L470.39-7.95Q470.39-11.95 472.09-15.38 473.79-18.8 476.76-20.98 479.74-23.15 483.44-23.55L483.44-23.55Q484.39-33.25 487.06-40.13 489.74-47 494.09-47L494.09-47Q496.24-47 497.66-45.05 499.09-43.1 499.09-39.15L499.09-39.15Q499.09-33.55 496.34-26.05 493.59-18.55 488.99-10.65L488.99-10.65Q489.19-7.75 489.86-6.5 490.54-5.25 491.59-5.25L491.59-5.25Q492.94-5.25 494.34-6.45 495.74-7.65 498.09-10.45L498.09-10.45Q498.69-11.15 499.44-11.15L499.44-11.15ZM493.54-42.1Q492.59-42.1 491.64-38.73 490.69-35.35 490.01-29.9 489.34-24.45 489.04-18.5L489.04-18.5Q494.64-30.7 494.64-38.1L494.64-38.1Q494.64-40 494.31-41.05 493.99-42.1 493.54-42.1L493.54-42.1ZM479.14-4.8Q480.09-4.8 481.04-5.58 481.99-6.35 483.44-8.45L483.44-8.45Q482.94-11.15 482.94-14.5L482.94-14.5Q482.94-15.7 483.04-18.4L483.04-18.4Q480.29-17.55 478.46-14.73 476.64-11.9 476.64-8.45L476.64-8.45Q476.64-4.8 479.14-4.8L479.14-4.8ZM553.47-32Q553.47-27.75 550.47-24.68 547.47-21.6 541.72-20.25L541.72-20.25Q544.82-19.4 546.42-17.48 548.02-15.55 548.02-13.05L548.02-13.05Q548.02-9.1 545.54-6.2 543.07-3.3 538.32-1.73 533.57-0.15 526.87-0.15L526.87-0.15Q524.37-0.15 522.87-0.3L522.87-0.3Q522.82 1.1 521.67 1.8 520.52 2.5 518.72 2.5L518.72 2.5Q516.92 2.5 516.24 1.7 515.57 0.9 515.67-0.65L515.67-0.65Q516.12-7.65 517.42-15.33 518.72-23 520.72-30.15L520.72-30.15Q521.07-31.4 522.12-31.9 523.17-32.4 524.87-32.4L524.87-32.4Q527.92-32.4 527.92-30.7L527.92-30.7Q527.92-30 527.62-29.1L527.62-29.1Q526.32-25.2 525.02-18.53 523.72-11.85 523.17-5.8L523.17-5.8Q525.57-5.6 527.07-5.6L527.07-5.6Q534.07-5.6 537.34-7.63 540.62-9.65 540.62-12.8L540.62-12.8Q540.62-15 538.74-16.5 536.87-18 532.47-18.15L532.47-18.15Q531.47-18.2 531.07-18.65 530.67-19.1 530.67-20.1L530.67-20.1Q530.67-21.55 531.27-22.45 531.87-23.35 533.47-23.4L533.47-23.4Q537.02-23.5 539.89-24.45 542.77-25.4 544.42-27.13 546.07-28.85 546.07-31.15L546.07-31.15Q546.07-34.05 543.22-35.73 540.37-37.4 534.47-37.4L534.47-37.4Q529.12-37.4 524.12-36.02 519.12-34.65 515.62-32.55L515.62-32.55Q514.02-31.6 512.92-31.6L512.92-31.6Q512.02-31.6 511.54-32.23 511.07-32.85 511.07-33.8L511.07-33.8Q511.07-35.05 511.59-35.95 512.12-36.85 514.12-38L514.12-38Q518.32-40.4 523.97-41.75 529.62-43.1 535.52-43.1L535.52-43.1Q544.57-43.1 549.02-40.05 553.47-37 553.47-32L553.47-32ZM575.59-11.15Q576.24-11.15 576.61-10.55 576.99-9.95 576.99-8.9L576.99-8.9Q576.99-6.9 576.04-5.8L576.04-5.8Q574.19-3.55 570.81-1.65 567.44 0.25 563.59 0.25L563.59 0.25Q558.34 0.25 555.44-2.6 552.54-5.45 552.54-10.4L552.54-10.4Q552.54-13.85 553.99-16.82 555.44-19.8 558.01-21.55 560.59-23.3 563.84-23.3L563.84-23.3Q566.74-23.3 568.49-21.58 570.24-19.85 570.24-16.9L570.24-16.9Q570.24-13.45 567.76-10.98 565.29-8.5 559.39-7.05L559.39-7.05Q560.64-4.75 564.14-4.75L564.14-4.75Q566.39-4.75 569.26-6.33 572.14-7.9 574.24-10.45L574.24-10.45Q574.84-11.15 575.59-11.15L575.59-11.15ZM562.99-18.4Q561.14-18.4 559.86-16.25 558.59-14.1 558.59-11.05L558.59-11.05 558.59-10.95Q561.54-11.65 563.24-13.05 564.94-14.45 564.94-16.3L564.94-16.3Q564.94-17.25 564.41-17.82 563.89-18.4 562.99-18.4L562.99-18.4ZM580.05 0.25Q576.95 0.25 575.1-2 573.25-4.25 573.25-7.9L573.25-7.9Q573.25-11.9 575.1-15.48 576.95-19.05 580.03-21.23 583.1-23.4 586.55-23.4L586.55-23.4Q587.65-23.4 588.03-22.98 588.4-22.55 588.65-21.45L588.65-21.45Q589.7-21.65 590.85-21.65L590.85-21.65Q593.3-21.65 593.3-19.9L593.3-19.9Q593.3-18.85 592.55-14.9L592.55-14.9Q591.4-9.15 591.4-6.9L591.4-6.9Q591.4-6.15 591.78-5.7 592.15-5.25 592.75-5.25L592.75-5.25Q593.7-5.25 595.05-6.48 596.4-7.7 598.7-10.45L598.7-10.45Q599.3-11.15 600.05-11.15L600.05-11.15Q600.7-11.15 601.08-10.55 601.45-9.95 601.45-8.9L601.45-8.9Q601.45-6.9 600.5-5.8L600.5-5.8Q598.45-3.25 596.15-1.5 593.85 0.25 591.7 0.25L591.7 0.25Q590.05 0.25 588.68-0.88 587.3-2 586.6-3.95L586.6-3.95Q584 0.25 580.05 0.25L580.05 0.25ZM581.85-4.8Q582.95-4.8 583.95-6.1 584.95-7.4 585.4-9.55L585.4-9.55 587.25-18.75Q585.15-18.7 583.38-17.18 581.6-15.65 580.55-13.15 579.5-10.65 579.5-7.85L579.5-7.85Q579.5-6.3 580.13-5.55 580.75-4.8 581.85-4.8L581.85-4.8ZM603.72 0.25Q601.47 0.25 600.04-1.83 598.62-3.9 598.62-7L598.62-7Q598.62-10.75 599.12-13.88 599.62-17 600.77-20.5L600.77-20.5Q601.27-22 602.17-22.65 603.07-23.3 605.02-23.3L605.02-23.3Q606.12-23.3 606.54-22.95 606.97-22.6 606.97-21.9L606.97-21.9Q606.97-21.5 606.42-19.2L606.42-19.2Q605.92-17.35 605.62-15.85L605.62-15.85Q604.62-10.6 604.62-8.85L604.62-8.85Q604.62-7.8 604.87-7.38 605.12-6.95 605.67-6.95L605.67-6.95Q606.42-6.95 607.54-8.45 608.67-9.95 609.94-13 611.22-16.05 612.42-20.5L612.42-20.5Q612.82-22 613.64-22.65 614.47-23.3 616.12-23.3L616.12-23.3Q617.27-23.3 617.72-23.03 618.17-22.75 618.17-22L618.17-22Q618.17-20.75 616.92-15.15L616.92-15.15Q615.52-8.75 615.52-7.25L615.52-7.25Q615.52-6.3 615.92-5.78 616.32-5.25 616.97-5.25L616.97-5.25Q617.97-5.25 619.34-6.48 620.72-7.7 623.02-10.45L623.02-10.45Q623.62-11.15 624.37-11.15L624.37-11.15Q625.02-11.15 625.39-10.55 625.77-9.95 625.77-8.9L625.77-8.9Q625.77-6.9 624.82-5.8L624.82-5.8Q622.67-3.15 620.19-1.45 617.72 0.25 614.57 0.25L614.57 0.25Q612.17 0.25 611.04-1.6 609.92-3.45 609.92-6.8L609.92-6.8Q609.07-3.4 607.37-1.58 605.67 0.25 603.72 0.25L603.72 0.25ZM645.23-11.15Q645.88-11.15 646.26-10.55 646.63-9.95 646.63-8.9L646.63-8.9Q646.63-6.9 645.68-5.8L645.68-5.8Q643.53-3.15 640.98-1.45 638.43 0.25 635.13 0.25L635.13 0.25Q624.93 0.25 624.93-14.1L624.93-14.1Q624.93-16.3 625.08-18.55L625.08-18.55 623.13-18.55Q621.63-18.55 621.11-19.1 620.58-19.65 620.58-20.85L620.58-20.85Q620.58-23.65 622.83-23.65L622.83-23.65 625.68-23.65Q626.53-29.15 628.28-33.7 630.03-38.25 632.51-40.95 634.98-43.65 637.83-43.65L637.83-43.65Q639.93-43.65 641.13-41.8 642.33-39.95 642.33-37.15L642.33-37.15Q642.33-29.4 635.83-23.65L635.83-23.65 641.43-23.65Q642.23-23.65 642.58-23.3 642.93-22.95 642.93-22L642.93-22Q642.93-18.55 637.28-18.55L637.28-18.55 631.18-18.55Q631.08-16.05 631.08-14.65L631.08-14.65Q631.08-9.45 632.31-7.35 633.53-5.25 636.18-5.25L636.18-5.25Q638.33-5.25 639.98-6.55 641.63-7.85 643.88-10.45L643.88-10.45Q644.48-11.15 645.23-11.15L645.23-11.15ZM636.48-38.85Q635.73-38.85 634.81-36.98 633.88-35.1 633.06-31.78 632.23-28.45 631.68-24.4L631.68-24.4Q634.63-26.95 636.11-30.13 637.58-33.3 637.58-35.9L637.58-35.9Q637.58-38.85 636.48-38.85L636.48-38.85ZM669.4-11.05Q670.05-11.05 670.42-10.43 670.8-9.8 670.8-8.85L670.8-8.85Q670.8-7.7 670.45-7.05 670.1-6.4 669.35-5.9L669.35-5.9 659.75 0.55Q657.85 10.9 654.77 16.82 651.7 22.75 646.95 22.75L646.95 22.75Q644.4 22.75 642.8 21.18 641.2 19.6 641.2 17.05L641.2 17.05Q641.2 14.7 642.27 12.25 643.35 9.8 646.27 6.63 649.2 3.45 654.55-0.65L654.55-0.65 654.7-1.8Q655.05-3.65 655.5-7.1L655.5-7.1Q654.5-3.5 652.7-1.63 650.9 0.25 648.9 0.25L648.9 0.25Q646.65 0.25 645.22-1.83 643.8-3.9 643.8-7L643.8-7Q643.8-10.75 644.3-13.88 644.8-17 645.95-20.5L645.95-20.5Q646.45-22 647.35-22.65 648.25-23.3 650.2-23.3L650.2-23.3Q651.3-23.3 651.72-22.95 652.15-22.6 652.15-21.9L652.15-21.9Q652.15-21.5 651.6-19.2L651.6-19.2Q651.1-17.35 650.8-15.85L650.8-15.85Q650.4-13.8 650.1-11.93 649.8-10.05 649.8-8.85L649.8-8.85Q649.8-6.95 650.85-6.95L650.85-6.95Q651.6-6.95 652.72-8.45 653.85-9.95 655.12-13 656.4-16.05 657.6-20.5L657.6-20.5Q658-22 658.82-22.65 659.65-23.3 661.3-23.3L661.3-23.3Q662.45-23.3 662.9-23 663.35-22.7 663.35-22L663.35-22Q663.35-20.75 662.05-13.4L662.05-13.4 660.75-5.35Q664.6-8.25 668.25-10.65L668.25-10.65Q668.9-11.05 669.4-11.05L669.4-11.05ZM647.5 17.9Q648.75 17.9 650.3 15 651.85 12.1 653.4 5.35L653.4 5.35Q649.55 8.6 647.82 11.28 646.1 13.95 646.1 15.95L646.1 15.95Q646.1 16.8 646.42 17.35 646.75 17.9 647.5 17.9L647.5 17.9Z" opacity="1" transform="matrix(1,0,0,1,0,0)" fill="#b19dd0" class="slogan-text-1" data-fill-palette-color="secondary" id="text-1"></path></svg></g></svg></g></svg></g></svg></g></svg></g><defs></defs></svg><rect width="395.52" height="98.97301493101953" fill="none" stroke="none" visibility="hidden"></rect></g></svg></g></svg>